<svg xmlns="http://www.w3.org/2000/svg" viewBox="0 0 781.63 781.63"><defs><style>.cls-1{opacity:0.35;}.cls-2{fill:#f5fff7;}</style></defs><title>sym_circle_3</title><g id="圖層_2" data-name="圖層 2"><g id="圖層_1-2" data-name="圖層 1"><g class="cls-1"><rect class="cls-2" x="65.55" y="580.87" width="32.18" height="33.05" transform="translate(-318.14 146.04) rotate(-33.75)"/><rect class="cls-2" x="683.9" y="167.71" width="32.18" height="33.05" transform="translate(1384.36 -51.47) rotate(146.25)"/><rect class="cls-2" x="168.14" y="65.12" width="32.18" height="33.05" transform="translate(149.76 -116.9) rotate(56.25)"/><rect class="cls-2" x="581.31" y="683.46" width="32.18" height="33.05" transform="translate(347.28 1585.6) rotate(-123.75)"/><rect class="cls-2" x="10.03" y="301.75" width="32.18" height="33.05" transform="translate(62.59 1.02) rotate(11.25)"/><rect class="cls-2" x="739.42" y="446.83" width="32.18" height="33.05" transform="translate(1406.1 1065.2) rotate(-168.75)"/><rect class="cls-2" x="447.27" y="9.6" width="32.18" height="33.05" transform="translate(579.37 -423.23) rotate(101.25)"/><rect class="cls-2" x="302.18" y="738.98" width="32.18" height="33.05" transform="translate(-484.81 920.27) rotate(-78.75)"/><rect class="cls-2" x="10.03" y="446.83" width="32.18" height="33.05" transform="translate(-89.89 14) rotate(-11.25)"/><rect class="cls-2" x="739.42" y="301.75" width="32.18" height="33.05" transform="translate(1558.59 483.04) rotate(168.75)"/><rect class="cls-2" x="302.18" y="9.6" width="32.18" height="33.05" transform="translate(281.8 -291.13) rotate(78.75)"/><rect class="cls-2" x="447.27" y="738.98" width="32.18" height="33.05" transform="translate(-187.24 1357.35) rotate(-101.25)"/><rect class="cls-2" x="65.55" y="167.71" width="32.18" height="33.05" transform="translate(116.11 -14.31) rotate(33.75)"/><rect class="cls-2" x="683.9" y="580.87" width="32.18" height="33.05" transform="translate(950.11 1483.01) rotate(-146.25)"/><rect class="cls-2" x="581.31" y="65.12" width="32.18" height="33.05" transform="translate(997.18 -369.71) rotate(123.75)"/><rect class="cls-2" x="168.14" y="683.46" width="32.18" height="33.05" transform="translate(-500.14 464.28) rotate(-56.25)"/><path class="cls-2" d="M390.82,781.63A390.92,390.92,0,0,1,238.69,30.71,390.92,390.92,0,0,1,542.94,750.92,388.37,388.37,0,0,1,390.82,781.63Zm0-778.15C177.24,3.48,3.48,177.24,3.48,390.82S177.24,778.15,390.82,778.15,778.15,604.39,778.15,390.82,604.39,3.48,390.82,3.48Z"/></g></g></g></svg>