<svg xmlns="http://www.w3.org/2000/svg" xmlns:xlink="http://www.w3.org/1999/xlink" viewBox="0 0 262.59 543.5"><defs><style>.cls-1{fill:none;}.cls-2{fill:#040000;}.cls-3{fill:url(#未命名漸層_408);}.cls-4{fill:url(#未命名漸層_4);}.cls-5{fill:url(#未命名漸層_434);}.cls-6{fill:url(#未命名漸層_5);}.cls-7{fill:url(#未命名漸層_4-2);}.cls-8{opacity:0.45;fill:url(#未命名漸層_7);}.cls-9{fill:url(#未命名漸層_440);}.cls-10{fill:url(#未命名漸層_5-2);}.cls-11{fill:url(#未命名漸層_5-3);}.cls-12{fill:url(#未命名漸層_441);}.cls-13{fill:url(#未命名漸層_441-2);}.cls-14{fill:url(#未命名漸層_408-2);}.cls-15{fill:url(#未命名漸層_389);}.cls-16{fill:#f6b257;}.cls-17{fill:#f08656;opacity:0.34;}.cls-18{fill:#f5c124;}.cls-19{fill:#fff;}.cls-20{clip-path:url(#clip-path);}.cls-21{fill:#b7662f;}.cls-22{clip-path:url(#clip-path-2);}.cls-23{fill:#6d391c;}.cls-24{fill:url(#未命名漸層_395);}.cls-25{fill:#e87f7e;}.cls-26{fill:#ebeff2;}.cls-27{fill:url(#未命名漸層_4-3);}.cls-28{fill:#f0efe2;}</style><linearGradient id="未命名漸層_408" x1="39.61" y1="219.7" x2="24.75" y2="194.57" gradientUnits="userSpaceOnUse"><stop offset="0" stop-color="#f6b792"/><stop offset="0.28" stop-color="#f8c69d"/><stop offset="0.64" stop-color="#fad2a6"/><stop offset="1" stop-color="#fbd6a9"/></linearGradient><linearGradient id="未命名漸層_4" x1="-2580.26" y1="348.95" x2="-2633.69" y2="258.58" gradientTransform="matrix(-1, 0.08, 0.08, 1, -2537.15, 88.66)" gradientUnits="userSpaceOnUse"><stop offset="0" stop-color="#f1e6d9"/><stop offset="0.02" stop-color="#f2e7da"/><stop offset="0.21" stop-color="#f8ede7"/><stop offset="0.47" stop-color="#fcf0ef"/><stop offset="1" stop-color="#fdf1f1"/></linearGradient><linearGradient id="未命名漸層_434" x1="31.51" y1="20.72" x2="29.18" y2="-13.33" gradientTransform="translate(133.55 88.66) rotate(4.78)" gradientUnits="userSpaceOnUse"><stop offset="0" stop-color="#cb6f14"/><stop offset="0.01" stop-color="#cc7218"/><stop offset="0.18" stop-color="#da9044"/><stop offset="0.34" stop-color="#e6a968"/><stop offset="0.51" stop-color="#efbd85"/><stop offset="0.67" stop-color="#f6cb99"/><stop offset="0.84" stop-color="#fad3a5"/><stop offset="1" stop-color="#fbd6a9"/></linearGradient><linearGradient id="未命名漸層_5" x1="-38.23" y1="183.99" x2="17.95" y2="131.89" gradientTransform="translate(133.55 88.66) rotate(4.78)" gradientUnits="userSpaceOnUse"><stop offset="0" stop-color="#f1e6d9"/><stop offset="0.18" stop-color="#f5eae1"/><stop offset="0.59" stop-color="#fbefed"/><stop offset="1" stop-color="#fdf1f1"/></linearGradient><linearGradient id="未命名漸層_4-2" x1="162.74" y1="210.17" x2="24.06" y2="93.1" gradientTransform="translate(133.55 88.66) rotate(4.78)" xlink:href="#未命名漸層_4"/><linearGradient id="未命名漸層_7" x1="89.66" y1="208.27" x2="-6.79" y2="126.85" gradientTransform="translate(133.55 88.66) rotate(4.78)" gradientUnits="userSpaceOnUse"><stop offset="0" stop-color="#f1e6d9"/><stop offset="0.6" stop-color="#f2e7db"/><stop offset="0.81" stop-color="#f5eae2"/><stop offset="0.97" stop-color="#fbefed"/><stop offset="1" stop-color="#fdf1f1"/></linearGradient><linearGradient id="未命名漸層_440" x1="33.89" y1="42.97" x2="31.55" y2="8.7" gradientTransform="translate(133.55 88.66) rotate(4.78)" gradientUnits="userSpaceOnUse"><stop offset="0" stop-color="#152e54"/><stop offset="1" stop-color="#17274b"/></linearGradient><linearGradient id="未命名漸層_5-2" x1="14.31" y1="34.53" x2="-23.19" y2="35.22" xlink:href="#未命名漸層_5"/><linearGradient id="未命名漸層_5-3" x1="40.71" y1="54.92" x2="49.95" y2="7.97" xlink:href="#未命名漸層_5"/><linearGradient id="未命名漸層_441" x1="39.98" y1="2.58" x2="40.58" y2="30.57" gradientTransform="translate(133.55 88.66) rotate(4.78)" gradientUnits="userSpaceOnUse"><stop offset="0" stop-color="#08678e"/><stop offset="1" stop-color="#17274b"/></linearGradient><linearGradient id="未命名漸層_441-2" x1="10.25" y1="20.68" x2="25.76" y2="20.68" xlink:href="#未命名漸層_441"/><linearGradient id="未命名漸層_408-2" x1="2.15" y1="-58.94" x2="64.41" y2="-58.94" gradientTransform="translate(128.18 113.56) rotate(5.7)" xlink:href="#未命名漸層_408"/><linearGradient id="未命名漸層_389" x1="42.61" y1="-104.38" x2="29.93" y2="-84.37" gradientTransform="translate(128.18 113.56) rotate(5.7)" gradientUnits="userSpaceOnUse"><stop offset="0" stop-color="#f6d55a"/><stop offset="1" stop-color="#f5aa57"/></linearGradient><clipPath id="clip-path"><path id="SVGID" class="cls-1" d="M163.84,50.83a6.56,6.56,0,0,1,6-2.85c1.41.14,4.72,2.51,5.36,3.26s1.33.81.49,2.1a4.82,4.82,0,0,1-4.51,2.31l-2.11-.2a6.93,6.93,0,0,1-2.82-.27,8.83,8.83,0,0,1-2.68-1.63C162.92,52.8,163.84,50.83,163.84,50.83Z"/></clipPath><clipPath id="clip-path-2"><path id="SVGID-2" data-name="SVGID" class="cls-1" d="M141.72,51.45a3.51,3.51,0,0,1,1.69-2.58c.77-.61,2.18-.48,3.59-.34a5.45,5.45,0,0,1,3.38,1.69,10.6,10.6,0,0,1,1.2,2.18c.29.94.89,1-.14,1.36-1.48.54-3.73,1.69-5.14,1.56s-4.23-.41-4.16-1.09A15,15,0,0,0,141.72,51.45Z"/></clipPath><linearGradient id="未命名漸層_395" x1="-440.48" y1="1030.73" x2="-431.32" y2="1026.42" gradientTransform="translate(494.45 -1002.15) rotate(-5.35)" gradientUnits="userSpaceOnUse"><stop offset="0" stop-color="#f6b792"/><stop offset="1" stop-color="#fbd6a9"/></linearGradient><linearGradient id="未命名漸層_4-3" x1="140.61" y1="156.9" x2="80.78" y2="55.71" gradientTransform="translate(133.55 88.66) rotate(4.78)" xlink:href="#未命名漸層_4"/></defs><title>dr3</title><g id="圖層_2" data-name="圖層 2"><g id="人物_病毒" data-name="人物+病毒"><path class="cls-2" d="M119.28,517.89s-29.76.31-31,15.33a20.42,20.42,0,0,0,.46,5.7c.38,1.34,1.07,2.54,2.44,2.66,8.66.77,38.84,3.07,59.72,0a2.32,2.32,0,0,0,2-2c.47-3.16.89-10.48-1.48-21.5-3.13-14.49-32.13-.24-32.13-.24"/><path class="cls-2" d="M176.49,518.26s-29.89.32-31.11,15.33a20.42,20.42,0,0,0,.46,5.7c.38,1.34,1.07,2.54,2.45,2.66,8.7.77,39,3.06,60,0a2.33,2.33,0,0,0,2-2c.48-3.16.89-10.48-1.49-21.49-3.14-14.49-32.27-.25-32.27-.25"/><polygon class="cls-2" points="123.08 263.89 121.78 354.81 120.73 428.25 120.12 470.62 119.42 519.79 150.54 519.79 157.86 400.37 162.74 353.31 160.91 320.36 169.45 359.78 172.5 433.31 175.55 476.26 176.65 519.68 208.08 519.68 207.89 434.49 212.16 349.78 215.82 305.65 218.87 260.36 123.08 263.89"/><path class="cls-3" d="M47.29,193.41a32.81,32.81,0,0,1-9.51.7c-4.74-.26-12-1.41-13.17-1.41H19.49c-1.15,0-4.88,1.65-4.39,2.12.32.31,1.52,2.11,3.66,2.12,2.77,0,7.32,1,7.32,1.41-5.13.7-23.42.7-23.42,2.11s5.13,2.82,8.78,2.82a60,60,0,0,1,8,.71,59.21,59.21,0,0,1-6.58.7c-.88,0-7.54-.47-11,0-2.29.32-2.21,1.4-1.46,2.12,1.46,1.41,5.12,1.41,6.58,1.41s12.44.71,12.44.71L10,211s-8.78,0-8.78,1.41,5.85,2.12,7.32,2.12H17.3c.73,0,5.12-.71,5.12-.71l-3.66,1.42-7.32.7s-4.39,0-4.39,2.12c0,1.41,5.86.7,7.32.7,1,0,6.58-.7,6.58-.7l13.91-2.82,11.7-2.12,11.71-.71v-19Z"/><path class="cls-4" d="M133.43,122.45c-3.64-9.29-4.57-20.79-10.76-17.62-4.76,2.44-8.52,8.22-13.16,28.46-.78,3.39-9.65,33.73-11.45,38.23-3,7.65-15.25,8.24-19.52,10-17.36,7.17-36.61,6.47-42.71,8.23-2.93.85,0,5.88,1.22,12.94,0,0,3.06,11.8,5.49,15.89s25,0,35.39-3.53c11.08-3.77,21.69-6.27,26.84-10,4.89-3.53,13.43-8.83,15.87-15.3,1.69-4.49,15.69-25.76,15.74-33.3s3.76-22.22,3.76-22.22S133.94,123.73,133.43,122.45Z"/><path class="cls-5" d="M145.05,99.76C149.52,89.16,181,76.55,181,77.27s1,5.6,1,5.6l-10,41.66-18.28,6.06-5.46-18.93Z"/><path class="cls-6" d="M198,94.43c4.23.35,6.35.52,19.63,3s21.69,3.8,26,11,7.93,23.24,7.93,23.24L237,135.93l-8.88,20.52-72,18.36L156,301l-14,44.71-8.54,11.18-28.68-4.71,1.83-24.71.62-5.88,3.66-31.77,7.32-30.59,4.27-43,1.83-61.18V104.46L144.43,98l16.32,40.7Z"/><path class="cls-7" d="M201.08,93.8c4.23.34,6.35.51,19.63,3s21.7,3.8,26,11S254.68,131,254.68,131l-14.58,4.3-8.88,20.52-6.86,38.65-.61,30,3.06,17.06,3.66,34.71L236,355.66l-47,2.94-36,1.18-3-4.12-2.44-7.06-1.84-12.94,2.29-70.32.76-30,1-40.06-5.39-25.81,3.4-10.94,16.12-20.43Z"/><polygon class="cls-8" points="154.81 355.66 148.1 352.13 146.88 340.36 145.66 333.89 146.26 284.48 147.13 253.47 149.73 195.24 144.34 169.43 147.74 158.49 155.83 148.23 158.28 216.11 155.81 248.67 152.37 327.42 154.81 355.66"/><path class="cls-9" d="M147.1,125.26c.76,7.6-.24,10.94-.3,11.62s.7,8.28.7,8.28l4.29,7.88,22.11-25.62s9.94-16.32,10.06-17.68-.52-10.31-.52-10.31L161,114.16l-4.54,9.12s.53-6.12-3.64-7.14-6.52-6.69-6.52-6.69l-2.06-.87Z"/><path class="cls-10" d="M143.05,98.22c-.26,2.94,4.52,29.82,4.28,32.54s-1.14,13.34-.22,14.92,4,7.3,4,7.3l-20.75-22.9L135.46,112l-6.88-2.61,9.71-13.6a5.71,5.71,0,0,1,3.52.28A2.38,2.38,0,0,1,143.05,98.22Z"/><path class="cls-11" d="M186.08,85.26c2,1.53,5.94,5.27,8.64,6.86a31.61,31.61,0,0,0,6.88,2.61l1.94,10.43-11.35,8,1.17,11.06s-13.58,17.4-21.05,21.59-28.23,12.7-28.23,12.7l22.83-24.1,10.35-21.08Z"/><path class="cls-12" d="M181.56,80.1s2.82.22,4.52,5.16A43.47,43.47,0,0,1,188,96.37a44.93,44.93,0,0,1-5.17,10.54c-3.24,4.53-11.06,21-11.83,21.65s-10.28-12.48-10.28-12.48l-4.18,7.2,6.89-13.83s13.34-14.67,14.23-16.66S181.56,80.1,181.56,80.1Z"/><path class="cls-13" d="M156.5,123.28c.12-1.36-3.4-9.86-3.4-9.86L148.57,100,144,95.56s-1.12,4.71-1.18,5.39,4.29,24.31,4.29,24.31l3.53-7.93s3.41,1.64,4,3.06A12.7,12.7,0,0,0,156.5,123.28Z"/><path class="cls-14" d="M140.43,34.39a18.46,18.46,0,0,1-1.27,5.36,19.28,19.28,0,0,0-2,6,6.06,6.06,0,0,0,1.62,5c1.27,1.49,4.09,8.62,3.95,10s1.55,5.64.63,7.61-1,9.5-.42,10.93.57,8.29,3.24,9.91,7.4,4.15,12.4,3.94,17.26-1.77,18.81-3,6.26-5.57,7.32-8.9,1.13-4,2.25-8S189,66.5,189,66.5s6-2.85,6.13-4.21,3.45-5.84,3.59-7.2-.35-3.46-.28-4.14-.21-4.82-.21-4.82-7.19-13-13.25-16.37-6-4-14.37-5.5-6.76-3.39-13.31-2-10.56,5.84-12.11,7.06A54.72,54.72,0,0,0,140.43,34.39Z"/><path class="cls-15" d="M140.59,34.88c-6.27-1.29-9.37-5.71-7.54-9.65s5-13.92,7.46-17.11,2.89-7.27,9.37-8S163.83,2.82,165,5s2.75,1,9.66,3,7.88-.61,15.77,5.63,8.88,10.46,10,13.31,2.82,7.13,2.4,11.21-4,11.27-4,11.27A26,26,0,0,0,195,45.6a4.48,4.48,0,0,0-4.3.27c-.77.61-2.18,7.34-2.18,7.34l-1.41-.14s.49-11.61-1.41-13.85-2.12-7.07-7.61-9-7.47-3.46-8.24-2.85A4.88,4.88,0,0,1,165.38,29,10.52,10.52,0,0,1,161.23,28s-1.62,1.9-2.33,1.83l-2.11-.2a3.64,3.64,0,0,1-3.17,3.12,16.7,16.7,0,0,1-5,.21c-1.48.54-1.48.54-2.82-.27a5.62,5.62,0,0,0-2-.89,5.62,5.62,0,0,1-3,1.77Z"/><path class="cls-16" d="M202.88,35.68a14.31,14.31,0,0,1,0,2.45c-.1.88-16.56,1.83-17.19,1.09a22.73,22.73,0,0,1-2.12-4C182.56,33.31,202.63,32.41,202.88,35.68Z"/><path class="cls-17" d="M201.9,42.08a64.18,64.18,0,0,1-3.06,7.32A26,26,0,0,0,195,45.6a4.48,4.48,0,0,0-4.3.27c-.77.61-2.18,7.34-2.18,7.34l-1.41-.14a76.41,76.41,0,0,0-.24-9.68C186.62,41.51,202,41.75,201.9,42.08Z"/><path class="cls-18" d="M142.78,61.84c-1,1.79-.38,4.41-1,6-.52,1.32-1,2.48-1.38,3.37-.91,2-2.67,5.23-2.95,8s-.64,6.11,1.27,8.35,7.82,6.93,9.86,7.81S156,98.78,161,99.26s11.55-1.64,13.87-3.47,10.35-10.66,11.2-12,2.32-8.7,2.39-9.38-.19-4.48-.06-6,1-2.82.55-5.6.21-8.9.21-8.9l-2-.88s-1.76,10.12-2,12.84A18.22,18.22,0,0,1,178.91,77C175,80,170.39,83.7,166.8,84s-11.34-.4-13.45-.61-5.43-2.58-6-4-2.47-3.67-2.89-6.45c-.26-1.71-.6-5.24-.82-7.71A15.26,15.26,0,0,0,142.78,61.84Z"/><path class="cls-16" d="M145.41,76.2c-2,.1-5.24,3.91-6.08,5.2s-1.27,5.36-.63,6.11.36.41.36.41.69-3.74,1.54-5a20.94,20.94,0,0,1,3.24-3.8l2.32-1.84-.59-1.08Z"/><path class="cls-16" d="M149.86,82a12.19,12.19,0,0,0-3.91,4.2c-.91,2-1.21,6.67-1.21,6.67l.83.62s.44-2.07.73-3.83a9.94,9.94,0,0,1,1-2.64c.84-1.29,1.76-3.26,2.53-3.88a4.13,4.13,0,0,1,.88-.62Z"/><path class="cls-16" d="M157.22,83.78a13.93,13.93,0,0,0-2.32,5.29,9.82,9.82,0,0,0-.5,4.75c.11.68.73,4.13.73,4.13l1.47.44a22.09,22.09,0,0,1-.86-3.75c.07-.68-.21-4.82.71-6.79s2-4,2-4Z"/><path class="cls-16" d="M165.73,84.11a21,21,0,0,0-.48,8c.42,2.79,1.43,6.77,1.43,6.77l1.12-.23s-.79-2.94-1.21-5.72a30.41,30.41,0,0,1,0-6.86c.07-.68.37-2.06.37-2.06Z"/><path class="cls-16" d="M174.37,80.44c.32,3,.11,5,1.24,7.88s2.07,4.76,2.07,4.76l.67-.68a21.6,21.6,0,0,1-2-4.69,20.6,20.6,0,0,1-.85-5.57,7,7,0,0,0-.17-2.42Z"/><path class="cls-16" d="M183.88,86.41A33,33,0,0,1,181.24,82c-.56-1.42-1.8-5.46-1.8-5.46l.41-.38s1,3.06,1.53,4.48,2.9,5.31,2.9,5.31Z"/><path class="cls-16" d="M138.23,43.92c3-1.09,4.51-2.31,5.92-2.18l4.93.48c.7.07,2.74,1,3.45,1s-.14,1.36-.14,1.36a3.13,3.13,0,0,1-.78.61A7.68,7.68,0,0,1,149.5,45c-1.41-.13-5.78.82-6.48.75a5.49,5.49,0,0,0-3,1.09c-.77.61-2.11-.2-2.11-.2a2.35,2.35,0,0,1-.57-1.43A2.37,2.37,0,0,1,138.23,43.92Z"/><path class="cls-16" d="M161.62,43.43c2.11.2,2.92-1.5,5-1.29l6.67.64c2.12.2,4.2,1.38,4.68,2.22s-.57-3.5-2.61-4.39a31.5,31.5,0,0,0-5.35-1.69,10.66,10.66,0,0,0-4.85-.47,6.58,6.58,0,0,0-3.16.88C160.49,40.55,161.62,43.43,161.62,43.43Z"/><path class="cls-19" d="M163.84,50.83a6.56,6.56,0,0,1,6-2.85c1.41.14,4.72,2.51,5.36,3.26s1.33.81.49,2.1a4.82,4.82,0,0,1-4.51,2.31l-2.11-.2a6.93,6.93,0,0,1-2.82-.27,8.83,8.83,0,0,1-2.68-1.63C162.92,52.8,163.84,50.83,163.84,50.83Z"/><g class="cls-20"><ellipse class="cls-21" cx="170.17" cy="51.44" rx="3.54" ry="3.41"/></g><path class="cls-19" d="M141.72,51.45a3.51,3.51,0,0,1,1.69-2.58c.77-.61,2.18-.48,3.59-.34a5.45,5.45,0,0,1,3.38,1.69,10.6,10.6,0,0,1,1.2,2.18c.29.94.89,1-.14,1.36-1.48.54-3.73,1.69-5.14,1.56s-4.23-.41-4.16-1.09A15,15,0,0,0,141.72,51.45Z"/><g class="cls-22"><ellipse class="cls-21" cx="148.13" cy="51.38" rx="3.54" ry="3.41"/><ellipse class="cls-23" cx="148.13" cy="51.38" rx="2.12" ry="2.05"/></g><path class="cls-24" d="M158.49,56c.91,2,1.44,7.41,1.63,9.45s-2.55,4.66-4,4.53a4.73,4.73,0,0,1-2-.89c-1.07-.74-1.89-.72-2-1.56,0-.41-.05-3.71.49-4.75s1.78-1.89,2-2.32c1.21-2.17.82-6.24,2.29-5.69S158.49,56,158.49,56Z"/><path class="cls-25" d="M151.06,74.34l.9.08,4,.38,4.25.41c1.57.15,4.88-.12,9.77.35.61.06.23,1-.79,1.7-.27.2-.41.32-.67.53-.66.52-1.27.46-3.15.87-1.55.34-7.06-.08-9.17-.29a11.66,11.66,0,0,1-4-1.14C151.8,77.05,151.06,74.34,151.06,74.34Z"/><path class="cls-26" d="M151.67,74.39l.29,0,4,.38,4.25.41c1.57.15,5.52-.06,10.44-.18.61,0-.44,1.49-1.46,2.23-.18.13-.3.23-.43.34s-15.66-.91-16-1.33A5.52,5.52,0,0,1,151.67,74.39Z"/><ellipse class="cls-23" cx="170.17" cy="51.44" rx="2.12" ry="2.05"/><path class="cls-27" d="M230.62,120.69c3.65-9.3,4.58-20.79,10.76-17.63,4.76,2.44,8.52,8.22,13.16,28.46.78,3.4,4.94,16.84,5.23,21.65.21,3.41,1.34,22,2.63,39.89,1.3,18.17-4.35,26.62-5.09,33.76-1.22,11.77-35,50.22-30.5,54.71,0,0-24.76-20.08-23.8-24.7.61-2.94,0,.58,9.76-17.06,8-14.54,5.49-15.3,13.43-27.65,4.18-6.53,5.4-23.59,4.27-28.24-2.44-10-2.74-21.65-2.8-29.18s-3.76-22.22-3.76-22.22S230.12,122,230.62,120.69Z"/><polygon class="cls-28" points="195.69 258.59 201.18 252.71 228.64 282.12 224.37 287.42 195.69 258.59"/></g></g></svg>