<svg xmlns="http://www.w3.org/2000/svg" viewBox="0 0 1151.24 724.4"><defs><style>.cls-1{opacity:0.8;}.cls-2{fill:none;stroke:#29abe2;stroke-miterlimit:10;opacity:0.2;}</style></defs><title>beehome</title><g id="圖層_2" data-name="圖層 2"><g id="剪影"><g class="cls-1"><polygon class="cls-2" points="161.49 137.41 123.61 193.01 56.52 188.01 27.31 127.41 65.18 71.81 132.27 76.81 161.49 137.41"/><polygon class="cls-2" points="152.58 253.9 114.7 309.5 47.61 304.5 18.4 243.9 56.27 188.3 123.36 193.3 152.58 253.9"/><polygon class="cls-2" points="257.6 202.97 219.73 258.57 152.64 253.58 123.43 192.98 161.3 137.38 228.39 142.37 257.6 202.97"/><polygon class="cls-2" points="248.69 318.82 210.82 374.42 143.73 369.43 114.52 308.82 152.39 253.22 219.48 258.22 248.69 318.82"/><polygon class="cls-2" points="239.78 435.31 201.91 490.91 134.82 485.91 105.6 425.31 143.48 369.71 210.57 374.71 239.78 435.31"/><polygon class="cls-2" points="450.47 334.1 412.6 389.7 345.51 384.7 316.3 324.1 354.17 268.5 421.26 273.5 450.47 334.1"/><polygon class="cls-2" points="345.45 385.02 307.57 440.62 240.48 435.63 211.27 375.02 249.14 319.42 316.23 324.42 345.45 385.02"/><polygon class="cls-2" points="362.63 152.05 324.76 207.65 257.67 202.65 228.46 142.05 266.33 86.45 333.42 91.45 362.63 152.05"/><polygon class="cls-2" points="354.36 268.54 316.48 324.14 249.4 319.14 220.18 258.54 258.05 202.94 325.14 207.94 354.36 268.54"/><polygon class="cls-2" points="335.9 500.87 298.02 556.47 230.94 551.47 201.72 490.87 239.59 435.27 306.68 440.27 335.9 500.87"/><polygon class="cls-2" points="230.87 551.79 193 607.4 125.91 602.4 96.69 541.8 134.57 486.2 201.66 491.19 230.87 551.79"/><polygon class="cls-2" points="221.96 668.28 184.08 723.88 117 718.88 87.78 658.28 125.66 602.68 192.74 607.68 221.96 668.28"/><polygon class="cls-2" points="326.99 617.36 289.11 672.96 222.02 667.96 192.81 607.36 230.68 551.76 297.77 556.76 326.99 617.36"/><polygon class="cls-2" points="467.66 101.13 429.79 156.73 362.7 151.73 333.48 91.13 371.36 35.53 438.45 40.53 467.66 101.13"/><polygon class="cls-2" points="458.75 217.62 420.88 273.21 353.79 268.22 324.57 207.62 362.45 152.01 429.53 157.01 458.75 217.62"/><polygon class="cls-2" points="564.41 167.33 526.54 222.93 459.45 217.93 430.24 157.33 468.11 101.73 535.2 106.73 564.41 167.33"/><polygon class="cls-2" points="555.5 283.18 517.63 338.78 450.54 333.78 421.32 273.18 459.2 217.58 526.29 222.58 555.5 283.18"/><polygon class="cls-2" points="546.59 399.66 508.72 455.26 441.63 450.26 412.41 389.67 450.29 334.06 517.38 339.06 546.59 399.66"/><polygon class="cls-2" points="651.62 348.74 613.75 404.34 546.66 399.34 517.44 338.74 555.32 283.14 622.4 288.14 651.62 348.74"/><polygon class="cls-2" points="661.17 232.89 623.29 288.49 556.2 283.49 526.99 222.89 564.86 167.29 631.95 172.29 661.17 232.89"/><polygon class="cls-2" points="757.28 298.45 719.41 354.06 652.32 349.06 623.11 288.46 660.98 232.85 728.07 237.85 757.28 298.45"/><polygon class="cls-2" points="749.01 414.94 711.13 470.54 644.05 465.54 614.83 404.94 652.71 349.34 719.79 354.34 749.01 414.94"/><polygon class="cls-2" points="739.46 530.79 701.59 586.39 634.5 581.39 605.28 520.79 643.16 465.19 710.25 470.19 739.46 530.79"/><polygon class="cls-2" points="669.44 116.41 631.57 172.01 564.48 167.01 535.26 106.41 573.14 50.81 640.23 55.81 669.44 116.41"/><polygon class="cls-2" points="642.71 465.23 604.83 520.83 537.75 515.83 508.53 455.23 546.4 399.63 613.49 404.63 642.71 465.23"/><polygon class="cls-2" points="537.04 515.51 499.17 571.11 432.08 566.11 402.87 505.51 440.74 449.91 507.83 454.91 537.04 515.51"/><polygon class="cls-2" points="528.77 632 490.89 687.6 423.81 682.6 394.59 622 432.46 566.4 499.55 571.4 528.77 632"/><polygon class="cls-2" points="633.8 581.08 595.92 636.68 528.83 631.68 499.62 571.08 537.49 515.48 604.58 520.48 633.8 581.08"/><polygon class="cls-2" points="774.47 66.12 736.6 121.72 669.51 116.72 640.29 56.12 678.17 0.52 745.25 5.52 774.47 66.12"/><polygon class="cls-2" points="766.2 181.97 728.32 237.57 661.23 232.57 632.02 171.97 669.89 116.37 736.98 121.37 766.2 181.97"/><polygon class="cls-2" points="871.22 131.68 833.35 187.28 766.26 182.28 737.05 121.68 774.92 66.08 842.01 71.08 871.22 131.68"/><polygon class="cls-2" points="862.31 248.17 824.44 303.77 757.35 298.77 728.13 238.17 766.01 182.57 833.1 187.57 862.31 248.17"/><polygon class="cls-2" points="853.4 364.65 815.53 420.25 748.44 415.25 719.22 354.65 757.1 299.06 824.18 304.05 853.4 364.65"/><polygon class="cls-2" points="958.43 314.37 920.55 369.97 853.47 364.97 824.25 304.37 862.13 248.77 929.21 253.77 958.43 314.37"/><polygon class="cls-2" points="1064.09 264.08 1026.22 319.68 959.13 314.68 929.92 254.08 967.79 198.48 1034.88 203.48 1064.09 264.08"/><polygon class="cls-2" points="976.25 82.03 938.38 137.63 871.29 132.63 842.07 72.03 879.95 16.43 947.04 21.43 976.25 82.03"/><polygon class="cls-2" points="967.34 198.52 929.47 254.12 862.38 249.12 833.16 188.52 871.04 132.92 938.13 137.92 967.34 198.52"/><polygon class="cls-2" points="949.52 430.85 911.64 486.45 844.55 481.45 815.34 420.86 853.21 365.25 920.3 370.25 949.52 430.85"/><polygon class="cls-2" points="844.49 480.5 806.62 536.1 739.53 531.11 710.31 470.5 748.18 414.9 815.27 419.9 844.49 480.5"/><polygon class="cls-2" points="836.21 596.99 798.34 652.59 731.25 647.59 702.04 586.99 739.91 531.39 807 536.39 836.21 596.99"/><polygon class="cls-2" points="940.61 546.7 902.73 602.3 835.64 597.3 806.43 536.7 844.3 481.1 911.39 486.1 940.61 546.7"/><polygon class="cls-2" points="1054.55 380.57 1016.67 436.17 949.58 431.17 920.37 370.57 958.24 314.97 1025.33 319.97 1054.55 380.57"/><polygon class="cls-2" points="1045.63 497.05 1007.76 552.65 940.67 547.65 911.46 487.05 949.33 431.45 1016.42 436.45 1045.63 497.05"/><polygon class="cls-2" points="1150.66 446.13 1112.79 501.73 1045.7 496.73 1016.48 436.13 1054.36 380.53 1121.45 385.53 1150.66 446.13"/><polygon class="cls-2" points="134.75 486.23 96.88 541.83 29.79 536.83 0.58 476.23 38.45 420.63 105.54 425.63 134.75 486.23"/><polygon class="cls-2" points="432.01 566.44 394.14 622.04 327.05 617.04 297.84 556.44 335.71 500.84 402.8 505.83 432.01 566.44"/></g></g></g></svg>