<svg xmlns="http://www.w3.org/2000/svg" viewBox="0 0 519.68 370.64"><defs><style>.cls-1{fill:#2c7187;}</style></defs><title>china</title><g id="圖層_2" data-name="圖層 2"><g id="世界地圖"><path class="cls-1" d="M505.32,30.72l-19.15.65-54-29.13a18.67,18.67,0,0,0-25.56,8.08L394.5,34.56l-19.37,17a5.76,5.76,0,0,0,1.58,9.65l29.74,12.39-61.38,39.86-59.79,30.29L221.51,127,207.16,107.9,166.5,92.75l8.77-19.13-19.4-19.94A16.85,16.85,0,0,0,135.13,51L86.78,80,81.2,108.69,43.33,120.25,31,119.86s-19.93,3.18-29.5,12,30.3,47,30.3,47l9.56,35.87-9.56,12.76,81.31,57.39s63.77-9.56,67.76-9.56,40.66,19.93,40.66,19.93l-12.76,29.49,31.5,37.41A14.15,14.15,0,0,0,256.66,366l36.59-15.78,11.36-1.06c6.1,2.35,34.38,23.95,40.33,21.22l67.89-31.32,22.71-35.69a65.4,65.4,0,0,0,7.22-54.74l-22-69.8,6.92-8,12.74-21.22-.51,1.8,64.56-53.92-5.58-22.32,15.15-2.39,5.44-31.19A10.1,10.1,0,0,0,505.32,30.72Z"/></g></g></svg>