<svg xmlns="http://www.w3.org/2000/svg" xmlns:xlink="http://www.w3.org/1999/xlink" viewBox="0 0 272.72 539.84"><defs><style>.cls-1{fill:none;}.cls-2{opacity:0.9;}.cls-3{fill:url(#未命名漸層_408);}.cls-4{fill:url(#未命名漸層_2);}.cls-5{fill:url(#未命名漸層_434);}.cls-6{fill:url(#未命名漸層_3);}.cls-7{fill:url(#未命名漸層_2-2);}.cls-8{opacity:0.45;fill:url(#未命名漸層_7);}.cls-9{fill:url(#未命名漸層_440);}.cls-10{fill:url(#未命名漸層_3-2);}.cls-11{fill:url(#未命名漸層_3-3);}.cls-12{fill:url(#未命名漸層_441);}.cls-13{fill:url(#未命名漸層_441-2);}.cls-14{fill:url(#未命名漸層_408-2);}.cls-15{fill:url(#未命名漸層_389);}.cls-16{fill:#ffb655;}.cls-17{fill:#ff8a55;opacity:0.34;}.cls-18{fill:#ffc715;}.cls-19{fill:#fff;}.cls-20{clip-path:url(#clip-path);}.cls-21{fill:#bc682f;}.cls-22{clip-path:url(#clip-path-2);}.cls-23{fill:#703913;}.cls-24{fill:url(#未命名漸層_395);}.cls-25{fill:#f48282;}.cls-26{fill:#ebf0f3;}.cls-27{fill:url(#未命名漸層_2-3);}.cls-28{fill:#f1f0e3;}</style><linearGradient id="未命名漸層_408" x1="41.13" y1="228.18" x2="25.7" y2="202.08" gradientUnits="userSpaceOnUse"><stop offset="0" stop-color="#ffbb94"/><stop offset="0.27" stop-color="#ffc99e"/><stop offset="0.64" stop-color="#ffd5a7"/><stop offset="1" stop-color="#ffd9aa"/></linearGradient><linearGradient id="未命名漸層_2" x1="19077.51" y1="-546.24" x2="19022.03" y2="-640.1" gradientTransform="matrix(-1, 0.08, 0.08, 1, 19122.35, -815.25)" gradientUnits="userSpaceOnUse"><stop offset="0" stop-color="#f2e8da"/><stop offset="0.02" stop-color="#f3e9db"/><stop offset="0.21" stop-color="#faeee8"/><stop offset="0.47" stop-color="#fef1f0"/><stop offset="1" stop-color="#fff2f2"/></linearGradient><linearGradient id="未命名漸層_434" x1="-655.16" y1="989.53" x2="-657.57" y2="954.16" gradientTransform="translate(904.85 -815.25) rotate(4.78)" gradientUnits="userSpaceOnUse"><stop offset="0" stop-color="#d47100"/><stop offset="0.08" stop-color="#da8019"/><stop offset="0.23" stop-color="#e59b45"/><stop offset="0.38" stop-color="#efb169"/><stop offset="0.54" stop-color="#f6c386"/><stop offset="0.69" stop-color="#fbcf9a"/><stop offset="0.85" stop-color="#fed7a6"/><stop offset="1" stop-color="#ffd9aa"/></linearGradient><linearGradient id="未命名漸層_3" x1="-727.58" y1="1159.09" x2="-669.24" y2="1104.99" gradientTransform="translate(904.85 -815.25) rotate(4.78)" gradientUnits="userSpaceOnUse"><stop offset="0" stop-color="#f2e8da"/><stop offset="0.18" stop-color="#f6ebe2"/><stop offset="0.59" stop-color="#fdf0ee"/><stop offset="1" stop-color="#fff2f2"/></linearGradient><linearGradient id="未命名漸層_2-2" x1="-518.86" y1="1186.29" x2="-662.89" y2="1064.7" gradientTransform="translate(904.85 -815.25) rotate(4.78)" xlink:href="#未命名漸層_2"/><linearGradient id="未命名漸層_7" x1="-594.76" y1="1184.31" x2="-694.93" y2="1099.75" gradientTransform="translate(904.85 -815.25) rotate(4.78)" gradientUnits="userSpaceOnUse"><stop offset="0" stop-color="#f2e8da"/><stop offset="0.6" stop-color="#f3e9dc"/><stop offset="0.81" stop-color="#f7ece3"/><stop offset="0.97" stop-color="#fdf1ee"/><stop offset="1" stop-color="#fff2f2"/></linearGradient><linearGradient id="未命名漸層_440" x1="-652.68" y1="1012.63" x2="-655.11" y2="977.05" gradientTransform="translate(904.85 -815.25) rotate(4.78)" gradientUnits="userSpaceOnUse"><stop offset="0" stop-color="#002b5d"/><stop offset="1" stop-color="#002155"/></linearGradient><linearGradient id="未命名漸層_3-2" x1="-673.02" y1="1003.87" x2="-711.96" y2="1004.58" xlink:href="#未命名漸層_3"/><linearGradient id="未命名漸層_3-3" x1="-645.6" y1="1025.04" x2="-636" y2="976.28" xlink:href="#未命名漸層_3"/><linearGradient id="未命名漸層_441" x1="-646.36" y1="970.68" x2="-645.73" y2="999.75" gradientTransform="translate(904.85 -815.25) rotate(4.78)" gradientUnits="userSpaceOnUse"><stop offset="0" stop-color="#006b94"/><stop offset="1" stop-color="#002155"/></linearGradient><linearGradient id="未命名漸層_441-2" x1="-677.23" y1="989.49" x2="-661.13" y2="989.49" xlink:href="#未命名漸層_441"/><linearGradient id="未命名漸層_408-2" x1="-809.97" y1="1100.18" x2="-745.31" y2="1100.18" gradientTransform="translate(1056.68 -957.03) rotate(5.7)" xlink:href="#未命名漸層_408"/><linearGradient id="未命名漸層_389" x1="-767.95" y1="1052.99" x2="-781.12" y2="1073.77" gradientTransform="translate(1056.68 -957.03) rotate(5.7)" gradientUnits="userSpaceOnUse"><stop offset="0" stop-color="#ffdb55"/><stop offset="1" stop-color="#ffaf55"/></linearGradient><clipPath id="clip-path"><path class="cls-1" d="M170.15,52.79a6.85,6.85,0,0,1,6.22-3c1.47.14,4.9,2.61,5.56,3.39s1.39.84.52,2.18a5,5,0,0,1-4.69,2.4l-2.19-.21a7.37,7.37,0,0,1-2.93-.28,9.25,9.25,0,0,1-2.78-1.69C169.2,54.84,170.15,52.79,170.15,52.79Z"/></clipPath><clipPath id="clip-path-2"><path class="cls-1" d="M147.18,53.43a3.69,3.69,0,0,1,1.76-2.68c.8-.63,2.27-.49,3.73-.35a5.71,5.71,0,0,1,3.51,1.76,10.7,10.7,0,0,1,1.25,2.26c.3,1,.92,1-.15,1.41-1.54.56-3.88,1.76-5.34,1.62s-4.39-.42-4.32-1.13A15,15,0,0,0,147.18,53.43Z"/></clipPath><linearGradient id="未命名漸層_395" x1="433" y1="26.82" x2="442.51" y2="22.35" gradientTransform="translate(-275.81 81.3) rotate(-5.35)" gradientUnits="userSpaceOnUse"><stop offset="0" stop-color="#ffbb94"/><stop offset="1" stop-color="#ffd9aa"/></linearGradient><linearGradient id="未命名漸層_2-3" x1="-541.85" y1="1130.96" x2="-603.98" y2="1025.86" gradientTransform="translate(904.85 -815.25) rotate(4.78)" xlink:href="#未命名漸層_2"/></defs><title>dr_talk</title><g id="圖層_2" data-name="圖層 2"><g id="導覽頁"><g class="cls-2"><polygon points="127.83 274.06 126.48 368.49 125.38 444.77 124.75 488.77 124.02 539.84 156.34 539.84 163.95 415.81 169.02 366.93 167.12 332.72 175.99 373.65 179.16 450.03 182.32 494.63 183.46 539.72 216.1 539.72 215.91 451.25 220.34 363.27 224.15 317.44 227.32 270.4 127.83 274.06"/><path class="cls-3" d="M49.12,200.87a33.93,33.93,0,0,1-9.88.73c-4.92-.27-12.52-1.46-13.68-1.46H20.24c-1.19,0-5.06,1.7-4.56,2.19.34.32,1.58,2.2,3.8,2.2,2.88,0,7.6,1.05,7.6,1.47-5.32.73-24.31.73-24.31,2.19s5.32,2.93,9.12,2.93a62.1,62.1,0,0,1,8.35.74,61.28,61.28,0,0,1-6.83.73c-.92,0-7.83-.5-11.4,0-2.38.33-2.3,1.45-1.52,2.2,1.52,1.46,5.32,1.46,6.84,1.46s12.91.74,12.91.74l-9.87,2.19s-9.12,0-9.12,1.47,6.08,2.2,7.6,2.2H18c.76,0,5.32-.74,5.32-.74l-3.8,1.47-7.59.73s-4.56,0-4.56,2.2c0,1.46,6.08.73,7.59.73,1.08,0,6.84-.73,6.84-.73l14.44-2.93,12.16-2.2,12.15-.73V200.87Z"/><path class="cls-4" d="M138.58,127.18c-3.79-9.66-4.75-21.6-11.18-18.31-4.94,2.53-8.85,8.54-13.66,29.56-.81,3.53-10,35-11.89,39.71-3.17,7.94-15.85,8.55-20.28,10.39-18,7.45-38,6.72-44.36,8.55-3,.88,0,6.11,1.27,13.44,0,0,3.18,12.25,5.7,16.5s26,0,36.75-3.67c11.51-3.91,22.53-6.51,27.89-10.38,5.07-3.67,13.94-9.17,16.47-15.89,1.76-4.66,16.3-26.75,16.35-34.58s3.91-23.08,3.91-23.08S139.1,128.51,138.58,127.18Z"/><path class="cls-5" d="M150.64,103.6c4.64-11,37.3-24.1,37.34-23.35s1.07,5.82,1.07,5.82l-10.39,43.27-19,6.29L154,116Z"/><path class="cls-6" d="M205.61,98.08c4.4.35,6.6.53,20.39,3.06s22.53,4,27.05,11.43,8.23,24.14,8.23,24.14l-15.14,4.47-9.22,21.3-74.77,19.07-.1,131L147.47,359,138.6,370.6l-29.78-4.89,1.9-25.66.63-6.11,3.8-33,7.61-31.77,4.43-44.6,1.9-63.55V108.49L150,101.77,167,144Z"/><path class="cls-7" d="M208.84,97.42c4.39.35,6.59.53,20.39,3.06s22.53,4,27,11.43,8.24,24.14,8.24,24.14l-15.15,4.47-9.22,21.31L233,202l-.63,31.16,3.16,17.72,3.81,36,5.7,82.49-48.8,3.05-37.38,1.22-3.17-4.27-2.54-7.33-1.9-13.45,2.37-73,.8-31.21,1.06-41.6L149.91,176l3.53-11.36,16.74-21.22Z"/><polygon class="cls-8" points="160.78 369.38 153.81 365.71 152.54 353.49 151.27 346.77 151.91 295.45 152.8 263.25 155.5 202.77 149.91 175.96 153.44 164.6 161.84 153.95 164.38 224.44 161.82 258.26 158.24 340.05 160.78 369.38"/><path class="cls-9" d="M152.77,130.09c.79,7.89-.25,11.37-.31,12.07s.73,8.6.73,8.6l4.46,8.18,23-26.6s10.32-17,10.45-18.37-.55-10.71-.55-10.71l-23.25,15.3L162.54,128s.55-6.36-3.78-7.42-6.78-7-6.78-7l-2.13-.9Z"/><path class="cls-10" d="M148.57,102c-.27,3,4.69,31,4.44,33.79s-1.18,13.86-.22,15.5,4.12,7.58,4.12,7.58l-21.54-23.79,5.32-18.77-7.15-2.71,10.08-14.13a5.9,5.9,0,0,1,3.66.3A2.48,2.48,0,0,1,148.57,102Z"/><path class="cls-11" d="M193.26,88.54c2.08,1.59,6.17,5.48,9,7.13a32.22,32.22,0,0,0,7.15,2.71l2,10.83-11.79,8.3L200.82,129S186.71,147.06,179,151.41s-29.33,13.19-29.33,13.19l23.71-25,10.76-21.9Z"/><path class="cls-12" d="M188.56,83.19s2.93.23,4.7,5.36a45.34,45.34,0,0,1,2,11.53,46.33,46.33,0,0,1-5.37,11c-3.36,4.71-11.49,21.84-12.28,22.49s-10.68-13-10.68-13L162.54,128l7.15-14.37s13.86-15.24,14.78-17.3S188.56,83.19,188.56,83.19Z"/><path class="cls-13" d="M162.54,128c.12-1.42-3.54-10.25-3.54-10.25l-4.7-13.89-4.76-4.65s-1.16,4.88-1.22,5.59,4.45,25.25,4.45,25.25l3.67-8.24s3.54,1.71,4.15,3.18A13.13,13.13,0,0,0,162.54,128Z"/><path class="cls-14" d="M145.84,35.71a19.23,19.23,0,0,1-1.31,5.58,20.19,20.19,0,0,0-2.12,6.2,6.27,6.27,0,0,0,1.68,5.15c1.32,1.55,4.24,9,4.1,10.37s1.61,5.85.66,7.9-1,9.87-.44,11.36.59,8.6,3.37,10.29,7.68,4.3,12.87,4.09,17.93-1.84,19.54-3.11,6.51-5.78,7.6-9.24S193,80.14,194.13,76s2.2-6.91,2.2-6.91,6.21-3,6.36-4.38,3.58-6.06,3.73-7.47-.37-3.6-.29-4.31-.22-5-.22-5-7.47-13.55-13.76-17-6.22-4.16-14.93-5.71-7-3.53-13.82-2-11,6.06-12.58,7.33A57.57,57.57,0,0,0,145.84,35.71Z"/><path class="cls-15" d="M146,36.22c-6.51-1.34-9.73-5.92-7.83-10s5.19-14.46,7.75-17.78,3-7.55,9.73-8.32,14.49,2.82,15.73,5.07,2.85,1,10,3.11,8.2-.64,16.39,5.85S207,25,208.19,28s2.93,7.41,2.49,11.64-4.17,11.71-4.17,11.71a27.06,27.06,0,0,0-4-4,4.65,4.65,0,0,0-4.46.28c-.81.64-2.27,7.62-2.27,7.62l-1.46-.14s.51-12.06-1.47-14.39-2.2-7.34-7.9-9.31-7.76-3.6-8.56-3a5.08,5.08,0,0,1-4.61,1.69A10.9,10.9,0,0,1,167.44,29s-1.68,2-2.41,1.91l-2.19-.21a3.79,3.79,0,0,1-3.3,3.24,17,17,0,0,1-5.19.22c-1.54.56-1.54.56-2.93-.29A5.84,5.84,0,0,0,149.3,33a5.78,5.78,0,0,1-3.14,1.83Z"/><path class="cls-16" d="M210.7,37.06a13.47,13.47,0,0,1,0,2.54c-.09.91-17.19,1.9-17.85,1.13a23.36,23.36,0,0,1-2.2-4.13C189.61,34.59,210.44,33.66,210.7,37.06Z"/><path class="cls-17" d="M209.68,43.71a66.81,66.81,0,0,1-3.17,7.6,27.06,27.06,0,0,0-4-4,4.65,4.65,0,0,0-4.46.28c-.81.64-2.27,7.62-2.27,7.62l-1.46-.14A78,78,0,0,0,194,45.06C193.82,43.11,209.8,43.36,209.68,43.71Z"/><path class="cls-18" d="M148.28,64.22c-1,1.86-.39,4.59-1.05,6.24-.54,1.36-1,2.57-1.43,3.5-1,2-2.78,5.43-3.07,8.25s-.66,6.35,1.32,8.68,8.12,7.19,10.24,8.11,7.75,3.59,12.87,4.08,12-1.69,14.42-3.6,10.75-11.07,11.62-12.41,2.42-9,2.49-9.73-.2-4.66-.06-6.25,1-2.92.57-5.82.22-9.24.22-9.24l-2.12-.91s-1.83,10.51-2.12,13.33A19,19,0,0,1,185.81,80c-4,3.17-8.85,7-12.58,7.33s-11.77-.42-14-.63S153.63,84,153,82.49s-2.56-3.81-3-6.7c-.27-1.77-.62-5.43-.85-8A16.09,16.09,0,0,0,148.28,64.22Z"/><path class="cls-16" d="M151,79.14c-2.07.11-5.43,4.06-6.31,5.4s-1.31,5.57-.65,6.35.37.42.37.42.72-3.88,1.6-5.22a22.37,22.37,0,0,1,3.36-4l2.42-1.91-.62-1.12Z"/><path class="cls-16" d="M155.65,85.11a12.48,12.48,0,0,0-4.07,4.36c-1,2-1.26,6.94-1.26,6.94l.86.63s.46-2.14.77-4a10.18,10.18,0,0,1,1-2.75c.88-1.34,1.83-3.39,2.63-4a4.38,4.38,0,0,1,.91-.65Z"/><path class="cls-16" d="M163.28,87a14.52,14.52,0,0,0-2.41,5.5,10.19,10.19,0,0,0-.51,4.93c.11.7.75,4.28.75,4.28l1.53.47a23.49,23.49,0,0,1-.89-3.9c.07-.71-.22-5,.73-7.05s2.08-4.11,2.08-4.11Z"/><path class="cls-16" d="M172.13,87.35a21.61,21.61,0,0,0-.5,8.33c.43,2.89,1.48,7,1.48,7l1.16-.25A60.56,60.56,0,0,1,173,96.52a31.68,31.68,0,0,1,0-7.12c.08-.71.39-2.14.39-2.14Z"/><path class="cls-16" d="M181.09,83.54c.34,3.11.12,5.22,1.29,8.19s2.16,5,2.16,5l.69-.72a22.72,22.72,0,0,1-2-4.87,21.53,21.53,0,0,1-.88-5.78,7,7,0,0,0-.18-2.51Z"/><path class="cls-16" d="M191,89.74a35.07,35.07,0,0,1-2.75-4.57c-.59-1.49-1.87-5.68-1.87-5.68l.42-.39s1,3.17,1.6,4.65a62.29,62.29,0,0,0,3,5.52Z"/><path class="cls-16" d="M143.56,45.61c3.07-1.13,4.68-2.4,6.15-2.26l5.12.5c.73.07,2.85,1,3.58,1s-.15,1.42-.15,1.42a3.1,3.1,0,0,1-.8.63,7.86,7.86,0,0,1-2.19-.21c-1.47-.14-6,.85-6.73.78a5.68,5.68,0,0,0-3.08,1.13c-.8.63-2.19-.22-2.19-.22a2.42,2.42,0,0,1-.59-1.48A2.54,2.54,0,0,1,143.56,45.61Z"/><path class="cls-16" d="M167.85,45.1c2.19.21,3-1.55,5.23-1.34l6.94.67c2.19.21,4.35,1.43,4.86,2.31.41.72-.6-3.64-2.72-4.56a31.83,31.83,0,0,0-5.55-1.76,11.17,11.17,0,0,0-5-.49,6.86,6.86,0,0,0-3.28.92C166.68,42.12,167.85,45.1,167.85,45.1Z"/><path class="cls-19" d="M170.15,52.79a6.85,6.85,0,0,1,6.22-3c1.47.14,4.9,2.61,5.56,3.39s1.39.84.52,2.18a5,5,0,0,1-4.69,2.4l-2.19-.21a7.37,7.37,0,0,1-2.93-.28,9.25,9.25,0,0,1-2.78-1.69C169.2,54.84,170.15,52.79,170.15,52.79Z"/><g class="cls-20"><ellipse class="cls-21" cx="176.74" cy="53.43" rx="3.68" ry="3.54"/></g><path class="cls-19" d="M147.18,53.43a3.69,3.69,0,0,1,1.76-2.68c.8-.63,2.27-.49,3.73-.35a5.71,5.71,0,0,1,3.51,1.76,10.7,10.7,0,0,1,1.25,2.26c.3,1,.92,1-.15,1.41-1.54.56-3.88,1.76-5.34,1.62s-4.39-.42-4.32-1.13A15,15,0,0,0,147.18,53.43Z"/><g class="cls-22"><ellipse class="cls-21" cx="153.84" cy="53.36" rx="3.68" ry="3.54"/><ellipse class="cls-23" cx="153.84" cy="53.36" rx="2.21" ry="2.13"/></g><path class="cls-24" d="M164.61,58.17c.94,2,1.48,7.7,1.69,9.82s-2.65,4.84-4.12,4.7a5,5,0,0,1-2.12-.92c-1.1-.78-2-.76-2.05-1.62,0-.43,0-3.86.52-4.94s1.85-2,2.1-2.41c1.26-2.25.84-6.48,2.38-5.91S164.61,58.17,164.61,58.17Z"/><path class="cls-25" d="M156.88,77.2l.94.09,4.11.4,4.41.42c1.64.16,5.07-.12,10.15.37.64.06.25,1-.81,1.76-.29.2-.43.33-.7.55-.69.54-1.32.48-3.28.91-1.6.35-7.32-.09-9.52-.3A12.7,12.7,0,0,1,158,80.21C157.65,80,156.88,77.2,156.88,77.2Z"/><path class="cls-26" d="M157.52,77.26l.3,0,4.11.4,4.41.42c1.64.16,5.74-.06,10.85-.18.63,0-.45,1.54-1.51,2.31-.19.13-.32.24-.46.35s-16.26-.94-16.63-1.38A5.6,5.6,0,0,1,157.52,77.26Z"/><ellipse class="cls-23" cx="176.74" cy="53.43" rx="2.21" ry="2.13"/><path class="cls-27" d="M239.51,125.34c3.79-9.65,4.76-21.59,11.18-18.3,4.95,2.53,8.85,8.54,13.67,29.55.81,3.53,5.12,17.49,5.43,22.49.21,3.54,1.39,22.83,2.73,41.43,1.36,18.87-4.51,27.64-5.28,35.06-1.27,12.22-36.37,52.15-31.69,56.82,0,0-25.71-20.86-24.71-25.66.63-3.05,0,.61,10.14-17.72,8.35-15.09,5.7-15.88,13.94-28.71,4.35-6.78,5.61-24.5,4.44-29.33-2.54-10.39-2.85-22.48-2.91-30.31s-3.9-23.07-3.9-23.07S239,126.67,239.51,125.34Z"/><polygon class="cls-28" points="203.24 268.57 208.94 262.46 237.46 293 233.02 298.5 203.24 268.57"/></g></g></g></svg>