<svg xmlns="http://www.w3.org/2000/svg" viewBox="0 0 46.13 42.74"><defs><style>.cls-1{fill:#60b5f4;}</style></defs><title>fast1</title><g id="圖層_2" data-name="圖層 2"><g id="_2" data-name="2"><path class="cls-1" d="M44.06,29.22a5.1,5.1,0,0,1-3.5-2.38,1.19,1.19,0,0,1-.31-.85l.08-.17a6,6,0,0,0,.29-2l.19-1.49s0-.24-.06-.57c0-.52.07-1,.07-1.06a5.15,5.15,0,0,1,1.78,0,11.27,11.27,0,0,1,1.91.36c.92,0,.85-.15,1.15-.78.38-1.55-.56-1.66-1.18-1.73-.85.26-1.45.4-1.57.48h-.12c-.2,0-.7,0-1.17,0a2.08,2.08,0,0,1-1-.3,6.65,6.65,0,0,0-.19-1,7,7,0,0,0-1.21-3.25l-.08-.18s0-.07,0-.1a2.48,2.48,0,0,1,.7-1,6.44,6.44,0,0,1,.7-.21,7.59,7.59,0,0,0,2.57-.71,1.75,1.75,0,0,0,0-2A1.63,1.63,0,0,0,41.36,10c-.91.07-1.21,1-1.37,1.22a8.26,8.26,0,0,1-1.09.47,4.48,4.48,0,0,1-1.2.45h0c-.65-1.36-4.23-4.07-4.23-4.07l0,0a5.82,5.82,0,0,1-.24-1.67,4.51,4.51,0,0,1,.51-1.84,8,8,0,0,1,1.09-1.16c1.49-1.31.44-2.32.16-2.5-2-.44-2.14.64-2.37,1a3.28,3.28,0,0,0-.22,1.19,4.65,4.65,0,0,1-.77,1.31,7.5,7.5,0,0,1-1.93,1.53L29.34,6a7.71,7.71,0,0,0-1.91-.52,19,19,0,0,0-2.84-.27c-.92,0-1.58,0-1.58,0h0c-.17-.1-.29-1-.29-1s0-1.07-.05-1.58V2.51s0-.1,0-.15a3,3,0,0,0,.29-.5,2.81,2.81,0,0,0,0-1l0,0a0,0,0,0,0,0,0,1,1,0,0,0-.52-.5L22.3.2c-1.43-.39-1.09-.11-1.74,0s-.64.7-.8,1.1c0,.64.18.62.36,1.07a9.1,9.1,0,0,0,.41.86c.07.55,0,1.7,0,2.13a7.17,7.17,0,0,0-3.74,1.17,5.77,5.77,0,0,1-1.08-1.07,11.44,11.44,0,0,1-.65-1.08c-.2-.26.31-.42-.45-.81l-.12-.16A1.22,1.22,0,0,0,14,3.35c-.48-.05-.76.26-1.17.63a1.06,1.06,0,0,0-.26.46l0,0a1.62,1.62,0,0,0,0,.22,1.45,1.45,0,0,0,.29,1,1.24,1.24,0,0,0,.46.2,2.43,2.43,0,0,0,.42.22c.29.24.71.68.71.68l.55.89-.14.09a27.87,27.87,0,0,0-2.75,2H12a.63.63,0,0,0-.23,0h0a6.89,6.89,0,0,0-.7-.65,2.4,2.4,0,0,1-.26-.33.76.76,0,0,0-.21-.19A2,2,0,0,0,9.53,7.24C7.94,7,7.65,8.05,7.3,8.67,7,9.77,8.45,10.2,8.82,10.29a13,13,0,0,1,1.33.89l0,.08a1.07,1.07,0,0,1,0,.58l-.08.1-.07.13c-.28.45-1.18,1.83-1.72,2.62l-.29.4a2.53,2.53,0,0,0-.13.22,14.36,14.36,0,0,0-.73,2.63,2.86,2.86,0,0,1-2,1.41,9.21,9.21,0,0,1-2.83-.23c-2.53-.44-2.32,1-2.41,1.61s.74.84,1.44.86h.22a5,5,0,0,0,.81-.08,6.45,6.45,0,0,1,2.13-.15,3.41,3.41,0,0,1,2.12.81,12.32,12.32,0,0,0,.74,3.21,9.54,9.54,0,0,0,.87,1.81l-.07.16c-.62.42-3.34,2.3-3.68,2.52a2.7,2.7,0,0,0-1.4.48L3,30.43a.27.27,0,0,0-.07.08h0c-1.13,1.19.28,2.19.92,2.34s1.36-.75,1.71-1c.57-.24,2.58-1.4,3.08-1.62a7.63,7.63,0,0,1,1.86.13,14,14,0,0,0,1.86,1.48l0,0,1.76,1.43.19.18c.27.64.09,1-.16,1.87a4.17,4.17,0,0,1-1.61,2c0,.05,0,.09-.05.13a1.59,1.59,0,0,0-.13.13.7.7,0,0,0,0,.38,1.72,1.72,0,0,0,.77,1.48c1.51.2,1.75-.44,2-1a4.4,4.4,0,0,1,.65-2.08c.19-.24.39-.48.54-.64a2.85,2.85,0,0,0,.32-.53c.07-.07.14-.15.22-.22l0,0a6.56,6.56,0,0,1,.89,0c.36.06.69.16.9.19a2.83,2.83,0,0,0,.77.2,7,7,0,0,0,1,.06h.34c.35.06,1.33.23,2.5.5.35.08.58.15.58.15s-.1,1.48-.16,2a10,10,0,0,1-.23,2.47,1.66,1.66,0,0,0,.58,2.11,4.9,4.9,0,0,0,1.86,0c.8-.29.4-1.71.13-2.23a4.41,4.41,0,0,1-.29-.76c0-.35,0-.7,0-1,0-.09,0-.21,0-.34s.1-.47.15-.75a4.75,4.75,0,0,1,1.56-2.13h0c.06,0,.9,0,1.41-.09.61-.22,3-1.19,3-1.19a6.24,6.24,0,0,0,1.15.12c.21.25,1.08,1.12,1.54,1.67s.95,1.66,1.44,2.35a2,2,0,0,0,2.12.23c.86-.38.43-1.59.16-2s-1.17-1-1.57-1.31A4.7,4.7,0,0,1,35,32.42l0,0a2.49,2.49,0,0,1,.31-.42c.62-.6,1.91-1.54,2.3-1.89l.07-.06a14.74,14.74,0,0,1,3,0c1.17,0,1,.39,1.48.62s1.33,1,1.95,1.4a1.24,1.24,0,0,0,1.57-.33c.8-.47.23-1.87,0-2.2A10.8,10.8,0,0,0,44.06,29.22Z"/></g></g></svg>