<svg xmlns="http://www.w3.org/2000/svg" viewBox="0 0 75.29 46.2"><defs><style>.cls-1{fill:#60b5f4;}</style></defs><title>fast2</title><g id="圖層_2" data-name="圖層 2"><g id="_2" data-name="2"><path class="cls-1" d="M25.44,31.13c-1-.42-2.62-1.07-2.72-1.07s-.55-1-.68-1.34a.2.2,0,0,0-.12-.12L20.4,28l0,0-2.17-1.3a.24.24,0,0,0-.22,0l-1.55.87a.17.17,0,0,1-.14,0l-1.47-.21a.22.22,0,0,1-.18-.27l.14-.53a.22.22,0,0,0-.15-.26l-.95-.28a.23.23,0,0,1-.15-.29l.34-1a.21.21,0,0,0-.08-.24l-.18-.14a.23.23,0,0,0-.29,0l-1.05,1a.23.23,0,0,1-.28,0l-.78-.56a.23.23,0,0,1-.07-.27l.84-1.8a.23.23,0,0,1,.19-.13l2.09-.09a.25.25,0,0,1,.19.09l.6.78a.23.23,0,0,0,.4-.14V22.22a.23.23,0,0,1,.08-.18l1.31-1a.21.21,0,0,0,.08-.17v-.45a.21.21,0,0,1,.08-.17l2.18-1.9a.22.22,0,0,0,.07-.19l-.08-.61v-.07l.11-.58a.21.21,0,0,1,.24-.17l1.58.21a.21.21,0,0,0,.18-.06l1-.93a.22.22,0,0,0,0-.27L20.81,13a.23.23,0,0,0-.38,0l-.28.42a.22.22,0,0,1-.36,0l-.58-1.56c-.11-.16-.69.08-.74.26l-.89,3.3a.22.22,0,0,1-.38.08l-2.07-1.81a5.33,5.33,0,0,1-.66-.81l1-1.62a.25.25,0,0,1,.16-.14l2-.43a.21.21,0,0,0,.08-.39l0,0a.21.21,0,0,1,0-.34l1.7-1.53a.22.22,0,0,1,.32,0l.59.83a.22.22,0,0,1-.06.32L19,10.3a.23.23,0,0,0-.05.34l1.38,1.46a.23.23,0,0,0,.33,0L21.58,11l0,0,.63-.43a.23.23,0,0,0,.07-.29L21.3,9l.19-.08a.42.42,0,0,0,0-.54l-.34-.34-.06-.31a.26.26,0,0,0-.24-.21h-.28l-.08-.95c0-.05-.1-.29-.15-.3l-1.09-.18L19,5.81l-1.85-.17-1,.42c0,.1-.47-.91-.49-.91H14.11l-1.22.2c-.1,0-.38-.14-.4,0l-.31,1.2v0L12.09,7a.22.22,0,0,1-.36.12L10.27,5.88a.22.22,0,0,0-.19,0l-1.23.26a.24.24,0,0,0-.14.1l-.06.09a.22.22,0,0,1-.37,0L8.12,6a.12.12,0,0,0,0,0L6.48,4.54l0,0L5.73,3.7a.23.23,0,0,0-.19-.07l-1.25.13a.22.22,0,0,0-.11.05l-.71.53a.2.2,0,0,1-.13,0H2.78a.21.21,0,0,0-.21.18l-.15.82a.21.21,0,0,0,.06.2l.24.22a.22.22,0,0,1-.08.38l-.22.07a.23.23,0,0,1-.28-.17v0a.22.22,0,0,0-.25-.17L1.31,6a.22.22,0,0,0-.18.16L1,6.75A.22.22,0,0,0,1.09,7l.39.18a.21.21,0,0,0,.19,0A.22.22,0,0,1,2,7.46l0,.09a.2.2,0,0,1-.2.14H1.23a.23.23,0,0,0-.11,0l-.77.4L.27,8.2,0,8.55a.2.2,0,0,0,0,.13v.54a.23.23,0,0,0,.08.17L1,10.1a.22.22,0,0,1,0,.31l-.39.48a.22.22,0,0,0,.26.34l.72-.32h0a8.26,8.26,0,0,1,2.74-.51c1,.1,2,4.88,2.08,5.45a.45.45,0,0,1,0,.11l-.73,2.28a.24.24,0,0,0,0,.12l.43,1.88a.2.2,0,0,0,0,.08l.78,1.08h0l2.45,4a.21.21,0,0,0,.13.09l1.57.7a1.47,1.47,0,0,0,1.23,0l.43.51,1.47,1.18a.31.31,0,0,0,.13.06l.94.12a.2.2,0,0,1,.18.18l.12.61a.27.27,0,0,1,0,.09l-.73,2.7a.21.21,0,0,0,0,.19l1.18,1.57.06.05,1.35.84a.23.23,0,0,1,.11.16l.19,2v0l-.2,3.6-.15,3.57a.22.22,0,0,0,.06.17l1.94,1.89a.22.22,0,0,0,.19.06l.6.42c.16,0,.27-.75.19-.88L19.56,44a.25.25,0,0,1,0-.17l.86-3.38a.23.23,0,0,1,.18-.17l.65-.09a.22.22,0,0,0,.18-.26l-.12-.62a.22.22,0,0,1,.13-.24l1.14-.45a.24.24,0,0,0,.14-.17l.27-2a.21.21,0,0,1,.11-.16l1.74-1a.22.22,0,0,0,.11-.17l.18-1.78a.24.24,0,0,1,.09-.15l.34-.27a.27.27,0,0,0,.07-.08l.29-.6A.87.87,0,0,0,25.44,31.13Z"/><path class="cls-1" d="M44.78,27.61l-1.73-1.78-1.12-3.57-3.37-.2v.51l-1.88-.77-.31-1L34.08,21l-.2.35L32.65,21l-.81.86-.15.92-1,.77-.56,1.17A4.59,4.59,0,0,1,30,26.39c-.25.86,1.89,2.44,1.89,2.44l2.8-.35.66.51s1.43-.16,1.07.56-.25,1,.51,1.68.26,1.68-.1,2.14.36,2,.36,2l.61,2.45.51.87,2.14-.26,1.32-1.88-.3-.11s.61-.15.91-.25,0-1.38-.15-1.38a15.06,15.06,0,0,1,1.53-1.17,15.45,15.45,0,0,0-.46-2.19l3.16-4.12L46,27.1Z"/><polygon class="cls-1" points="44.93 33.52 44.37 34.64 44.06 35.3 44.73 36.12 44.98 36.12 45.9 34.44 45.75 32.81 44.93 33.52"/><path class="cls-1" d="M68.62,34.9l-.31-1.13L67.84,33a.09.09,0,0,0-.17,0l-.22,1.53L66.07,34l.66-.77-1.29-.1a.77.77,0,0,0-.79.51h-.53a.89.89,0,0,0-.65.29l-.91,1-1.62.66a.58.58,0,0,0-.36.55l0,1.67a.86.86,0,0,1-.18.58l-.26.61c-.2.26.77.51.77.51l1.58-.66a15.76,15.76,0,0,1,1.73-.36c.76-.1.81,1.07.81,1.07l1,.15,0,1.23.66.41,1.79-.46.1-.67,1-1.32.3-1.38-.45-1.42Z"/><path class="cls-1" d="M75.29,41.67l-.81-.81-.66-1.23.1,2-.46.26.46.5h-.46l-2.29,1.74V45c0,.36.56-.15.51-.15S75.29,41.67,75.29,41.67Z"/><path class="cls-1" d="M67,32c-.26.16,1.22.26,1.22.26l.26-.41.86.92h.51l-.76-1.38-2.35-1-.4.77S67.24,31.89,67,32Z"/><path class="cls-1" d="M65.16,20.12c-.06,0-1.18.77-1.18.77l.44.91a.08.08,0,0,0,.16,0l.11-.66a.27.27,0,0,1,.36-.21l.52.05.43-.24a1.29,1.29,0,0,0,.62-1.42l-.45-1.36.49-.29c.23-.13.38-.4.11-.46l-.72-.49a.2.2,0,0,0-.28.18l0,.6.25,1.63S65.21,20.12,65.16,20.12Z"/><path class="cls-1" d="M63.37,24c0,.62.87-.76.87-.76L64,22.82A2.25,2.25,0,0,0,63.37,24Z"/><path class="cls-1" d="M62.3,25.37V26l1,1.68-.36.61s.82.31,1.28,0-1.17-1.88-1.17-1.88v-.82Z"/><path class="cls-1" d="M61.79,32.45a26.93,26.93,0,0,0-2.54-1l-.56-1.27L57,28.68l-.3.26s2.7,3,2.6,3A18,18,0,0,0,61.79,32.45Z"/><polygon class="cls-1" points="61.49 31.07 61.64 30.57 62.15 29.09 61.79 28.48 60.52 29.55 59.91 29.75 59.91 29.95 60.11 30.57 60.62 30.97 61.49 31.07"/><path class="cls-1" d="M14,2.85v.77l.41.71,1.42,0L17,4.28l.05.41,1.28.61,1.88.51,1.12-1.68,1.07-.77L22,3l1-.15,1.79-1-.87.1L25,1.63l.71-.46L25.42.66,24.76.15,23.48,0h-.66l-.25.41L22.26.1l-.51.26-1.32.2a4.74,4.74,0,0,1-.36.71h-.92l-.45.31-.82-.05L17.47,2l-.66-.26h-.66l-1,.46S14,2.5,13.75,2.6s-.2.25-.2.25Z"/><path class="cls-1" d="M30.36,6.21s.41-.25.51-.2,0-.41,0-.41l-.25-.4.3-.21V4.43L32.25,2.9s-.11-.3-1,0-.87,0-.87,0L31,2.39l.21-.51-1-1.06L29,.66l-.46.41H28l-.92.81-1-.45L23.94,2.5l-.05,1-1.17.06-.36.35.26.77-.26.45.26.46.86-.15.56.41V7.69l-.2.46.2.36-.25.81.71-.1-.15.56-.87.46.16,1.12.4.15-.35.31L24.15,13l.81.2,1.28-2,.66-.1.86-.87h.82l1.07-.56-.56-.36.2-.35.61.61V8.1l.72-1.27Z"/><path class="cls-1" d="M32.56,20.71s-.82-1.62-.31-1.72,1.42-.21,1.42-.21l.15-1-.76-.4-.1-.51.3-.71v-.91l-.45.2-.36.86-.66-.15,1.18-2a.17.17,0,0,1,.3,0l1,1.53.15.71.93-.53a.64.64,0,0,0,.28-.8l-.4-1a1,1,0,0,1-.07-.25l-.08-.63c-.12-.31.15-.5.38-.73l.78-.79.56-1.12.91-1.26,1.22-.66,2.33,1,.56.76s.4.56.4.46,0-1.17,0-1.17l.51-.05.41.46,2.13-.81-.37-.53A.05.05,0,0,1,45,8.7a3.13,3.13,0,0,0,.51.15h.09a.73.73,0,0,0,.76-1C46.14,7.4,46,7,46.14,7h2.28l-.31-.71.56-1L48.82,5l.81-.71.81-.3.11-.51V2.62L52.22,3l.91.51-.41,1.7a.21.21,0,0,0,.34.2l.37-.48,1-.46.3,0a.45.45,0,0,0,.47.33l.49-.07V4.27a.32.32,0,0,1,.41,0l.43-.13,1.17,1.29c.09.15.26.09.31-.06l-.1-.31a.17.17,0,0,1,.1-.2l.69-.19c.48.22.49,0,.23-.62l0-.34L61,3.43l.79.54a.23.23,0,0,0,.31,0l.15-.16a1.4,1.4,0,0,1,1.23,0l.15.45,1.32-.3.61-.61,1.72-.21,2.18.46h0A.37.37,0,0,1,70,3.46l.32.22.15,1.22L69.3,5,69,4.8,69.45,6l.29.36a1,1,0,0,1,.08,1.17l-.57.91h0a.66.66,0,0,1-.66.65h-.24l-.42,1.08.51.83a.91.91,0,0,1,.15.5v2.17l-.66-.41L67,11.39l.35-1.78-.05-1.47-.41,1.17-.35-.66S66,9.1,65.9,9a7.16,7.16,0,0,0,.3,1.22l-.65.3-.11-.06a1.08,1.08,0,0,0-1.16.06h0l-.76.51L63,13.21l1.17-.15.71.76.1,2.48-.66,1.52-.61.1L63.32,19l.61,1a.33.33,0,0,1-.17.47l-.07,0c-.28.11-.6-.05-.45-.24l-.2-.72-1.24-.92-2.69,6.54s1.88,1.82,1,2.28l-.91.46-1.22-1.27.82,2.18.25.81-.91-.46L57.69,28l-.3-.76L57,26l-.66-.51-.59-.9a.25.25,0,0,0-.35-.18l-1.13.53-1,1.37a.81.81,0,0,0-.1.21L52.74,28a.16.16,0,0,1-.25.07l-.32-.5-1.07-3-.3.56L49.89,24,47.2,23.5l-1.72-1.12-.2.31,1.16,1.57.76-.41.81.51L46.9,26l-2,1-.76-1.21-1.57-2.28L42,22l.31-1.27H40.27a.46.46,0,0,1-.21-.05l-3.35-1.89a1,1,0,0,0-1.16.07L34,20.1l-.6.76Z"/><path class="cls-1" d="M61.83,19l-.34.56-.18.21.58,1.85a1.79,1.79,0,0,1-.19,1.46l-.61.94-1.8.83c-.15.08-.9-.5-1.07-.56l-.3,0-1,.42a.38.38,0,0,1-.43-.1l-.84-1,.34-.78a9.93,9.93,0,0,0-1.08-.53c-.1,0-1.8.26-1.8.26L51,21.09l.25-.33-.25-1s-1.06-1-.81-1.24a1.8,1.8,0,0,1,.79-.32h.32l1-.31.15-.76,1.28-.77a.45.45,0,0,1,.55.07l.51.53-.23.51,1.08.4.38.51,1.69.44,1.59-.8L60.93,17l-.79-.33a.15.15,0,0,1,0-.25l.52-.45.32-.65a.5.5,0,0,1,.68-.21l1.43.77.51,0a.27.27,0,0,1,.37.29l-.14.83-.4.06.15.6-1.72,1.43"/></g></g></svg>