<svg xmlns="http://www.w3.org/2000/svg" viewBox="0 0 62.71 33.76"><defs><style>.cls-1{fill:#3ba9f4;}.cls-2{fill:none;stroke:#80c6ff;stroke-linecap:round;stroke-miterlimit:10;}.cls-3{fill:#60b5f4;}.cls-4{fill:#80c6ff;}</style></defs><title>fast6</title><g id="圖層_2" data-name="圖層 2"><g id="_2" data-name="2"><path class="cls-1" d="M12.14,8.86c.2-.21,2-1.28,7-1.19.87-.43,8.77-3.93,11.26-3.62A77.93,77.93,0,0,1,40.87,6c1.05.18,6.65,1,8,2.91.06.72.28,11.79-.31,13.7-.43.62-9.07,9.35-10.58,10.64-.95.07-16.12.56-16.12.56s-9.32-8.95-10-10.46a43.29,43.29,0,0,1-.61-4.41c-.09-.24-.25-2.05-.25-2.05S10.29,10.72,12.14,8.86Z"/><path class="cls-2" d="M48.87,8.86s3.8-5.68,8-8A3.28,3.28,0,0,1,61.6,2.78c1.42,4.6,1.49,13.82-13,19.78"/><path class="cls-2" d="M12.08,9.73a8.85,8.85,0,0,0-3-6.61C4.6-.58.46,3,.5,8.74c0,4.7.4,10.53,11.89,14.7"/><path class="cls-3" d="M13.37,10S17.7,8.87,20,9.27c.53-.34,7.18-3.17,9.67-3.17S39.29,7.29,40,8c.76,0,3.68.45,3.68.45S46.82,9.61,47.5,10c.14.82.2,11.38,0,11.8s-8.49,9-10.07,9.42c-1.59.11-13.3.79-15,.4a128.7,128.7,0,0,1-9.51-8.72c-.23-1.16-1.22-8.83-.45-11.09C12.78,11.11,12.33,11,13.37,10Z"/><path class="cls-4" d="M12.39,13.91a76.79,76.79,0,0,1,7.72-.64A22.28,22.28,0,0,0,22.94,13a49.36,49.36,0,0,1,4.94-1.27c.74,0,15.7.54,19.55,2.38-.91.09-7.58-.43-8.7-.52s-8.32-.57-9.88-.48c-1.71.18-6.54,1-7.58,1S12.39,13.91,12.39,13.91Z"/><path class="cls-4" d="M12.44,17.07a20.69,20.69,0,0,0,4.35.93c1.52.15,10.81.55,12,.55s9.63,0,11.66-.3,5.45-.93,6.92-.72c-1,.24-10.16,1.53-11.61,1.86a68.46,68.46,0,0,1-7.31,0c-1.12,0-2.87-.27-4.1-.38s-5.7-.44-6.84-.38C16.2,18.44,13.52,17.87,12.44,17.07Z"/><path class="cls-4" d="M13.11,22.51s3.82-.17,4.89.27,6.12,4,10.81,3.68c1.18,0,7.79-.58,8.39-.66A10.1,10.1,0,0,0,40.28,25c.55-.19,2.66-3,6.28-2.74-.93.28-2.55.9-5.73,3.29a9.39,9.39,0,0,1-3,.66,84.91,84.91,0,0,1-9,1.7c-1-.08-7.54-2.11-10.15-4.28A18.49,18.49,0,0,0,13.11,22.51Z"/></g></g></svg>