<svg xmlns="http://www.w3.org/2000/svg" viewBox="0 0 22.43 64.77"><defs><style>.cls-1{fill:#60b5f4;}</style></defs><title>fast4</title><g id="圖層_2" data-name="圖層 2"><g id="_2" data-name="2"><path class="cls-1" d="M22.12,63.45h0c0-.06,0-.2-.05-.36a2,2,0,0,0-.71-1,3.66,3.66,0,0,0-1.56-.49l-.2-.09-.09,0-.67-.18h0l-.19-.09-.13,0L18,61.11c.07,0,.14.06.17,0L18,61.05l-.13,0L17.59,61s.08,0,.11,0l-.19-.09h0c-.24-.13-.53-.29-.78-.41l-.08,0a1,1,0,0,1,0-.47.21.21,0,0,0,.13-.18c.07-.64,1-6.33,1.14-9.54.12-2.17.58-8.3.64-12.26a6.12,6.12,0,0,0,.43.85c.13.32.08.51.41.41s.9-.15,1.11-.39a6.14,6.14,0,0,0,.59-1.07,6.2,6.2,0,0,0,.09-1.13,7.41,7.41,0,0,0,.1-1.22c0-1.65.47-5.65.51-6.66,0-.47,0-1-.06-1.5.24,0,.42,0,.46-.05a2.55,2.55,0,0,0,.24-1c0-.27-.38.1-.43-.83s-.72-8.7-1.25-9.84a3.91,3.91,0,0,0-2.16-1.8.76.76,0,0,0-.28-.15,18.64,18.64,0,0,0-3.56-.64,5.53,5.53,0,0,1-.43-1,6.86,6.86,0,0,0-.83-.05c0-.34,0-.75,0-1.17.34-.38,1.11-1.42,1.43-1.85a1.14,1.14,0,0,0,.17-.41,1.45,1.45,0,0,0,.25,0,2.27,2.27,0,0,0,.46-.5A2.19,2.19,0,0,0,16,7.2c0-.06,0-.23,0-.38a4.69,4.69,0,0,0,.39-1.09c.06-.39.26-1.39.32-1.78a5.5,5.5,0,0,0-.06-1.5c-.07-.22-.39-.61-.52-.89A3.75,3.75,0,0,0,14.83.62a3.92,3.92,0,0,0-1.3,0,1.77,1.77,0,0,0-.59-.36A9.19,9.19,0,0,0,12,0,8.15,8.15,0,0,0,9.19.26,7.72,7.72,0,0,0,6.51,2a3.9,3.9,0,0,0-.17,1.27c0,.09-.07.17-.09.23a13.7,13.7,0,0,0,.17,2.3,2.47,2.47,0,0,0,.14.34.93.93,0,0,0-.18.41c0,.11.07.5.07.61A2.19,2.19,0,0,0,6.64,8a2.27,2.27,0,0,0,.46.5l.23,0A1.14,1.14,0,0,0,7.5,9c.33.43,1.12,1.5,1.45,1.87,0,.4,0,.81,0,1.16a3.16,3.16,0,0,0-.71,0,9.25,9.25,0,0,1-.48,1,38.39,38.39,0,0,0-3.95.81.93.93,0,0,0-.54.44A3.74,3.74,0,0,0,1.68,15.9C1.15,17.05.48,24.81.43,25.74s-.43.57-.43.84a2.45,2.45,0,0,0,.24,1c0,.06.22.06.47.05A13.2,13.2,0,0,0,.66,29c0,1,.48,5,.51,6.66a7.44,7.44,0,0,0,.1,1.23A6,6,0,0,0,1.36,38,6.14,6.14,0,0,0,2,39.06c.21.24.78.3,1.11.39s.28-.09.4-.41.46-.6.46-1.06a2.15,2.15,0,0,0-.86-1.43s-.19-.32-.27-.46c.24-2,.82-6.87.85-7.75,0-.11,0-.22,0-.33a.58.58,0,0,0,.14,0A.3.3,0,0,0,4,27.86c-.2,3.79-.53,7.76-.31,8.16a1.81,1.81,0,0,0,.48.53v.32c0-.1,0-.21,0-.31a3.62,3.62,0,0,0,.48.31h0V37c0,3.82.51,10.92.64,13.3.18,3.21,1.07,8.9,1.14,9.54a.18.18,0,0,0,0,.11v.2a1,1,0,0,1,0,.52l-.08,0-.8.41h0l-.2.08s.07,0,.11,0l-.27.13-.13,0-.19.09s.1,0,.17,0l-.55.14H4.42l-.2.08h0l-.68.18h-.1l-.19.09a3.63,3.63,0,0,0-1.59.49,2,2,0,0,0-.72,1c0,.17,0,.31,0,.37h0s-.06.11-.07.18v.37l.05.06s.47.14.72.18l1.49.2c.39.05,1.29.13,1.72.14s1.29-.09,1.52-.12l1-.18a12,12,0,0,0,1.29-.3c.34-.11.46-.26.47-.3s0-.47,0-.51a.16.16,0,0,0,0-.08v0a14.68,14.68,0,0,0-.85-2.62h.07c0-.09,1.45-7.31,1.3-8.29a32,32,0,0,1,0-3.39,54.15,54.15,0,0,1,1.38-6.85.81.81,0,0,1,.65-.51.81.81,0,0,1,.65.51A54.15,54.15,0,0,1,13.62,49a32,32,0,0,1,0,3.39c-.14.94,1.13,7.51,1.28,8.22a15.51,15.51,0,0,0-.79,2.51v0a.21.21,0,0,0,0,.08s0,.47,0,.51.13.19.46.3a11.87,11.87,0,0,0,1.27.31c.39.07.65.13,1,.17s1.2.13,1.49.12,1.31-.09,1.69-.14l1.47-.2c.24,0,.67-.18.7-.17l.06-.07c0-.13,0-.3,0-.37S22.14,63.45,22.12,63.45ZM18.8,61.33l-.1,0A.29.29,0,0,1,18.8,61.33ZM15.54,6.07a.38.38,0,0,0-.13.06l0,0Zm3,31.56c0-.16,0-.31,0-.46a1.31,1.31,0,0,0,.41-.51,84.76,84.76,0,0,0-.28-9.09.38.38,0,0,0,.11.11c0,.18,0,.36,0,.53,0,.88.62,5.81.85,7.76-.08.15-.25.44-.26.45A2.41,2.41,0,0,0,18.55,37.63Zm-5-25.13c0-.12,0-.26,0-.42C13.5,12.18,13.52,12.36,13.53,12.5Zm-9.15,49-.1,0A.16.16,0,0,1,4.38,61.49Z"/></g></g></svg>