<svg xmlns="http://www.w3.org/2000/svg" xmlns:xlink="http://www.w3.org/1999/xlink" viewBox="0 0 1366.93 1395.23"><defs><style>.cls-1{fill:url(#未命名漸層_37);}.cls-2{fill:url(#未命名漸層_41);}.cls-3{fill:#00273d;}.cls-10,.cls-33,.cls-36,.cls-38,.cls-4,.cls-43,.cls-5,.cls-8{fill:none;}.cls-4{stroke:#070606;}.cls-10,.cls-33,.cls-36,.cls-38,.cls-4,.cls-43,.cls-6,.cls-8{stroke-miterlimit:10;}.cls-4,.cls-7,.cls-8{opacity:0.25;}.cls-6{fill:#000405;stroke:#21150a;stroke-width:2px;}.cls-36,.cls-6{opacity:0.6;}.cls-7,.cls-9{fill:#8d8e8e;}.cls-10,.cls-8{stroke:#818484;stroke-width:0.25px;}.cls-10,.cls-9{opacity:0.3;}.cls-11{fill:url(#未命名漸層_15);}.cls-12{fill:url(#未命名漸層_15-2);}.cls-13{fill:url(#未命名漸層_15-3);}.cls-14{fill:url(#未命名漸層_15-4);}.cls-15{fill:url(#未命名漸層_5);}.cls-16{fill:url(#未命名漸層_15-5);}.cls-17{fill:url(#未命名漸層_17);}.cls-18{fill:url(#未命名漸層_99);}.cls-19{fill:url(#未命名漸層_63);}.cls-20{fill:url(#未命名漸層_38);}.cls-21{fill:#005c94;}.cls-22{fill:#892f2f;}.cls-23{opacity:0.5;}.cls-24{fill:#a0754a;}.cls-25{fill:#cad6e0;opacity:0.33;}.cls-26{fill:#9eccff;}.cls-26,.cls-27,.cls-28,.cls-29,.cls-30{opacity:0.64;}.cls-27{fill:#7a1b42;}.cls-28{fill:#0f5dba;}.cls-30{fill:#276313;}.cls-31{fill:url(#未命名漸層_102);}.cls-32{fill:#cecece;}.cls-33{stroke:#110902;stroke-width:0.15px;}.cls-34{fill:url(#未命名漸層_107);}.cls-35{fill:url(#未命名漸層_101);}.cls-36,.cls-38,.cls-43{stroke:#00070b;}.cls-36{stroke-width:0.05px;}.cls-37,.cls-41{fill:#00070b;}.cls-37{opacity:0.7;}.cls-38{stroke-width:0.1px;}.cls-39{fill:#7a7a79;}.cls-40{fill:#e2c224;}.cls-42{fill:#7f8284;}.cls-43{stroke-width:0.07px;}</style><linearGradient id="未命名漸層_37" x1="683.93" y1="1116.3" x2="683.93" gradientUnits="userSpaceOnUse"><stop offset="0" stop-color="#001f2f"/><stop offset="0.19" stop-color="#001a2a"/><stop offset="0.7" stop-color="#001828"/><stop offset="0.81" stop-color="#001828" stop-opacity="0.93"/><stop offset="0.89" stop-color="#001828" stop-opacity="0.7"/><stop offset="0.96" stop-color="#001828" stop-opacity="0.31"/><stop offset="1" stop-color="#001828" stop-opacity="0"/></linearGradient><linearGradient id="未命名漸層_41" x1="678.91" y1="799.3" x2="678.91" y2="324" gradientUnits="userSpaceOnUse"><stop offset="0" stop-color="#001f2f"/><stop offset="0.47" stop-color="#001828"/><stop offset="1" stop-color="#001828" stop-opacity="0"/></linearGradient><linearGradient id="未命名漸層_15" x1="273.76" y1="1237.6" x2="273.76" y2="785.94" gradientUnits="userSpaceOnUse"><stop offset="0" stop-color="#00293f"/><stop offset="1" stop-color="#00060a"/></linearGradient><linearGradient id="未命名漸層_15-2" x1="1068.46" y1="1010.49" x2="1362.15" y2="1010.49" xlink:href="#未命名漸層_15"/><linearGradient id="未命名漸層_15-3" x1="1143.39" y1="1293.78" x2="1143.39" y2="843.4" xlink:href="#未命名漸層_15"/><linearGradient id="未命名漸層_15-4" x1="252.51" y1="1006.66" x2="166.37" y2="857.46" xlink:href="#未命名漸層_15"/><linearGradient id="未命名漸層_5" x1="127.38" y1="1159.18" x2="0.66" y2="1159.18" gradientUnits="userSpaceOnUse"><stop offset="0.13" stop-color="#00293f"/><stop offset="1" stop-color="#00060a"/></linearGradient><linearGradient id="未命名漸層_15-5" x1="1107.31" y1="1004.42" x2="1192.96" y2="856.08" xlink:href="#未命名漸層_15"/><linearGradient id="未命名漸層_17" x1="1233.24" y1="1156.56" x2="1366.47" y2="1156.56" gradientUnits="userSpaceOnUse"><stop offset="0.14" stop-color="#00293f"/><stop offset="1" stop-color="#00060a"/></linearGradient><linearGradient id="未命名漸層_99" x1="362.55" y1="814.87" x2="999.85" y2="814.87" gradientUnits="userSpaceOnUse"><stop offset="0" stop-color="#00060a"/><stop offset="0.34" stop-color="#00293f"/><stop offset="1" stop-color="#000a10"/></linearGradient><linearGradient id="未命名漸層_63" x1="679.75" y1="844.56" x2="679.75" y2="1001.04" gradientUnits="userSpaceOnUse"><stop offset="0.36" stop-color="#001723"/><stop offset="0.8" stop-color="#00121c"/></linearGradient><radialGradient id="未命名漸層_38" cx="919.55" cy="921.8" r="478.45" gradientTransform="translate(-267.68 12.21) scale(1.03 1)" gradientUnits="userSpaceOnUse"><stop offset="0.19" stop-color="#002031"/><stop offset="0.79" stop-color="#00070b"/><stop offset="1" stop-color="#002437"/></radialGradient><linearGradient id="未命名漸層_102" x1="175.06" y1="930.9" x2="243.78" y2="930.9" gradientUnits="userSpaceOnUse"><stop offset="0" stop-color="#cecece"/><stop offset="1" stop-color="#bcbab8"/></linearGradient><linearGradient id="未命名漸層_107" x1="175.06" y1="940.3" x2="226.75" y2="940.3" gradientUnits="userSpaceOnUse"><stop offset="0" stop-color="#505050"/><stop offset="1" stop-color="#434343"/></linearGradient><linearGradient id="未命名漸層_101" x1="237.15" y1="935.19" x2="233.37" y2="928.64" gradientUnits="userSpaceOnUse"><stop offset="0" stop-color="#bcbab8"/><stop offset="1" stop-color="#a3a1a0"/></linearGradient></defs><title>lib</title><g id="圖層_2" data-name="圖層 2"><g id="導覽頁"><polygon class="cls-1" points="0.93 0 1366.87 0 1366.93 1104.36 1.39 1116.3 0.93 0"/><polygon class="cls-2" points="290.78 324 1067.01 324 1067.04 794.22 291.04 799.3 290.78 324"/><polygon class="cls-3" points="293.31 942.58 0.47 1237.85 0.47 1394.85 1366.47 1395.23 1366.47 1235.58 1067.51 942.58 293.31 942.58"/><line class="cls-4" x1="678.31" y1="1000.54" x2="678.42" y2="1394.88"/><line class="cls-4" x1="568.25" y1="999.54" x2="378.74" y2="1394.24"/><line class="cls-4" x1="785.36" y1="1000.54" x2="975.43" y2="1394.24"/><line class="cls-4" x1="457.2" y1="1000.54" x2="106.31" y2="1394.24"/><line class="cls-4" x1="898.41" y1="1000.54" x2="1250.52" y2="1394.24"/><line class="cls-4" x1="321.6" y1="1002.8" x2="1.33" y2="1266.11"/><line class="cls-4" x1="1043.21" y1="1002.8" x2="1363.48" y2="1266.11"/><line class="cls-4" x1="308.31" y1="1027.79" x2="1052.51" y2="1027.79"/><line class="cls-4" x1="228.58" y1="1107.23" x2="1130.92" y2="1107.23"/><line class="cls-4" x1="143.54" y1="1221.65" x2="1214.64" y2="1221.26"/><polyline class="cls-5" points="1363.48 1394.24 1362.15 1235.36 1233.24 1236.64 998.02 1002.16 361.47 1002.16 127.58 1236.64 0 1235.36"/><rect class="cls-6" x="378.08" y="685.07" width="97.41" height="48.96"/><rect class="cls-6" x="746.09" y="660.69" width="97.41" height="48.96"/><rect class="cls-6" x="897.52" y="705.27" width="97.41" height="48.96"/><ellipse class="cls-7" cx="398.39" cy="698.64" rx="7.5" ry="7.23"/><line class="cls-8" x1="411.35" y1="696.29" x2="467.7" y2="696.29"/><line class="cls-8" x1="411.35" y1="700.07" x2="467.7" y2="700.07"/><line class="cls-8" x1="411.35" y1="704.1" x2="467.7" y2="704.1"/><line class="cls-8" x1="386.92" y1="708.55" x2="467.7" y2="708.55"/><line class="cls-8" x1="386.92" y1="713.45" x2="467.7" y2="713.45"/><line class="cls-8" x1="386.92" y1="717.53" x2="467.7" y2="717.53"/><line class="cls-8" x1="386.92" y1="721.95" x2="467.7" y2="721.95"/><line class="cls-8" x1="386.92" y1="726.45" x2="467.7" y2="726.45"/><ellipse class="cls-9" cx="763.87" cy="676.78" rx="6.84" ry="6.6"/><line class="cls-10" x1="754.4" y1="698.43" x2="835.18" y2="698.43"/><line class="cls-10" x1="754.4" y1="702.92" x2="835.18" y2="702.92"/><ellipse class="cls-9" cx="917.3" cy="719.69" rx="7.27" ry="7.01"/><line class="cls-10" x1="930.26" y1="713.09" x2="986.61" y2="713.09"/><line class="cls-10" x1="930.26" y1="717.5" x2="986.61" y2="717.5"/><line class="cls-10" x1="930.26" y1="721.27" x2="986.61" y2="721.27"/><line class="cls-10" x1="930.26" y1="725.3" x2="986.61" y2="725.3"/><line class="cls-10" x1="905.83" y1="729.75" x2="986.61" y2="729.75"/><line class="cls-10" x1="905.83" y1="734.5" x2="986.61" y2="734.5"/><line class="cls-10" x1="905.83" y1="738.59" x2="986.61" y2="738.59"/><line class="cls-10" x1="905.83" y1="743" x2="986.61" y2="743"/><line class="cls-10" x1="905.83" y1="747.5" x2="986.61" y2="747.5"/><polygon class="cls-11" points="420.61 785.94 126.91 1079.33 126.91 1237.6 420.61 942.93 420.61 785.94"/><polygon class="cls-12" points="1362.15 1076.48 1068.46 785.62 1068.46 941.94 1362.15 1235.36 1362.15 1076.48"/><polygon class="cls-13" points="1289.91 1134.67 996.88 843.4 996.88 999.94 1289.91 1293.78 1289.91 1134.67"/><polygon class="cls-14" points="419.28 786.27 291.9 784.98 0.66 1079.68 126.05 1079.68 419.28 786.27"/><polygon class="cls-15" points="127.38 1238.68 0.66 1237.4 0.66 1079.68 127.38 1079.68 127.38 1238.68"/><polygon class="cls-16" points="938.89 784.99 1067.59 783.7 1360.82 1076.48 1232.12 1076.48 938.89 784.99"/><polygon class="cls-17" points="1366.47 1076.93 1366.47 1235.58 1233.24 1236.64 1233.24 1076.48 1366.47 1076.93"/><polygon class="cls-18" points="940.14 783.47 420.53 784.83 362.55 846.26 999.85 846.26 940.14 783.47"/><polygon class="cls-19" points="361.47 844.56 362.65 1001.04 996.96 1000.04 998.02 844.56 361.47 844.56"/><polygon class="cls-20" points="0.66 1079.68 291.9 784.98 1068.46 783.55 1366.47 1076.93 1231.77 1076.93 998.28 845.44 362.13 845.7 126.91 1079.33 0.66 1079.68"/><path class="cls-21" d="M934.19,802.22v.06h-.06Z"/><path class="cls-22" d="M238.92,920l-.68-1,.58-.38a.09.09,0,0,1,.13,0l.58.8a.1.1,0,0,1,0,.14Z"/><g class="cls-23"><path class="cls-21" d="M989.52,811.49v0h0Z"/><rect class="cls-24" x="981.6" y="800.77" width="76.2" height="3.82"/><path class="cls-25" d="M1035.87,821.41h0v.15a3,3,0,1,1-5.94,0v-.15h0l0-23.94h5.89Z"/><rect class="cls-24" x="1053.84" y="802.5" width="3.96" height="23.26"/><rect class="cls-24" x="981.6" y="802.5" width="3.96" height="23.26"/><path class="cls-26" d="M996.36,821.94h0a1,1,0,0,1,0,.17,3.78,3.78,0,0,1-7.56,0v-.17h0V804.58h7.56Z"/><path class="cls-27" d="M995.55,821.41h0v.15a3,3,0,1,1-5.95,0,.76.76,0,0,1,0-.15h0V807.19h5.95Z"/><rect class="cls-26" x="988.8" y="794.17" width="7.56" height="6.6"/><path class="cls-26" d="M1010,821.94h0a1,1,0,0,1,0,.17,3.78,3.78,0,0,1-7.56,0v-.17h0V804.58H1010Z"/><rect class="cls-26" x="1002.48" y="794.17" width="7.56" height="6.6"/><path class="cls-26" d="M1023.72,821.94h0a1,1,0,0,1,0,.17,3.78,3.78,0,0,1-7.56,0v-.17h0V804.58h7.56Z"/><rect class="cls-26" x="1016.16" y="794.17" width="7.56" height="6.6"/><path class="cls-26" d="M1050.41,821.94h0a1,1,0,0,1,0,.17,3.78,3.78,0,0,1-7.56,0v-.17h0V804.58h7.56Z"/><rect class="cls-26" x="1042.85" y="794.17" width="7.56" height="6.6"/><path class="cls-26" d="M1036.68,821.94h0v.17a3.78,3.78,0,0,1-7.56,0v-.17h0V804.58h7.56Z"/><rect class="cls-26" x="1029.12" y="794.17" width="7.56" height="6.6"/><path class="cls-28" d="M1022.91,821.41h0v.15a3,3,0,1,1-5.95,0,.76.76,0,0,1,0-.15h0l.06-10.63h5.89Z"/><path class="cls-29" d="M1049.6,821.64h0v.14a3,3,0,1,1-5.95,0,.66.66,0,0,1,0-.14h0l0-3.26,5.93,0Z"/><path class="cls-30" d="M1009.23,821.45h0v.14a3,3,0,1,1-6,0,.61.61,0,0,1,0-.14h0l.05-16.06h5.9Z"/></g><polygon class="cls-31" points="191.99 922.4 243.78 922.64 226.77 939.41 175.06 939.41 191.99 922.4"/><polygon class="cls-32" points="150.38 959.47 209.92 959.74 190.37 979.02 130.92 979.02 150.38 959.47"/><polygon class="cls-33" points="186.43 936.03 196.83 925.77 201.04 925.77 190.9 936.03 186.43 936.03"/><line class="cls-33" x1="209.93" y1="928.75" x2="205.94" y2="933.06"/><line class="cls-33" x1="211.53" y1="928.63" x2="207.53" y2="932.93"/><line class="cls-33" x1="212.97" y1="928.75" x2="208.97" y2="933.06"/><rect class="cls-34" x="175.06" y="939.41" width="51.69" height="1.79"/><polygon class="cls-35" points="243.78 922.64 226.75 939.41 226.75 941.2 243.78 924.4 243.78 922.64"/><line class="cls-36" x1="226.75" y1="939.6" x2="243.78" y2="922.85"/><line class="cls-36" x1="226.75" y1="939.41" x2="243.78" y2="922.65"/><line class="cls-36" x1="226.75" y1="939.8" x2="243.78" y2="923.04"/><line class="cls-36" x1="226.75" y1="940.03" x2="243.78" y2="923.28"/><line class="cls-36" x1="226.75" y1="940.26" x2="243.78" y2="923.51"/><line class="cls-36" x1="226.75" y1="940.49" x2="243.78" y2="923.73"/><line class="cls-36" x1="226.75" y1="940.69" x2="243.78" y2="923.93"/><line class="cls-36" x1="226.75" y1="940.88" x2="243.78" y2="924.13"/><line class="cls-37" x1="226.75" y1="941.06" x2="243.78" y2="924.31"/><line class="cls-38" x1="143.32" y1="974.91" x2="156.15" y2="962"/><line class="cls-38" x1="144.52" y1="974.91" x2="157.35" y2="962"/><line class="cls-38" x1="145.98" y1="974.91" x2="158.81" y2="962"/><line class="cls-38" x1="147.34" y1="974.91" x2="160.17" y2="962"/><line class="cls-38" x1="166.64" y1="974.87" x2="172.21" y2="969.26"/><line class="cls-38" x1="167.64" y1="974.87" x2="173.21" y2="969.26"/><line class="cls-38" x1="173.75" y1="967.21" x2="179.07" y2="961.86"/><line class="cls-38" x1="174.74" y1="967.22" x2="180.07" y2="961.86"/><line class="cls-38" x1="168.85" y1="974.87" x2="174.42" y2="969.26"/><line class="cls-38" x1="169.95" y1="974.87" x2="175.52" y2="969.26"/><polygon class="cls-39" points="165.09 961.96 175.52 962 170.53 967.04 160.18 966.96 165.09 961.96"/><polygon class="cls-39" points="158.15 968.91 168.47 969.06 162.74 974.81 152.39 974.72 158.15 968.91"/><polygon class="cls-37" points="191.99 922.4 175.06 939.41 175.06 941.2 226.75 941.2 243.78 924.4 243.78 922.64 191.99 922.4"/><polygon class="cls-37" points="150.38 959.47 209.92 959.74 190.37 979.02 130.92 979.02 150.38 959.47"/><polygon class="cls-40" points="222.53 929.51 238.24 919.07 238.92 920.03 223.21 930.47 222.53 929.51"/><polyline class="cls-41" points="223.21 930.47 221.41 930.96 222.53 929.51 223.21 930.47"/><polygon class="cls-42" points="236.94 919.93 238.24 919.07 238.92 920.03 237.63 920.89 236.94 919.93"/><line class="cls-43" x1="237.51" y1="920.73" x2="223.1" y2="930.3"/><line class="cls-43" x1="237.18" y1="920.26" x2="222.76" y2="929.84"/><line class="cls-43" x1="237.34" y1="920.49" x2="222.92" y2="930.06"/><line class="cls-43" x1="237.04" y1="920.06" x2="222.62" y2="929.64"/><line class="cls-10" x1="778.35" y1="674.37" x2="834.7" y2="674.37"/><line class="cls-10" x1="778.35" y1="678.15" x2="834.7" y2="678.15"/><line class="cls-10" x1="778.35" y1="682.17" x2="834.7" y2="682.17"/><line class="cls-10" x1="753.92" y1="686.63" x2="834.7" y2="686.63"/><line class="cls-10" x1="753.92" y1="691.38" x2="834.7" y2="691.38"/><line class="cls-10" x1="753.92" y1="695.46" x2="834.7" y2="695.46"/></g></g></svg>