<svg xmlns="http://www.w3.org/2000/svg" xmlns:xlink="http://www.w3.org/1999/xlink" viewBox="0 0 1367.08 1399.6"><defs><style>.cls-1{fill:url(#未命名漸層_37);}.cls-2{fill:url(#未命名漸層_41);}.cls-3{fill:#00273d;}.cls-10,.cls-29,.cls-32,.cls-33,.cls-39,.cls-4,.cls-5,.cls-8{fill:none;}.cls-4{stroke:#070606;}.cls-10,.cls-29,.cls-32,.cls-33,.cls-39,.cls-4,.cls-6,.cls-8{stroke-miterlimit:10;}.cls-4,.cls-7,.cls-8{opacity:0.25;}.cls-6{fill:#000405;stroke:#21150a;stroke-width:2px;}.cls-32,.cls-6{opacity:0.6;}.cls-7,.cls-9{fill:#8d8e8e;}.cls-10,.cls-8{stroke:#818484;stroke-width:0.25px;}.cls-10,.cls-9{opacity:0.3;}.cls-11{fill:url(#未命名漸層_15);}.cls-12{fill:url(#未命名漸層_15-2);}.cls-13{fill:url(#未命名漸層_5);}.cls-14{fill:url(#未命名漸層_17);}.cls-15{fill:url(#未命名漸層_63);}.cls-16{fill:url(#未命名漸層_38);}.cls-17{fill:#005c94;}.cls-18{fill:#892f2f;}.cls-19{opacity:0.5;}.cls-20{fill:#a0754a;}.cls-21{fill:#cad6e0;opacity:0.33;}.cls-22{fill:#9eccff;}.cls-22,.cls-23,.cls-24,.cls-25,.cls-26{opacity:0.64;}.cls-23{fill:#7a1b42;}.cls-24{fill:#0f5dba;}.cls-26{fill:#276313;}.cls-27{fill:url(#未命名漸層_102);}.cls-28{fill:#cecece;}.cls-29{stroke:#110902;stroke-width:0.15px;}.cls-30{fill:url(#未命名漸層_107);}.cls-31{fill:url(#未命名漸層_101);}.cls-32,.cls-33,.cls-39{stroke:#00070b;}.cls-32{stroke-width:0.05px;}.cls-33{stroke-width:0.1px;}.cls-34{fill:#7a7a79;}.cls-35,.cls-37{fill:#00070b;}.cls-35{opacity:0.7;}.cls-36{fill:#e2c224;}.cls-38{fill:#7f8284;}.cls-39{stroke-width:0.07px;}</style><linearGradient id="未命名漸層_37" x1="683.67" y1="1116.3" x2="683.67" gradientUnits="userSpaceOnUse"><stop offset="0" stop-color="#001f2f"/><stop offset="0.19" stop-color="#001a2a"/><stop offset="0.7" stop-color="#001828"/><stop offset="0.81" stop-color="#001828" stop-opacity="0.93"/><stop offset="0.89" stop-color="#001828" stop-opacity="0.7"/><stop offset="0.96" stop-color="#001828" stop-opacity="0.31"/><stop offset="1" stop-color="#001828" stop-opacity="0"/></linearGradient><linearGradient id="未命名漸層_41" x1="678.92" y1="803.39" x2="678.92" y2="324" gradientUnits="userSpaceOnUse"><stop offset="0" stop-color="#001f2f"/><stop offset="0.47" stop-color="#001828"/><stop offset="1" stop-color="#001828" stop-opacity="0"/></linearGradient><linearGradient id="未命名漸層_15" x1="283.7" y1="1241.84" x2="283.7" y2="832.31" gradientUnits="userSpaceOnUse"><stop offset="0" stop-color="#00293f"/><stop offset="1" stop-color="#00060a"/></linearGradient><linearGradient id="未命名漸層_15-2" x1="1107.21" y1="1239.58" x2="1107.21" y2="844.27" xlink:href="#未命名漸層_15"/><linearGradient id="未命名漸層_5" x1="151.3" y1="1137.25" x2="1.03" y2="1137.25" gradientUnits="userSpaceOnUse"><stop offset="0.13" stop-color="#00293f"/><stop offset="1" stop-color="#00060a"/></linearGradient><linearGradient id="未命名漸層_17" x1="1215.3" y1="1136.12" x2="1366.47" y2="1136.12" gradientUnits="userSpaceOnUse"><stop offset="0.14" stop-color="#00293f"/><stop offset="1" stop-color="#00060a"/></linearGradient><linearGradient id="未命名漸層_63" x1="679.75" y1="844.56" x2="679.75" y2="1001.04" gradientUnits="userSpaceOnUse"><stop offset="0.36" stop-color="#001723"/><stop offset="0.8" stop-color="#00121c"/></linearGradient><radialGradient id="未命名漸層_38" cx="778.41" cy="918.02" r="473.8" gradientTransform="translate(-121.49 1.84) scale(1.03 1)" gradientUnits="userSpaceOnUse"><stop offset="0.19" stop-color="#002031"/><stop offset="0.79" stop-color="#00070b"/><stop offset="1" stop-color="#002437"/></radialGradient><linearGradient id="未命名漸層_102" x1="173.27" y1="930.9" x2="243.77" y2="930.9" gradientUnits="userSpaceOnUse"><stop offset="0" stop-color="#cecece"/><stop offset="1" stop-color="#bcbab8"/></linearGradient><linearGradient id="未命名漸層_107" x1="173.25" y1="940.3" x2="224.8" y2="940.3" gradientUnits="userSpaceOnUse"><stop offset="0" stop-color="#505050"/><stop offset="1" stop-color="#434343"/></linearGradient><linearGradient id="未命名漸層_101" x1="235.94" y1="934.77" x2="232.64" y2="929.07" gradientUnits="userSpaceOnUse"><stop offset="0" stop-color="#bcbab8"/><stop offset="1" stop-color="#a3a1a0"/></linearGradient></defs><title>lib2</title><g id="圖層_2" data-name="圖層 2"><g id="圖層_1-2" data-name="圖層 1"><polygon class="cls-1" points="0.67 0 1366.61 0 1366.67 1104.36 1.13 1116.3 0.67 0"/><polygon class="cls-2" points="290.78 324 1067.01 324 1067.06 801.96 291.07 803.39 290.78 324"/><polygon class="cls-3" points="293.77 946.58 1.05 1241.85 1.05 1398.85 1366.47 1399.23 1366.47 1239.58 1067.63 946.58 293.77 946.58"/><line class="cls-4" x1="678.31" y1="1000.54" x2="678.42" y2="1394.88"/><line class="cls-4" x1="572.26" y1="999.54" x2="427.75" y2="1398.97"/><line class="cls-4" x1="928.93" y1="1399.43" x2="784.42" y2="1000"/><line class="cls-4" x1="457.19" y1="1000.54" x2="156.51" y2="1398.89"/><line class="cls-4" x1="1199.96" y1="1398.89" x2="899.29" y2="1000.54"/><line class="cls-4" x1="321.6" y1="1002.8" x2="1.47" y2="1272.25"/><line class="cls-4" x1="1046.63" y1="1001.39" x2="1366.76" y2="1270.84"/><line class="cls-4" x1="308.31" y1="1027.77" x2="1052.51" y2="1027.77"/><line class="cls-4" x1="228.58" y1="1107.23" x2="1130.92" y2="1107.23"/><line class="cls-4" x1="143.54" y1="1221.65" x2="1214.64" y2="1221.26"/><polyline class="cls-5" points="1363.48 1394.24 1362.15 1235.36 1233.24 1236.64 998.02 1002.16 361.47 1002.16 127.58 1236.64 0 1235.36"/><rect class="cls-6" x="378.08" y="685.07" width="97.41" height="48.96"/><rect class="cls-6" x="746.09" y="660.69" width="97.41" height="48.96"/><rect class="cls-6" x="897.52" y="705.27" width="97.41" height="48.96"/><ellipse class="cls-7" cx="398.39" cy="698.64" rx="7.5" ry="7.23"/><line class="cls-8" x1="411.35" y1="696.29" x2="467.7" y2="696.29"/><line class="cls-8" x1="411.35" y1="700.07" x2="467.7" y2="700.07"/><line class="cls-8" x1="411.35" y1="704.1" x2="467.7" y2="704.1"/><line class="cls-8" x1="386.92" y1="708.55" x2="467.7" y2="708.55"/><line class="cls-8" x1="386.92" y1="713.45" x2="467.7" y2="713.45"/><line class="cls-8" x1="386.92" y1="717.53" x2="467.7" y2="717.53"/><line class="cls-8" x1="386.92" y1="721.95" x2="467.7" y2="721.95"/><line class="cls-8" x1="386.92" y1="726.45" x2="467.7" y2="726.45"/><ellipse class="cls-9" cx="763.87" cy="676.78" rx="6.84" ry="6.6"/><line class="cls-10" x1="754.4" y1="698.42" x2="835.18" y2="698.42"/><line class="cls-10" x1="754.4" y1="702.92" x2="835.18" y2="702.92"/><ellipse class="cls-9" cx="917.3" cy="719.69" rx="7.27" ry="7.01"/><line class="cls-10" x1="930.26" y1="713.09" x2="986.61" y2="713.09"/><line class="cls-10" x1="930.26" y1="717.5" x2="986.61" y2="717.5"/><line class="cls-10" x1="930.26" y1="721.27" x2="986.61" y2="721.27"/><line class="cls-10" x1="930.26" y1="725.3" x2="986.61" y2="725.3"/><line class="cls-10" x1="905.83" y1="729.75" x2="986.61" y2="729.75"/><line class="cls-10" x1="905.83" y1="734.5" x2="986.61" y2="734.5"/><line class="cls-10" x1="905.83" y1="738.59" x2="986.61" y2="738.59"/><line class="cls-10" x1="905.83" y1="743" x2="986.61" y2="743"/><line class="cls-10" x1="905.83" y1="747.5" x2="986.61" y2="747.5"/><polygon class="cls-11" points="378.08 832.3 150.94 1033 150.94 1241.85 416.47 939.75 378.08 832.3"/><polygon class="cls-12" points="1217.53 1032.65 996.88 844.27 996.88 1000.82 1215.3 1239.58 1217.53 1032.65"/><polygon class="cls-13" points="151.3 1241.85 1.03 1241.85 1.03 1032.65 151.3 1033 151.3 1241.85"/><polygon class="cls-14" points="1366.47 1032.65 1366.47 1239.58 1215.3 1239.58 1217.53 1032.65 1366.47 1032.65"/><polygon class="cls-15" points="361.47 844.56 362.65 1001.04 996.97 1000.82 998.02 844.56 361.47 844.56"/><polygon class="cls-16" points="1.03 1032.65 291.07 803.39 1067.06 801.96 1366.47 1032.65 1217.53 1032.65 998.28 845.44 362.13 845.7 150.94 1033 1.03 1032.65"/><path class="cls-17" d="M934.19,802.22v.06h-.06Z"/><path class="cls-18" d="M238.92,920l-.68-1,.58-.38a.09.09,0,0,1,.13,0l.58.8a.1.1,0,0,1,0,.14Z"/><g class="cls-19"><path class="cls-17" d="M989.52,811.49v0h0Z"/><rect class="cls-20" x="981.6" y="800.77" width="76.2" height="3.82"/><path class="cls-21" d="M1035.87,821.41h0v.15a3,3,0,1,1-5.94,0v-.15h0l0-23.94h5.89Z"/><rect class="cls-20" x="1053.84" y="802.5" width="3.96" height="23.26"/><rect class="cls-20" x="981.6" y="802.5" width="3.96" height="23.26"/><path class="cls-22" d="M996.36,821.94h0a1,1,0,0,1,0,.17,3.78,3.78,0,0,1-7.56,0v-.17h0V804.58h7.56Z"/><path class="cls-23" d="M995.55,821.41h0v.15a3,3,0,1,1-5.95,0,.76.76,0,0,1,0-.15h0V807.19h5.95Z"/><rect class="cls-22" x="988.8" y="794.17" width="7.56" height="6.6"/><path class="cls-22" d="M1010,821.94h0a1,1,0,0,1,0,.17,3.78,3.78,0,0,1-7.56,0v-.17h0V804.58H1010Z"/><rect class="cls-22" x="1002.48" y="794.17" width="7.56" height="6.6"/><path class="cls-22" d="M1023.72,821.94h0a1,1,0,0,1,0,.17,3.78,3.78,0,0,1-7.56,0v-.17h0V804.58h7.56Z"/><rect class="cls-22" x="1016.16" y="794.17" width="7.56" height="6.6"/><path class="cls-22" d="M1050.41,821.94h0a1,1,0,0,1,0,.17,3.78,3.78,0,0,1-7.56,0v-.17h0V804.58h7.56Z"/><rect class="cls-22" x="1042.85" y="794.17" width="7.56" height="6.6"/><path class="cls-22" d="M1036.68,821.94h0v.17a3.78,3.78,0,0,1-7.56,0v-.17h0V804.58h7.56Z"/><rect class="cls-22" x="1029.12" y="794.17" width="7.56" height="6.6"/><path class="cls-24" d="M1022.91,821.41h0v.15a3,3,0,1,1-5.95,0,.76.76,0,0,1,0-.15h0l.06-10.63h5.89Z"/><path class="cls-25" d="M1049.6,821.64h0v.14a3,3,0,1,1-5.95,0,.66.66,0,0,1,0-.14h0l0-3.26,5.93,0Z"/><path class="cls-26" d="M1009.23,821.45h0v.14a3,3,0,1,1-6,0,.61.61,0,0,1,0-.14h0l.05-16.06h5.9Z"/></g><polygon class="cls-27" points="192.28 922.4 243.78 922.65 225.09 939.41 173.27 939.41 192.28 922.4"/><polygon class="cls-28" points="150.38 959.47 209.92 959.74 187.69 979.06 128.26 979.08 150.38 959.47"/><polygon class="cls-29" points="185.26 936.03 196.83 925.77 201.04 925.77 189.5 936.03 185.26 936.03"/><line class="cls-29" x1="209.93" y1="928.75" x2="205.28" y2="933.06"/><line class="cls-29" x1="211.53" y1="928.63" x2="206.88" y2="932.93"/><line class="cls-29" x1="212.97" y1="928.75" x2="208.32" y2="933.06"/><polygon class="cls-30" points="224.8 941.2 173.25 941.2 173.27 939.41 224.8 939.41 224.8 941.2"/><polygon class="cls-31" points="243.78 922.64 224.8 939.41 224.8 941.2 243.78 924.4 243.78 922.64"/><line class="cls-32" x1="224.81" y1="939.65" x2="243.78" y2="922.85"/><line class="cls-32" x1="224.8" y1="939.42" x2="243.78" y2="922.65"/><line class="cls-32" x1="224.8" y1="939.86" x2="243.78" y2="923.03"/><line class="cls-32" x1="224.8" y1="940.03" x2="243.78" y2="923.28"/><line class="cls-32" x1="224.8" y1="940.23" x2="243.78" y2="923.51"/><line class="cls-32" x1="224.8" y1="940.44" x2="243.78" y2="923.73"/><line class="cls-32" x1="224.8" y1="940.68" x2="243.78" y2="923.94"/><line class="cls-32" x1="224.81" y1="940.93" x2="243.78" y2="924.14"/><line class="cls-32" x1="224.82" y1="941.1" x2="243.78" y2="924.31"/><line class="cls-33" x1="141.93" y1="974.6" x2="156.12" y2="961.98"/><line class="cls-33" x1="143.13" y1="974.6" x2="157.32" y2="961.98"/><line class="cls-33" x1="144.59" y1="974.6" x2="158.78" y2="961.98"/><line class="cls-33" x1="145.95" y1="974.6" x2="160.14" y2="961.98"/><line class="cls-33" x1="164.42" y1="974.87" x2="170.81" y2="969.26"/><line class="cls-33" x1="165.42" y1="974.87" x2="171.81" y2="969.26"/><line class="cls-33" x1="173.41" y1="966.86" x2="179.07" y2="961.86"/><line class="cls-33" x1="174.39" y1="966.87" x2="180.07" y2="961.86"/><line class="cls-33" x1="166.63" y1="974.87" x2="173.02" y2="969.26"/><line class="cls-33" x1="167.73" y1="974.87" x2="174.12" y2="969.26"/><polygon class="cls-34" points="165.05 961.96 175.48 962 169.76 967.04 159.54 966.91 165.05 961.96"/><polygon class="cls-34" points="157.2 968.91 167.53 969.06 161.07 974.81 150.75 974.72 157.2 968.91"/><polygon class="cls-35" points="192.28 922.4 173.27 939.41 173.25 941.2 224.82 941.2 243.79 924.4 243.8 922.64 192.28 922.4"/><polygon class="cls-35" points="150.38 959.44 209.91 959.75 187.69 979.07 128.25 979.04 150.38 959.44"/><polygon class="cls-36" points="222.53 929.51 238.24 919.07 238.92 920.03 223.21 930.47 222.53 929.51"/><polyline class="cls-37" points="223.21 930.47 221.41 930.96 222.53 929.51 223.21 930.47"/><polygon class="cls-38" points="236.94 919.93 238.24 919.07 238.92 920.03 237.63 920.89 236.94 919.93"/><line class="cls-39" x1="237.51" y1="920.73" x2="223.09" y2="930.3"/><line class="cls-39" x1="237.18" y1="920.26" x2="222.76" y2="929.84"/><line class="cls-39" x1="237.34" y1="920.49" x2="222.92" y2="930.06"/><line class="cls-39" x1="237.04" y1="920.06" x2="222.62" y2="929.64"/><line class="cls-10" x1="778.34" y1="674.37" x2="834.7" y2="674.37"/><line class="cls-10" x1="778.34" y1="678.15" x2="834.7" y2="678.15"/><line class="cls-10" x1="778.34" y1="682.17" x2="834.7" y2="682.17"/><line class="cls-10" x1="753.92" y1="686.63" x2="834.7" y2="686.63"/><line class="cls-10" x1="753.92" y1="691.38" x2="834.7" y2="691.38"/><line class="cls-10" x1="753.92" y1="695.46" x2="834.7" y2="695.46"/></g></g></svg>