<svg xmlns="http://www.w3.org/2000/svg" xmlns:xlink="http://www.w3.org/1999/xlink" viewBox="0 0 57.06 53.28"><defs><style>.cls-1{opacity:0.25;fill:url(#未命名漸層_115);}</style><linearGradient id="未命名漸層_115" y1="26.64" x2="57.06" y2="26.64" gradientUnits="userSpaceOnUse"><stop offset="0" stop-color="#2b708e"/><stop offset="1" stop-color="#09627a"/></linearGradient></defs><title>littlevirus</title><g id="圖層_2" data-name="圖層 2"><g id="常見症狀"><path class="cls-1" d="M53.85,28a6.18,6.18,0,0,1-5-1.15,1.34,1.34,0,0,1-.72-.82v-.23a7.17,7.17,0,0,0-.54-2.35l-.44-1.77-.32-.62c-.18-.6-.34-1.11-.39-1.23a6.67,6.67,0,0,1,2-.74,14.2,14.2,0,0,1,2.32-.43c1.05-.4.9-.54,1-1.39-.26-1.92-1.36-1.64-2.1-1.44-.85.67-1.47,1.09-1.56,1.23l-.1.06h0a13.13,13.13,0,0,1-1.35.48,2.47,2.47,0,0,1-1.21.08,9.3,9.3,0,0,0-.64-1A8.34,8.34,0,0,0,42,13.6l-.17-.17-.06-.11a3,3,0,0,1,.36-1.39,6.32,6.32,0,0,1,.71-.55,9.14,9.14,0,0,0,2.58-1.94,2.12,2.12,0,0,0-.89-2.29,2,2,0,0,0-2.17.34c-1,.49-.94,1.67-1,2a8.78,8.78,0,0,1-1,1,5.38,5.38,0,0,1-1.15,1h0c-1.34-1.26-6.59-2.74-6.59-2.74h-.05a6.83,6.83,0,0,1-1-1.78,5.51,5.51,0,0,1-.24-2.31,9.21,9.21,0,0,1,.72-1.79C33.05.76,31.41.08,31,0c-2.44.37-2.15,1.67-2.24,2.19a4.07,4.07,0,0,0,.28,1.45,5.61,5.61,0,0,1-.29,1.82A8.88,8.88,0,0,1,27.25,8l-.33.22a9,9,0,0,0-2.39.25,23.45,23.45,0,0,0-3.33,1c-1.06.36-1.81.66-1.81.66l0,0c-.24,0-.76-.94-.76-.94S18.1,8,17.84,7.43a1,1,0,0,0,0-.14,1,1,0,0,1-.05-.18,3.27,3.27,0,0,0,.11-.68,3.35,3.35,0,0,0-.45-1.15l-.05,0,0,0a1.19,1.19,0,0,0-.8-.33l-.14,0c-1.78.19-1.28.36-2,.76S14,6.67,14,7.19c.24.74.47.63.87,1.06s.58.52.85.79c.31.59.74,1.93.94,2.41a8.57,8.57,0,0,0-3.71,3,6.93,6.93,0,0,1-1.7-.74,12.22,12.22,0,0,1-1.21-.93c-.35-.21.16-.61-.87-.72A1.13,1.13,0,0,0,9,11.92a1.34,1.34,0,0,0-.58.15c-.56.15-.75.62-1,1.23a1.06,1.06,0,0,0-.09.63v0a1.83,1.83,0,0,0,.08.25,1.74,1.74,0,0,0,.76,1,1.41,1.41,0,0,0,.61,0,3,3,0,0,0,.58.06,11.87,11.87,0,0,1,1.1.46l1,.76-.11.16A32.89,32.89,0,0,0,9.08,20.2l-.06,0a1,1,0,0,0-.25.13h0l0,0A9.91,9.91,0,0,0,7.65,20l-.44-.25a.82.82,0,0,0-.31-.13,2.36,2.36,0,0,0-1.83-1.14c-1.9.43-1.78,1.75-1.9,2.6.19,1.36,2,1.23,2.45,1.16a17.21,17.21,0,0,1,1.89.42.31.31,0,0,1,.09.07,1.18,1.18,0,0,1,.29.64.48.48,0,0,1,0,.14s0,.06,0,.19c-.13.63-.53,2.59-.79,3.72,0,.19-.11.38-.16.58s0,.21,0,.31a17.47,17.47,0,0,0,.33,3.3,3.46,3.46,0,0,1-1.61,2.47,11.54,11.54,0,0,1-3.3,1c-3.06.62-2.19,2.14-2,2.89s1.21.61,2,.33a2.67,2.67,0,0,0,.26-.09,5.85,5.85,0,0,0,.88-.45,7.9,7.9,0,0,1,2.33-1.11,4.18,4.18,0,0,1,2.76,0,14.81,14.81,0,0,0,2.27,3.31,10,10,0,0,0,1.78,1.65c0,.08,0,.15,0,.22-.51.75-2.75,4.08-3,4.48a3.32,3.32,0,0,0-1.37,1.16l-.18.16a.56.56,0,0,0,0,.12l0,0C7.1,49.57,9.15,50.07,9.94,50s1.2-1.45,1.49-1.88c.55-.52,2.3-2.73,2.77-3.19a9.31,9.31,0,0,1,2.16-.68,17.6,17.6,0,0,0,2.76.86h.06l2.62.84.29.12c.6.6.55,1.07.65,2.19a5.09,5.09,0,0,1-.94,2.93,1,1,0,0,0,0,.17,1.24,1.24,0,0,0-.1.2.82.82,0,0,0,.2.42,2.05,2.05,0,0,0,1.52,1.33c1.8-.43,1.79-1.26,1.84-2a5.29,5.29,0,0,1-.19-2.64c.11-.36.23-.72.32-1a2.28,2.28,0,0,0,.13-.74c.05-.11.1-.23.16-.35l0,0a8.21,8.21,0,0,1,1-.4c.44-.09.87-.12,1.11-.18a3.28,3.28,0,0,0,1-.12,8.42,8.42,0,0,0,1.13-.36l.21-.06.18-.06c.42-.09,1.6-.33,3.05-.55l.72-.09s.55,1.73.71,2.36a11.92,11.92,0,0,1,.84,2.89,2,2,0,0,0,1.59,2.14,6.1,6.1,0,0,0,2.1-.82c.78-.68-.3-2.12-.84-2.58a5.18,5.18,0,0,1-.66-.74c-.19-.38-.31-.79-.48-1.13a1.92,1.92,0,0,1-.14-.39c0-.27-.1-.57-.17-.9a5.76,5.76,0,0,1,.83-3.11h0c.06,0,1-.42,1.55-.73C40,41.15,42.29,39,42.29,39a8.36,8.36,0,0,0,1.36-.38c.35.19,1.71.79,2.48,1.2s1.81,1.47,2.67,2a2.38,2.38,0,0,0,2.5-.66c.81-.82-.22-2-.7-2.33s-1.75-.57-2.36-.78a5.71,5.71,0,0,1-3.19-2.41s0,0,0,0a2.34,2.34,0,0,1,.16-.6c.43-1,1.48-2.59,1.76-3.16l.06-.1a17.9,17.9,0,0,1,3.41-1.3c1.33-.51,1.26,0,1.95.06s2,.55,2.83.72a1.52,1.52,0,0,0,1.63-1.07c.69-.89-.58-2.22-1-2.49A13.6,13.6,0,0,0,53.85,28Z"/></g></g></svg>