<svg xmlns="http://www.w3.org/2000/svg" xmlns:xlink="http://www.w3.org/1999/xlink" viewBox="0 0 1564.61 967.01"><defs><style>.cls-1,.cls-2,.cls-3,.cls-4,.cls-5,.cls-6,.cls-7,.cls-8,.cls-9{opacity:0.25;}.cls-1{fill:url(#未命名漸層_115);}.cls-2{fill:url(#未命名漸層_115-2);}.cls-3{fill:url(#未命名漸層_115-3);}.cls-4{fill:url(#未命名漸層_115-4);}.cls-5{fill:url(#未命名漸層_115-5);}.cls-6{fill:url(#未命名漸層_115-6);}.cls-7{fill:url(#未命名漸層_115-7);}.cls-8{fill:url(#未命名漸層_115-8);}.cls-9{fill:url(#未命名漸層_115-9);}</style><linearGradient id="未命名漸層_115" x1="11.09" y1="148.99" x2="68.15" y2="148.99" gradientUnits="userSpaceOnUse"><stop offset="0" stop-color="#2b708e"/><stop offset="1" stop-color="#09627a"/></linearGradient><linearGradient id="未命名漸層_115-2" x1="288.94" y1="284.47" x2="346" y2="284.47" xlink:href="#未命名漸層_115"/><linearGradient id="未命名漸層_115-3" x1="0" y1="664.71" x2="57.06" y2="664.71" xlink:href="#未命名漸層_115"/><linearGradient id="未命名漸層_115-4" x1="982.27" y1="756.93" x2="1039.33" y2="756.93" xlink:href="#未命名漸層_115"/><linearGradient id="未命名漸層_115-5" x1="1232.99" y1="817" x2="1290.06" y2="817" xlink:href="#未命名漸層_115"/><linearGradient id="未命名漸層_115-6" x1="1507.55" y1="576.03" x2="1564.61" y2="576.03" xlink:href="#未命名漸層_115"/><linearGradient id="未命名漸層_115-7" x1="889.53" y1="26.64" x2="946.6" y2="26.64" xlink:href="#未命名漸層_115"/><linearGradient id="未命名漸層_115-8" x1="331.98" y1="940.37" x2="389.04" y2="940.37" xlink:href="#未命名漸層_115"/><linearGradient id="未命名漸層_115-9" x1="1319.43" y1="250.09" x2="1376.49" y2="250.09" xlink:href="#未命名漸層_115"/></defs><title>littlevirus_all</title><g id="圖層_2" data-name="圖層 2"><g id="常見症狀"><path class="cls-1" d="M64.94,150.39a6.15,6.15,0,0,1-5-1.14,1.37,1.37,0,0,1-.72-.83v-.23a7.16,7.16,0,0,0-.54-2.34l-.44-1.77-.32-.62c-.18-.61-.35-1.12-.39-1.23a6.18,6.18,0,0,1,2-.74,13.19,13.19,0,0,1,2.32-.43c1-.41.9-.55,1-1.39-.26-1.93-1.36-1.64-2.1-1.45-.85.68-1.47,1.1-1.56,1.24l-.1,0,0,0c-.23.09-.8.31-1.35.48a2.48,2.48,0,0,1-1.21.07,11,11,0,0,0-.64-1A8.48,8.48,0,0,0,53,136l-.17-.17-.06-.11a3,3,0,0,1,.36-1.39,7,7,0,0,1,.71-.54,9.08,9.08,0,0,0,2.58-2,2.1,2.1,0,0,0-.89-2.28,2,2,0,0,0-2.17.34c-1,.49-.94,1.66-1,2a9.67,9.67,0,0,1-1,1,5.1,5.1,0,0,1-1.16,1h0c-1.34-1.25-6.59-2.74-6.59-2.74h0a7,7,0,0,1-1-1.78,5.52,5.52,0,0,1-.24-2.31,9,9,0,0,1,.72-1.8c1.11-2.14-.53-2.81-.92-2.9-2.45.38-2.15,1.68-2.24,2.2a3.81,3.81,0,0,0,.28,1.44,5.4,5.4,0,0,1-.3,1.82,8.61,8.61,0,0,1-1.51,2.59l-.33.21a9.38,9.38,0,0,0-2.39.25,24.43,24.43,0,0,0-3.33.95c-1.06.36-1.81.66-1.81.66l0,0c-.23,0-.75-.94-.75-.94l-.76-1.77,0-.13a1.21,1.21,0,0,1-.05-.18,4.11,4.11,0,0,0,.11-.69,3.24,3.24,0,0,0-.45-1.14l-.05,0,0,0a1.2,1.2,0,0,0-.8-.34l-.14,0c-1.78.19-1.28.36-2,.77s-.41,1.07-.42,1.6c.25.73.48.62.88,1a10.31,10.31,0,0,0,.85.79c.31.59.74,1.94.94,2.41a8.8,8.8,0,0,0-3.72,3,7.71,7.71,0,0,1-1.7-.73,13.66,13.66,0,0,1-1.2-.94c-.35-.2.16-.6-.87-.72l-.21-.12a1.5,1.5,0,0,0-.58.15c-.57.15-.75.63-1,1.23a1.06,1.06,0,0,0-.09.63v0a2,2,0,0,0,.08.26,1.71,1.71,0,0,0,.76,1,1.27,1.27,0,0,0,.61,0,4.16,4.16,0,0,0,.58.07,10.21,10.21,0,0,1,1.1.45l1,.77-.11.15a31.44,31.44,0,0,0-2.21,3.55l-.06,0a1,1,0,0,0-.25.13h0l0,0a8.42,8.42,0,0,0-1.09-.42c-.18-.1-.34-.19-.44-.26A.8.8,0,0,0,18,142a2.4,2.4,0,0,0-1.83-1.15c-1.9.44-1.78,1.75-1.9,2.6.18,1.36,2,1.23,2.45,1.16a17.21,17.21,0,0,1,1.89.42l.09.07a1.3,1.3,0,0,1,.29.64c0,.09,0,.15,0,.15s0,.06,0,.18c-.13.63-.53,2.59-.79,3.73-.05.18-.11.37-.16.57s0,.21,0,.31a17.49,17.49,0,0,0,.33,3.31,3.43,3.43,0,0,1-1.61,2.46,11.62,11.62,0,0,1-3.3,1c-3.06.61-2.19,2.14-2,2.88s1.21.61,2,.34l.25-.1a4.89,4.89,0,0,0,.89-.44A7.43,7.43,0,0,1,16.82,159a4.21,4.21,0,0,1,2.76,0,14.81,14.81,0,0,0,2.27,3.31,10.62,10.62,0,0,0,1.78,1.66c0,.07,0,.14,0,.21-.51.76-2.75,4.09-3,4.49a3.18,3.18,0,0,0-1.37,1.16l-.18.15a.5.5,0,0,0,0,.13l0,0c-.76,1.84,1.29,2.34,2.08,2.23s1.2-1.45,1.49-1.87c.55-.52,2.3-2.73,2.77-3.2a9.87,9.87,0,0,1,2.16-.68,16.56,16.56,0,0,0,2.76.86h.06l2.62.84.29.12c.6.61.55,1.07.65,2.19a5.11,5.11,0,0,1-.94,2.93,1,1,0,0,0,0,.17l-.1.2a.82.82,0,0,0,.2.43,2,2,0,0,0,1.52,1.32c1.8-.43,1.78-1.26,1.84-2a5.33,5.33,0,0,1-.19-2.65c.11-.36.23-.72.32-1a2.33,2.33,0,0,0,.13-.74l.16-.36,0,0a8.21,8.21,0,0,1,1-.4c.44-.09.86-.12,1.11-.17a3.66,3.66,0,0,0,1-.12,10.16,10.16,0,0,0,1.13-.36l.21-.07.18-.06c.42-.09,1.6-.33,3-.55l.73-.08s.55,1.72.71,2.36a11.79,11.79,0,0,1,.84,2.89,2,2,0,0,0,1.59,2.13,5.69,5.69,0,0,0,2.1-.82c.78-.67-.3-2.11-.84-2.58a5.78,5.78,0,0,1-.66-.73c-.19-.38-.31-.8-.48-1.13a1.92,1.92,0,0,1-.14-.39c-.05-.28-.1-.57-.17-.91a5.72,5.72,0,0,1,.83-3.1v0A16.16,16.16,0,0,0,50.5,164c.59-.52,2.88-2.68,2.88-2.68a7.45,7.45,0,0,0,1.36-.38c.35.2,1.71.79,2.48,1.21s1.8,1.46,2.67,2a2.38,2.38,0,0,0,2.5-.67c.81-.82-.22-2-.7-2.32s-1.75-.58-2.36-.79A5.67,5.67,0,0,1,56.14,158a.06.06,0,0,1,0,0,2,2,0,0,1,.16-.61c.43-1,1.48-2.58,1.76-3.16l.06-.1a17.8,17.8,0,0,1,3.41-1.29c1.32-.52,1.26,0,2,.05s1.95.56,2.83.72A1.53,1.53,0,0,0,68,152.52c.69-.9-.58-2.22-1-2.49A13.68,13.68,0,0,0,64.94,150.39Z"/><path class="cls-2" d="M342.79,285.86a6.15,6.15,0,0,1-5-1.14,1.39,1.39,0,0,1-.72-.82v-.23a7.17,7.17,0,0,0-.54-2.35l-.44-1.77-.32-.62c-.18-.6-.35-1.11-.39-1.23a6.41,6.41,0,0,1,2-.74,13.19,13.19,0,0,1,2.32-.43c1-.41.9-.55,1-1.39-.26-1.93-1.36-1.64-2.1-1.45-.85.68-1.47,1.1-1.56,1.24l-.1.05,0,0c-.23.09-.8.31-1.35.48a2.48,2.48,0,0,1-1.21.07,11,11,0,0,0-.64-1,8.48,8.48,0,0,0-2.81-3.14l-.17-.16-.06-.11a3,3,0,0,1,.36-1.4,7,7,0,0,1,.71-.54,9.34,9.34,0,0,0,2.58-1.94,2.11,2.11,0,0,0-.89-2.29,2,2,0,0,0-2.17.34c-1,.49-.94,1.67-1,2a9.67,9.67,0,0,1-1,1,5.28,5.28,0,0,1-1.16,1h0c-1.34-1.25-6.59-2.74-6.59-2.74h0a6.71,6.71,0,0,1-1-1.78,5.52,5.52,0,0,1-.24-2.31,9.24,9.24,0,0,1,.72-1.8c1.11-2.14-.53-2.81-.92-2.89-2.45.37-2.15,1.67-2.24,2.19a3.77,3.77,0,0,0,.28,1.44,5.36,5.36,0,0,1-.3,1.82,8.61,8.61,0,0,1-1.51,2.59l-.33.21a9.39,9.39,0,0,0-2.39.26,23.13,23.13,0,0,0-3.33.94c-1.06.36-1.81.66-1.81.66l0,0c-.23,0-.75-.94-.75-.94l-.76-1.76c0-.05,0-.09,0-.14a1.21,1.21,0,0,1-.05-.18,3.44,3.44,0,0,0,.1-.69,3,3,0,0,0-.44-1.14l-.05-.05,0,0a1.25,1.25,0,0,0-.8-.34l-.14,0c-1.78.2-1.28.37-2,.77s-.41,1.07-.42,1.6c.25.73.48.63.88,1.05a10.31,10.31,0,0,0,.85.79c.31.59.74,1.94.94,2.41a8.76,8.76,0,0,0-3.72,3,7.73,7.73,0,0,1-1.7-.74c-.49-.23-.84-.73-1.2-.94s.16-.6-.87-.72l-.21-.12a1.5,1.5,0,0,0-.58.15c-.57.16-.75.63-1,1.23a1.07,1.07,0,0,0-.09.63v0a1.12,1.12,0,0,0,.08.26,1.77,1.77,0,0,0,.76,1,1.4,1.4,0,0,0,.61,0,3.05,3.05,0,0,0,.57.07c.44.14,1.11.45,1.11.45l1,.77a.91.91,0,0,0-.11.16A30.83,30.83,0,0,0,298,278l-.06,0a1.08,1.08,0,0,0-.25.14h0a10.2,10.2,0,0,0-1.09-.42c-.18-.1-.34-.19-.44-.26a.8.8,0,0,0-.31-.12,2.4,2.4,0,0,0-1.83-1.15c-1.9.44-1.78,1.75-1.9,2.61.18,1.35,2,1.22,2.44,1.15a17,17,0,0,1,1.9.42l.09.07a1.3,1.3,0,0,1,.29.64c0,.09,0,.15,0,.15s0,.06,0,.18c-.13.63-.53,2.59-.79,3.73-.05.18-.11.38-.16.58a2.91,2.91,0,0,0,0,.31,17.47,17.47,0,0,0,.33,3.3,3.48,3.48,0,0,1-1.61,2.47,11.88,11.88,0,0,1-3.3,1c-3.06.62-2.19,2.14-2,2.88s1.21.62,2,.34l.25-.1a4.89,4.89,0,0,0,.89-.44,7.66,7.66,0,0,1,2.33-1.11,4.28,4.28,0,0,1,2.76,0,14.81,14.81,0,0,0,2.27,3.31,10.19,10.19,0,0,0,1.78,1.66c0,.07,0,.15,0,.22-.51.75-2.75,4.08-3,4.48a3.25,3.25,0,0,0-1.37,1.16l-.18.15a.93.93,0,0,0,0,.13l0,0c-.76,1.84,1.29,2.34,2.08,2.23s1.2-1.44,1.49-1.87c.55-.52,2.3-2.73,2.77-3.2a9.87,9.87,0,0,1,2.16-.68,16.23,16.23,0,0,0,2.76.86l.06,0,2.62.83.29.13c.59.6.55,1.06.65,2.19a5.16,5.16,0,0,1-.94,2.93.86.86,0,0,0,0,.16,2,2,0,0,0-.1.21.82.82,0,0,0,.2.42,2,2,0,0,0,1.52,1.32c1.8-.43,1.78-1.26,1.84-2a5.29,5.29,0,0,1-.19-2.64c.11-.36.23-.73.32-1a2.33,2.33,0,0,0,.13-.74c.05-.11.1-.23.16-.35a.08.08,0,0,1,0,0,8,8,0,0,1,1-.39c.44-.1.86-.13,1.11-.18a3.66,3.66,0,0,0,1-.12,10.16,10.16,0,0,0,1.13-.36l.21-.07.18-.06c.42-.08,1.6-.32,3-.54l.73-.09s.55,1.72.71,2.36a11.92,11.92,0,0,1,.84,2.89,2,2,0,0,0,1.59,2.13,5.69,5.69,0,0,0,2.1-.82c.78-.67-.3-2.11-.84-2.58a5.17,5.17,0,0,1-.66-.73c-.19-.38-.31-.79-.48-1.13a1.92,1.92,0,0,1-.14-.39c-.05-.28-.1-.57-.17-.91a5.72,5.72,0,0,1,.83-3.1v0a16.16,16.16,0,0,0,1.55-.72c.59-.52,2.88-2.68,2.88-2.68a8.43,8.43,0,0,0,1.36-.37c.35.19,1.71.78,2.48,1.2s1.8,1.47,2.67,2a2.38,2.38,0,0,0,2.5-.67c.81-.82-.22-2-.7-2.32s-1.75-.58-2.36-.79a5.67,5.67,0,0,1-3.19-2.4.09.09,0,0,1,0-.05,2,2,0,0,1,.16-.6c.43-1,1.47-2.59,1.76-3.16l.06-.11a17.8,17.8,0,0,1,3.41-1.29c1.32-.52,1.26,0,1.94.06s2,.55,2.84.71c1.33,0,1.39-.72,1.63-1.06.69-.9-.58-2.22-1-2.49A13.68,13.68,0,0,0,342.79,285.86Z"/><path class="cls-3" d="M53.85,666.11a6.18,6.18,0,0,1-5-1.15,1.34,1.34,0,0,1-.72-.82v-.23a7.17,7.17,0,0,0-.54-2.35l-.44-1.77-.32-.62c-.18-.6-.34-1.11-.39-1.23a6.67,6.67,0,0,1,2-.74,14.2,14.2,0,0,1,2.32-.43c1.05-.4.9-.54,1-1.39-.26-1.92-1.36-1.64-2.1-1.44-.85.67-1.47,1.09-1.56,1.23a.53.53,0,0,0-.1.06h0c-.23.1-.8.31-1.35.48a2.59,2.59,0,0,1-1.21.08,8.41,8.41,0,0,0-.64-1A8.34,8.34,0,0,0,42,651.67l-.17-.17-.06-.11a3,3,0,0,1,.36-1.39,6.32,6.32,0,0,1,.71-.55,9.14,9.14,0,0,0,2.58-1.94,2.12,2.12,0,0,0-.89-2.29,2,2,0,0,0-2.17.34c-1,.49-.94,1.67-1,2a9.67,9.67,0,0,1-1,1,5.38,5.38,0,0,1-1.15,1h0c-1.34-1.25-6.59-2.73-6.59-2.73h-.05a6.83,6.83,0,0,1-1-1.78,5.51,5.51,0,0,1-.24-2.31,9,9,0,0,1,.72-1.79c1.11-2.14-.53-2.82-.92-2.9-2.44.37-2.15,1.67-2.24,2.19a4.07,4.07,0,0,0,.28,1.45,5.61,5.61,0,0,1-.29,1.82,8.88,8.88,0,0,1-1.52,2.58l-.33.22a9,9,0,0,0-2.39.25,22.2,22.2,0,0,0-3.33.95c-1.06.36-1.81.66-1.81.66l0,0c-.24,0-.76-.94-.76-.94s-.5-1.2-.76-1.77a.74.74,0,0,0,0-.14,1.21,1.21,0,0,1-.05-.18,3.27,3.27,0,0,0,.11-.68,3.35,3.35,0,0,0-.45-1.15l-.05,0,0,0a1.19,1.19,0,0,0-.8-.33l-.14-.05c-1.78.2-1.28.37-2,.77s-.41,1.07-.41,1.6c.24.74.47.63.87,1s.58.53.85.8c.31.59.74,1.93.94,2.41a8.57,8.57,0,0,0-3.71,3,7.33,7.33,0,0,1-1.7-.74,12.22,12.22,0,0,1-1.21-.93c-.35-.21.16-.61-.87-.72A1.13,1.13,0,0,0,9,650a1.34,1.34,0,0,0-.58.15c-.56.15-.75.62-1,1.23a1,1,0,0,0-.09.62v0a1.83,1.83,0,0,0,.08.25,1.74,1.74,0,0,0,.76,1,1.4,1.4,0,0,0,.61,0,2.41,2.41,0,0,0,.58.07,11.87,11.87,0,0,1,1.1.46l1,.76-.11.16a32.89,32.89,0,0,0-2.21,3.54l-.06,0a1.66,1.66,0,0,0-.25.14h0c-.22-.1-.67-.28-1.09-.42-.18-.1-.34-.19-.44-.26a.8.8,0,0,0-.31-.12,2.4,2.4,0,0,0-1.83-1.15c-1.9.44-1.78,1.75-1.9,2.61.19,1.36,2,1.22,2.45,1.16a15.07,15.07,0,0,1,1.89.42l.09.06a1.24,1.24,0,0,1,.29.64.49.49,0,0,1,0,.15s0,.06,0,.18c-.13.64-.53,2.6-.79,3.73,0,.19-.11.38-.16.58s0,.21,0,.31a17.47,17.47,0,0,0,.33,3.3,3.48,3.48,0,0,1-1.61,2.47,11.54,11.54,0,0,1-3.3,1c-3.06.62-2.19,2.14-2,2.88s1.21.62,2,.34a2.67,2.67,0,0,0,.26-.09,5.85,5.85,0,0,0,.88-.45,7.66,7.66,0,0,1,2.33-1.11,4.18,4.18,0,0,1,2.76,0A15,15,0,0,0,10.76,678a10.42,10.42,0,0,0,1.78,1.65c0,.08,0,.15,0,.22-.51.75-2.75,4.08-3,4.48a3.25,3.25,0,0,0-1.37,1.16l-.18.16a.56.56,0,0,0,0,.12l0,0c-.76,1.85,1.29,2.34,2.08,2.24s1.2-1.45,1.49-1.88c.55-.52,2.3-2.73,2.77-3.19a9.31,9.31,0,0,1,2.16-.68,17.6,17.6,0,0,0,2.76.86h.06l2.62.84.29.12c.6.6.55,1.07.65,2.19a5.09,5.09,0,0,1-.94,2.93.85.85,0,0,0,0,.16,2,2,0,0,0-.1.21.82.82,0,0,0,.2.42,2.05,2.05,0,0,0,1.52,1.33c1.8-.43,1.79-1.26,1.84-2a5.29,5.29,0,0,1-.19-2.64c.11-.36.23-.72.32-1a2.28,2.28,0,0,0,.13-.74c.05-.11.1-.23.16-.35l0,0a8.21,8.21,0,0,1,1-.4c.44-.09.87-.12,1.11-.18a3.66,3.66,0,0,0,1-.12,8.42,8.42,0,0,0,1.13-.36l.21-.07.18-.05c.42-.09,1.6-.33,3.05-.55l.72-.09s.55,1.73.71,2.36a11.92,11.92,0,0,1,.84,2.89,2,2,0,0,0,1.59,2.14,6,6,0,0,0,2.1-.83c.78-.67-.3-2.11-.84-2.58a4.67,4.67,0,0,1-.66-.73c-.19-.38-.31-.79-.48-1.13a1.92,1.92,0,0,1-.14-.39c0-.27-.1-.57-.17-.9a5.73,5.73,0,0,1,.83-3.11h0c.06,0,1-.42,1.55-.73.59-.52,2.88-2.67,2.88-2.67a8.36,8.36,0,0,0,1.36-.38c.35.19,1.71.79,2.48,1.2s1.81,1.47,2.67,2a2.38,2.38,0,0,0,2.5-.66c.81-.82-.22-2-.7-2.33s-1.75-.57-2.36-.78a5.71,5.71,0,0,1-3.19-2.41s0,0,0-.05a2.34,2.34,0,0,1,.16-.6c.43-1,1.48-2.59,1.76-3.16l.06-.11a18.49,18.49,0,0,1,3.41-1.29c1.33-.51,1.26,0,1.95.06s2,.55,2.83.71a1.51,1.51,0,0,0,1.63-1.06c.69-.89-.58-2.22-1-2.49A13.6,13.6,0,0,0,53.85,666.11Z"/><path class="cls-4" d="M1036.13,758.33a6.19,6.19,0,0,1-5-1.15,1.41,1.41,0,0,1-.72-.82c0-.09,0-.17,0-.23a7.35,7.35,0,0,0-.55-2.35l-.44-1.77-.32-.62c-.18-.6-.34-1.11-.39-1.23a6.77,6.77,0,0,1,2-.74,14.2,14.2,0,0,1,2.32-.43c1-.4.9-.54,1-1.39-.26-1.92-1.36-1.64-2.1-1.44-.85.67-1.46,1.09-1.56,1.23l-.1.06h0c-.23.1-.79.31-1.35.48a2.59,2.59,0,0,1-1.21.08,16.66,16.66,0,0,0-3.45-4.13l-.17-.17-.06-.11a3,3,0,0,1,.36-1.39,6.32,6.32,0,0,1,.71-.55,9.14,9.14,0,0,0,2.58-1.94,2.12,2.12,0,0,0-.89-2.29,2,2,0,0,0-2.17.34c-1,.49-.93,1.67-1,2a9.67,9.67,0,0,1-1,1,5.38,5.38,0,0,1-1.15,1h0c-1.34-1.25-6.59-2.73-6.59-2.73h0a6.83,6.83,0,0,1-1-1.78,5.3,5.3,0,0,1-.23-2.31,8.39,8.39,0,0,1,.72-1.79c1.1-2.14-.54-2.82-.93-2.9-2.44.37-2.14,1.67-2.23,2.19a4.07,4.07,0,0,0,.27,1.45,5.61,5.61,0,0,1-.29,1.82,9.12,9.12,0,0,1-1.51,2.58l-.34.22a9,9,0,0,0-2.39.25,21.72,21.72,0,0,0-3.32,1c-1.07.36-1.82.66-1.82.66l0,0c-.24,0-.75-.94-.75-.94s-.51-1.2-.77-1.77a.74.74,0,0,0,0-.14c0-.06,0-.12-.05-.18a3.27,3.27,0,0,0,.11-.68,3.35,3.35,0,0,0-.45-1.15l0,0,0,0a1.19,1.19,0,0,0-.8-.33l-.13,0c-1.79.2-1.28.37-2,.77s-.41,1.07-.41,1.6c.24.74.47.63.87,1s.58.53.85.8c.32.59.74,1.93.94,2.41-1.19.31-2.51,1.54-3.71,3a7.33,7.33,0,0,1-1.7-.74c-.49-.23-.84-.72-1.21-.93s.16-.61-.87-.72a1.13,1.13,0,0,0-.21-.12,1.34,1.34,0,0,0-.58.15c-.56.15-.75.62-1,1.22a1.16,1.16,0,0,0-.09.63v0a1.83,1.83,0,0,0,.08.25,1.78,1.78,0,0,0,.76,1,1.41,1.41,0,0,0,.61,0,2.41,2.41,0,0,0,.58.07,11.87,11.87,0,0,1,1.1.46l1,.76-.11.16a32.89,32.89,0,0,0-2.21,3.54l-.06,0a1.23,1.23,0,0,0-.24.14h0c-.22-.1-.67-.28-1.08-.42a4.65,4.65,0,0,1-.45-.26.74.74,0,0,0-.31-.12,2.39,2.39,0,0,0-1.83-1.15c-1.9.44-1.78,1.75-1.89,2.61.18,1.36,2,1.22,2.44,1.16a15.07,15.07,0,0,1,1.89.42l.09.06a1.24,1.24,0,0,1,.29.64.49.49,0,0,1,0,.15s0,.06,0,.18c-.13.64-.53,2.6-.79,3.73,0,.19-.1.38-.16.58s0,.21,0,.31a17.47,17.47,0,0,0,.33,3.3,3.5,3.5,0,0,1-1.6,2.47,11.59,11.59,0,0,1-3.31,1c-3.06.62-2.19,2.14-2,2.88s1.21.62,2,.34a2.67,2.67,0,0,0,.26-.09,5.85,5.85,0,0,0,.88-.45A7.6,7.6,0,0,1,988,766.9a4.16,4.16,0,0,1,2.75,0,15,15,0,0,0,2.27,3.31,10.42,10.42,0,0,0,1.78,1.65c0,.08,0,.15,0,.22-.5.75-2.75,4.08-3,4.48a3.25,3.25,0,0,0-1.37,1.16l-.17.16a.61.61,0,0,0-.05.12l0,0c-.75,1.85,1.29,2.34,2.08,2.24s1.2-1.45,1.49-1.88c.55-.52,2.3-2.73,2.78-3.19a9.14,9.14,0,0,1,2.15-.68,17.6,17.6,0,0,0,2.76.86h.06l2.62.84.3.12c.59.6.54,1.07.64,2.19a5.09,5.09,0,0,1-.94,2.93v.16l-.1.21a.91.91,0,0,0,.2.42,2.05,2.05,0,0,0,1.52,1.33c1.8-.43,1.79-1.26,1.84-2a5.29,5.29,0,0,1-.19-2.64c.11-.36.23-.72.33-1a2.6,2.6,0,0,0,.12-.74c.05-.11.1-.23.16-.35l0,0a7.67,7.67,0,0,1,1-.4c.43-.09.86-.12,1.1-.18a3.66,3.66,0,0,0,1-.12,8.42,8.42,0,0,0,1.13-.36l.21-.07.18,0c.42-.09,1.61-.33,3-.55l.72-.09s.55,1.73.71,2.36a11.92,11.92,0,0,1,.84,2.89,2,2,0,0,0,1.59,2.14,5.91,5.91,0,0,0,2.1-.83c.78-.67-.3-2.11-.84-2.58a5.23,5.23,0,0,1-.66-.73c-.19-.38-.31-.79-.48-1.13a2.8,2.8,0,0,1-.14-.39c-.05-.27-.1-.57-.16-.9a5.66,5.66,0,0,1,.82-3.11h0c.06,0,1-.42,1.55-.73.59-.52,2.89-2.68,2.89-2.68a8.09,8.09,0,0,0,1.35-.37c.35.19,1.71.79,2.48,1.2s1.81,1.47,2.67,2a2.38,2.38,0,0,0,2.5-.66c.81-.82-.21-2-.7-2.33s-1.75-.57-2.36-.78a5.71,5.71,0,0,1-3.19-2.41s0,0,0-.05a2.84,2.84,0,0,1,.16-.6c.43-1,1.48-2.59,1.76-3.16a.3.3,0,0,0,.06-.11,18.49,18.49,0,0,1,3.41-1.29c1.33-.51,1.26,0,2,.06s1.95.55,2.83.71a1.51,1.51,0,0,0,1.63-1.06c.7-.89-.57-2.22-1-2.49A13.24,13.24,0,0,0,1036.13,758.33Z"/><path class="cls-5" d="M1286.85,818.4a6.21,6.21,0,0,1-5-1.15,1.41,1.41,0,0,1-.72-.82,1.93,1.93,0,0,0,0-.23,7.17,7.17,0,0,0-.54-2.35l-.44-1.76s-.14-.26-.32-.63c-.19-.6-.35-1.11-.4-1.23a6.84,6.84,0,0,1,2-.74,14,14,0,0,1,2.32-.43c1-.4.9-.54,1-1.39-.25-1.92-1.36-1.63-2.1-1.44-.85.67-1.46,1.1-1.56,1.23l-.09.06,0,0c-.23.09-.79.31-1.34.47a2.51,2.51,0,0,1-1.22.08,11,11,0,0,0-.63-1A8.42,8.42,0,0,0,1275,804l-.18-.17-.06-.11a2.94,2.94,0,0,1,.37-1.39,6.81,6.81,0,0,1,.7-.55,9.43,9.43,0,0,0,2.59-1.94,2.12,2.12,0,0,0-.9-2.29,2,2,0,0,0-2.16.35c-1,.48-.94,1.66-1,2a9.58,9.58,0,0,1-1,1,5.38,5.38,0,0,1-1.15,1h0c-1.34-1.25-6.59-2.74-6.59-2.74h-.06a7.22,7.22,0,0,1-1-1.77,5.52,5.52,0,0,1-.23-2.32,8.6,8.6,0,0,1,.72-1.79c1.11-2.14-.54-2.82-.92-2.9-2.45.38-2.15,1.67-2.24,2.19a4.07,4.07,0,0,0,.27,1.45,5.61,5.61,0,0,1-.29,1.82,9,9,0,0,1-1.51,2.59l-.33.21a8.91,8.91,0,0,0-2.39.25,23.08,23.08,0,0,0-3.33,1c-1.06.36-1.81.66-1.81.66l0,0c-.23,0-.75-.94-.75-.94l-.76-1.77s0-.09,0-.14,0-.11,0-.18a3.15,3.15,0,0,0,.11-.68,3.35,3.35,0,0,0-.45-1.15l-.05,0s0,0,0,0a1.24,1.24,0,0,0-.81-.33l-.13,0c-1.79.19-1.28.36-2,.77s-.41,1.07-.41,1.59c.25.74.48.63.87,1.06s.59.53.86.79c.31.59.73,1.93.94,2.41a8.73,8.73,0,0,0-3.72,3,7.32,7.32,0,0,1-1.7-.73,13.66,13.66,0,0,1-1.2-.94c-.35-.2.15-.61-.87-.72l-.21-.12a1.34,1.34,0,0,0-.58.15c-.57.15-.75.63-1,1.23a1.15,1.15,0,0,0-.1.63v0a1.83,1.83,0,0,0,.08.25,1.74,1.74,0,0,0,.77,1,1.36,1.36,0,0,0,.6,0,3,3,0,0,0,.58.06,11.87,11.87,0,0,1,1.1.46l1,.76-.11.16a31.89,31.89,0,0,0-2.2,3.54l-.06,0a.86.86,0,0,0-.25.13h0l0,0a9.91,9.91,0,0,0-1.09-.43l-.44-.25a.87.87,0,0,0-.32-.13,2.33,2.33,0,0,0-1.83-1.14c-1.9.44-1.77,1.75-1.89,2.6.18,1.36,2,1.23,2.44,1.16a17.58,17.58,0,0,1,1.9.42l.09.07a1.14,1.14,0,0,1,.28.64.37.37,0,0,1,0,.14,1.29,1.29,0,0,1,0,.19c-.13.63-.52,2.59-.79,3.72,0,.19-.1.38-.16.58s0,.21,0,.31a16.64,16.64,0,0,0,.32,3.3,3.43,3.43,0,0,1-1.6,2.47,11.5,11.5,0,0,1-3.31,1c-3,.62-2.18,2.14-2,2.89s1.21.61,2,.33a1.25,1.25,0,0,0,.25-.09,5.85,5.85,0,0,0,.88-.45,8,8,0,0,1,2.34-1.11,4.19,4.19,0,0,1,2.76,0,15,15,0,0,0,2.26,3.31,11,11,0,0,0,1.78,1.66c0,.07,0,.14,0,.21-.51.76-2.75,4.09-3,4.48a3.36,3.36,0,0,0-1.36,1.16l-.18.16,0,.12,0,0c-.76,1.85,1.28,2.35,2.08,2.24s1.2-1.45,1.48-1.88c.55-.52,2.3-2.73,2.78-3.19a9.31,9.31,0,0,1,2.16-.68,16.23,16.23,0,0,0,2.76.86h.06l2.62.84.29.12c.59.6.54,1.07.65,2.19a5.14,5.14,0,0,1-1,2.93v.17l-.1.2a.84.84,0,0,0,.21.42,2.06,2.06,0,0,0,1.51,1.33c1.8-.43,1.79-1.26,1.84-2a5.29,5.29,0,0,1-.19-2.64c.11-.36.24-.72.33-1a3.16,3.16,0,0,0,.13-.75c0-.11.09-.22.15-.35l0,0a8.27,8.27,0,0,1,1-.4c.43-.09.86-.12,1.11-.18a3.21,3.21,0,0,0,1-.12,9.67,9.67,0,0,0,1.13-.35l.21-.07.19-.06c.42-.09,1.6-.33,3-.55l.72-.09s.55,1.73.72,2.36a12.81,12.81,0,0,1,.84,2.9,2,2,0,0,0,1.58,2.13,6.13,6.13,0,0,0,2.11-.82c.78-.68-.31-2.11-.85-2.58a5.88,5.88,0,0,1-.66-.74c-.18-.38-.31-.79-.47-1.13a3,3,0,0,1-.15-.38c0-.28-.09-.58-.16-.91a5.9,5.9,0,0,1,.82-3.11h0c.06,0,1-.42,1.55-.72.59-.53,2.88-2.68,2.88-2.68a8.65,8.65,0,0,0,1.36-.38c.34.2,1.7.79,2.47,1.21s1.81,1.46,2.68,2a2.39,2.39,0,0,0,2.49-.67c.81-.82-.21-2-.7-2.33s-1.75-.57-2.35-.78a5.63,5.63,0,0,1-3.19-2.41v0a2.36,2.36,0,0,1,.17-.61c.43-1,1.47-2.59,1.76-3.16l.06-.1a16.7,16.7,0,0,1,3.41-1.29c1.32-.52,1.26,0,1.94,0s1.95.56,2.83.72a1.52,1.52,0,0,0,1.63-1.07c.7-.89-.57-2.22-1-2.49A13.47,13.47,0,0,0,1286.85,818.4Z"/><path class="cls-6" d="M1561.4,577.43a6.1,6.1,0,0,1-5-1.15,1.34,1.34,0,0,1-.72-.82v-.23a7.25,7.25,0,0,0-.54-2.35l-.44-1.76-.32-.62c-.18-.61-.35-1.12-.39-1.23a6.18,6.18,0,0,1,2-.74,12.31,12.31,0,0,1,2.32-.43c1.05-.41.9-.55,1-1.4-.26-1.92-1.36-1.63-2.1-1.44-.85.67-1.47,1.1-1.56,1.23l-.1.06,0,0c-.23.09-.8.31-1.35.47a2.48,2.48,0,0,1-1.21.08,9.78,9.78,0,0,0-.64-1,8.48,8.48,0,0,0-2.81-3.14l-.17-.17-.06-.11a3,3,0,0,1,.36-1.39,6.32,6.32,0,0,1,.71-.55,9.14,9.14,0,0,0,2.58-1.94,2.12,2.12,0,0,0-.89-2.29,2,2,0,0,0-2.17.35c-1,.48-.94,1.66-1,2a9.67,9.67,0,0,1-1,1,5.37,5.37,0,0,1-1.16,1h0c-1.34-1.25-6.59-2.74-6.59-2.74h0a7.19,7.19,0,0,1-1-1.78,5.56,5.56,0,0,1-.24-2.32,9.21,9.21,0,0,1,.72-1.79c1.11-2.14-.53-2.82-.92-2.9-2.45.38-2.15,1.68-2.24,2.2a3.81,3.81,0,0,0,.28,1.44,5.4,5.4,0,0,1-.3,1.82,8.74,8.74,0,0,1-1.51,2.59l-.33.21a9,9,0,0,0-2.39.25,24.43,24.43,0,0,0-3.33,1c-1.06.36-1.81.66-1.81.66l0,0c-.23,0-.75-.94-.75-.94l-.76-1.77,0-.13a1.05,1.05,0,0,1,0-.19,4,4,0,0,0,.11-.68,3.24,3.24,0,0,0-.45-1.14l0,0,0,0a1.2,1.2,0,0,0-.8-.34l-.14,0c-1.78.19-1.28.36-2,.77s-.41,1.07-.42,1.59c.25.74.48.63.88,1.06a10.31,10.31,0,0,0,.85.79c.31.59.74,1.93.94,2.41a8.73,8.73,0,0,0-3.72,3,7.71,7.71,0,0,1-1.7-.73,13.66,13.66,0,0,1-1.2-.94c-.35-.2.16-.6-.87-.72l-.21-.12a1.34,1.34,0,0,0-.58.15c-.57.15-.75.63-1,1.23a1.06,1.06,0,0,0-.09.63v0a1.83,1.83,0,0,0,.08.25,1.7,1.7,0,0,0,.76,1,1.41,1.41,0,0,0,.61,0,4.16,4.16,0,0,0,.58.07,10.21,10.21,0,0,1,1.1.45l1,.76-.11.16a31.44,31.44,0,0,0-2.21,3.55l-.06,0a1,1,0,0,0-.25.13h0l0,0a9.91,9.91,0,0,0-1.09-.43,3.81,3.81,0,0,1-.44-.25.8.8,0,0,0-.31-.12,2.4,2.4,0,0,0-1.83-1.15c-1.9.44-1.78,1.75-1.9,2.6.18,1.36,2,1.23,2.45,1.16a17.21,17.21,0,0,1,1.89.42l.09.07a1.27,1.27,0,0,1,.29.64,1,1,0,0,1,0,.14s0,.07,0,.19c-.13.63-.53,2.59-.79,3.73,0,.18-.11.37-.16.57s0,.21,0,.31a17.38,17.38,0,0,0,.33,3.3,3.44,3.44,0,0,1-1.61,2.47,11.54,11.54,0,0,1-3.3,1c-3.06.62-2.19,2.14-2,2.89s1.21.61,2,.34l.25-.1a6.69,6.69,0,0,0,.89-.44,7.43,7.43,0,0,1,2.33-1.11,4.14,4.14,0,0,1,2.76,0,14.81,14.81,0,0,0,2.27,3.31,10.62,10.62,0,0,0,1.78,1.66c0,.07,0,.14,0,.21-.51.76-2.75,4.09-3,4.48a3.32,3.32,0,0,0-1.37,1.16l-.18.16a.56.56,0,0,0,0,.12l0,0c-.76,1.85,1.29,2.35,2.08,2.24s1.2-1.45,1.49-1.88c.55-.52,2.3-2.73,2.77-3.19a9.31,9.31,0,0,1,2.16-.68,16.56,16.56,0,0,0,2.76.86h.06l2.62.84.29.12c.6.6.55,1.07.65,2.19a5.11,5.11,0,0,1-.94,2.93,1,1,0,0,0,0,.17,1.24,1.24,0,0,0-.1.2.82.82,0,0,0,.2.43,2.06,2.06,0,0,0,1.52,1.32c1.8-.43,1.78-1.26,1.84-2a5.29,5.29,0,0,1-.19-2.64c.11-.36.23-.72.32-1a2.34,2.34,0,0,0,.13-.75l.16-.35,0,0a8.21,8.21,0,0,1,1-.4c.44-.09.86-.12,1.11-.17a3.65,3.65,0,0,0,1-.13,8.51,8.51,0,0,0,1.13-.35l.21-.07.18-.06c.42-.09,1.6-.33,3-.55l.73-.08s.55,1.72.71,2.36a11.66,11.66,0,0,1,.84,2.89,2,2,0,0,0,1.59,2.13,6.1,6.1,0,0,0,2.1-.82c.78-.68-.3-2.11-.84-2.58a5.18,5.18,0,0,1-.66-.74c-.19-.38-.31-.79-.48-1.13a1.8,1.8,0,0,1-.14-.38c0-.28-.1-.58-.17-.91a5.79,5.79,0,0,1,.83-3.11h0c.06,0,1-.41,1.55-.72.59-.52,2.88-2.68,2.88-2.68a7.45,7.45,0,0,0,1.36-.38c.35.2,1.71.79,2.48,1.21s1.8,1.46,2.67,2a2.4,2.4,0,0,0,2.5-.67c.81-.82-.22-2-.7-2.32s-1.75-.58-2.36-.79a5.67,5.67,0,0,1-3.19-2.41.06.06,0,0,1,0,0,2,2,0,0,1,.16-.61c.43-1,1.48-2.59,1.76-3.16l.06-.1a17.15,17.15,0,0,1,3.41-1.29c1.32-.52,1.26,0,2,0s2,.56,2.83.72a1.52,1.52,0,0,0,1.63-1.07c.69-.89-.58-2.22-1-2.49A13.7,13.7,0,0,0,1561.4,577.43Z"/><path class="cls-7" d="M943.39,28a6.19,6.19,0,0,1-5-1.15,1.41,1.41,0,0,1-.72-.82c0-.09,0-.16,0-.23a7.17,7.17,0,0,0-.54-2.35l-.44-1.77s-.14-.25-.32-.62c-.19-.6-.35-1.11-.4-1.23a6.88,6.88,0,0,1,2-.74,14.09,14.09,0,0,1,2.33-.43c1-.4.89-.54.95-1.39-.26-1.92-1.36-1.64-2.1-1.44-.85.67-1.46,1.09-1.56,1.23l-.1.06h0a12.77,12.77,0,0,1-1.34.48,2.52,2.52,0,0,1-1.22.08,9.3,9.3,0,0,0-.64-1,8.25,8.25,0,0,0-2.81-3.13l-.17-.17-.06-.11a3,3,0,0,1,.36-1.39,6.32,6.32,0,0,1,.71-.55,9.14,9.14,0,0,0,2.58-1.94A2.11,2.11,0,0,0,934,7.15a2,2,0,0,0-2.17.34c-1,.49-.93,1.67-1,2a8.78,8.78,0,0,1-1,1,5.38,5.38,0,0,1-1.15,1h0c-1.34-1.26-6.59-2.74-6.59-2.74h0A6.83,6.83,0,0,1,921,7a5.3,5.3,0,0,1-.23-2.31,8.6,8.6,0,0,1,.72-1.79c1.11-2.14-.54-2.82-.93-2.9-2.44.37-2.14,1.67-2.23,2.19a4.07,4.07,0,0,0,.27,1.45,5.61,5.61,0,0,1-.29,1.82A9.12,9.12,0,0,1,916.79,8l-.34.22a9,9,0,0,0-2.39.25,22.92,22.92,0,0,0-3.32,1c-1.07.36-1.81.66-1.81.66l0,0c-.23,0-.75-.94-.75-.94l-.76-1.77s0-.09,0-.14,0-.12-.05-.18a3.27,3.27,0,0,0,.11-.68,3.35,3.35,0,0,0-.45-1.15l-.05,0,0,0a1.19,1.19,0,0,0-.8-.33l-.13,0c-1.79.19-1.28.36-2,.76s-.41,1.08-.41,1.6c.24.74.47.63.87,1.06s.58.52.85.79c.32.59.74,1.93,1,2.41-1.2.31-2.52,1.54-3.72,3a6.93,6.93,0,0,1-1.7-.74c-.49-.23-.84-.72-1.2-.93s.15-.61-.88-.72a.72.72,0,0,0-.21-.12,1.26,1.26,0,0,0-.57.15c-.57.15-.75.62-1,1.23a1.07,1.07,0,0,0-.1.63v0a1.83,1.83,0,0,0,.08.25,1.74,1.74,0,0,0,.77,1,1.36,1.36,0,0,0,.6,0,3,3,0,0,0,.58.06,11.87,11.87,0,0,1,1.1.46l1,.76-.11.16a32.89,32.89,0,0,0-2.21,3.54l-.06,0a.82.82,0,0,0-.24.13h0l0,0a10.79,10.79,0,0,0-1.09-.43l-.44-.25a.87.87,0,0,0-.32-.13,2.34,2.34,0,0,0-1.83-1.14c-1.9.43-1.78,1.75-1.89,2.6.18,1.36,2,1.23,2.44,1.16a17.58,17.58,0,0,1,1.9.42.27.27,0,0,1,.08.07,1.18,1.18,0,0,1,.29.64.48.48,0,0,1,0,.14s0,.06,0,.19c-.13.63-.52,2.59-.79,3.72-.05.19-.1.38-.16.58s0,.21,0,.31a17.47,17.47,0,0,0,.33,3.3,3.48,3.48,0,0,1-1.6,2.47,11.59,11.59,0,0,1-3.31,1c-3.06.62-2.18,2.14-2,2.89s1.21.61,2,.33a2,2,0,0,0,.26-.09,5.85,5.85,0,0,0,.88-.45,8,8,0,0,1,2.34-1.11,4.19,4.19,0,0,1,2.76,0,14.36,14.36,0,0,0,2.26,3.31,10,10,0,0,0,1.78,1.65,1.5,1.5,0,0,1,0,.22c-.5.75-2.74,4.08-3,4.48a3.32,3.32,0,0,0-1.37,1.16l-.17.16a.61.61,0,0,0-.05.12l0,0c-.75,1.85,1.29,2.35,2.08,2.24s1.21-1.45,1.49-1.88c.55-.52,2.3-2.73,2.78-3.19a9.29,9.29,0,0,1,2.15-.68,17.84,17.84,0,0,0,2.77.86h.05l2.62.84.3.12c.59.6.54,1.07.64,2.19a5.09,5.09,0,0,1-.94,2.93v.17c0,.06-.07.13-.1.2a.91.91,0,0,0,.2.42A2.07,2.07,0,0,0,913,53.28c1.8-.43,1.79-1.26,1.84-2a5.29,5.29,0,0,1-.19-2.64c.11-.36.23-.72.33-1a3,3,0,0,0,.13-.74,3.35,3.35,0,0,1,.15-.35l0,0a7.67,7.67,0,0,1,1-.4c.43-.09.86-.12,1.11-.18a3.21,3.21,0,0,0,.95-.12,8.42,8.42,0,0,0,1.13-.36l.21-.06.19-.06c.42-.09,1.6-.33,3-.55l.72-.09s.55,1.73.72,2.36a12.37,12.37,0,0,1,.83,2.89,2,2,0,0,0,1.59,2.14,6,6,0,0,0,2.1-.82c.78-.68-.3-2.12-.84-2.58a5.88,5.88,0,0,1-.66-.74c-.18-.38-.31-.79-.48-1.13,0-.1-.09-.23-.14-.39s-.09-.57-.16-.9a5.69,5.69,0,0,1,.82-3.11h0c.06,0,1-.42,1.55-.73.59-.52,2.89-2.67,2.89-2.67a8.3,8.3,0,0,0,1.35-.38c.35.19,1.71.79,2.48,1.2s1.81,1.47,2.67,2a2.38,2.38,0,0,0,2.5-.66c.81-.82-.21-2-.7-2.33s-1.75-.57-2.35-.78a5.71,5.71,0,0,1-3.2-2.41.09.09,0,0,0,0,0,2.84,2.84,0,0,1,.16-.6c.43-1,1.48-2.59,1.77-3.16l.06-.1a17.58,17.58,0,0,1,3.4-1.3c1.33-.51,1.26,0,1.95.06s2,.55,2.83.72a1.52,1.52,0,0,0,1.63-1.07c.7-.89-.57-2.22-1-2.49A13.47,13.47,0,0,0,943.39,28Z"/><path class="cls-8" d="M385.83,941.76a6.15,6.15,0,0,1-5-1.14,1.39,1.39,0,0,1-.72-.82v-.23a7.17,7.17,0,0,0-.54-2.35l-.44-1.77-.32-.62c-.18-.6-.35-1.11-.39-1.23a6.41,6.41,0,0,1,2-.74,13.19,13.19,0,0,1,2.32-.43c1.05-.41.9-.55,1-1.39-.26-1.93-1.36-1.64-2.1-1.45-.85.68-1.47,1.1-1.56,1.24l-.1,0,0,0c-.23.09-.8.31-1.35.48a2.48,2.48,0,0,1-1.21.07,11,11,0,0,0-.64-1,8.48,8.48,0,0,0-2.81-3.14l-.17-.16-.06-.11a3,3,0,0,1,.36-1.39,6.32,6.32,0,0,1,.71-.55,9.34,9.34,0,0,0,2.58-1.94,2.11,2.11,0,0,0-.89-2.29,2,2,0,0,0-2.17.34c-1,.49-.94,1.67-1,2a9.67,9.67,0,0,1-1,1,5.28,5.28,0,0,1-1.16,1h0c-1.34-1.25-6.59-2.74-6.59-2.74h-.05a6.83,6.83,0,0,1-1-1.78,5.52,5.52,0,0,1-.24-2.31,9.24,9.24,0,0,1,.72-1.8c1.11-2.14-.53-2.81-.92-2.89-2.45.37-2.15,1.67-2.24,2.19a3.77,3.77,0,0,0,.28,1.44,5.45,5.45,0,0,1-.3,1.83,8.67,8.67,0,0,1-1.51,2.58l-.33.21a9.43,9.43,0,0,0-2.39.26,23.5,23.5,0,0,0-3.33.94c-1.06.36-1.81.67-1.81.67h0c-.23,0-.75-.94-.75-.94l-.76-1.76s0-.09,0-.14a1.21,1.21,0,0,1,0-.18,1.83,1.83,0,0,0-.34-1.83l-.05,0,0,0a1.25,1.25,0,0,0-.8-.34l-.14,0c-1.78.2-1.28.37-2,.77s-.41,1.07-.41,1.6c.24.74.47.63.87,1.05a10.31,10.31,0,0,0,.85.79c.31.59.74,1.94.94,2.41a8.76,8.76,0,0,0-3.72,3,7.73,7.73,0,0,1-1.7-.74c-.49-.23-.84-.72-1.2-.93s.16-.61-.87-.73l-.21-.12a1.5,1.5,0,0,0-.58.15c-.56.16-.75.63-1,1.23a1.07,1.07,0,0,0-.09.63v0a2,2,0,0,0,.08.26,1.77,1.77,0,0,0,.76,1,1.4,1.4,0,0,0,.61,0,2.41,2.41,0,0,0,.58.07c.43.14,1.1.45,1.1.45l1,.77a.91.91,0,0,0-.11.16,31.82,31.82,0,0,0-2.21,3.54l-.06,0a1.08,1.08,0,0,0-.25.14h0a10.2,10.2,0,0,0-1.09-.42c-.18-.1-.34-.19-.44-.26a.8.8,0,0,0-.31-.12,2.4,2.4,0,0,0-1.83-1.15c-1.9.44-1.78,1.75-1.9,2.61.19,1.35,2,1.22,2.45,1.15a17.21,17.21,0,0,1,1.89.42l.09.07a1.3,1.3,0,0,1,.29.64c0,.09,0,.15,0,.15s0,.06,0,.18c-.13.64-.53,2.59-.79,3.73,0,.19-.11.38-.16.58a2.91,2.91,0,0,0,0,.31,17.47,17.47,0,0,0,.33,3.3,3.48,3.48,0,0,1-1.61,2.47,11.54,11.54,0,0,1-3.3,1c-3.06.62-2.19,2.14-2,2.88s1.21.62,2,.34l.25-.1a4.89,4.89,0,0,0,.89-.44,7.66,7.66,0,0,1,2.33-1.11,4.27,4.27,0,0,1,2.76,0,14.59,14.59,0,0,0,2.27,3.31,10.19,10.19,0,0,0,1.78,1.66c0,.07,0,.15,0,.22-.51.75-2.75,4.08-3,4.48a3.25,3.25,0,0,0-1.37,1.16l-.18.16a.56.56,0,0,0,0,.12l0,0c-.76,1.84,1.29,2.34,2.08,2.23s1.2-1.44,1.49-1.87c.55-.52,2.3-2.73,2.77-3.2a9.87,9.87,0,0,1,2.16-.68,16.56,16.56,0,0,0,2.76.86l.06,0,2.62.83.29.13c.6.6.55,1.06.65,2.19a5.16,5.16,0,0,1-.94,2.93.86.86,0,0,0,0,.16,2,2,0,0,0-.1.21.82.82,0,0,0,.2.42A2.07,2.07,0,0,0,355.4,967c1.8-.44,1.79-1.27,1.84-2a5.29,5.29,0,0,1-.19-2.64c.11-.36.23-.73.32-1a2.28,2.28,0,0,0,.13-.74c.05-.11.1-.23.16-.35l0,0a8,8,0,0,1,1-.39c.44-.09.86-.12,1.11-.18a3.66,3.66,0,0,0,1-.12,10.16,10.16,0,0,0,1.13-.36l.21-.07.18-.05c.42-.09,1.6-.33,3-.55l.73-.09s.55,1.73.71,2.36a11.92,11.92,0,0,1,.84,2.89,2,2,0,0,0,1.59,2.13,5.69,5.69,0,0,0,2.1-.82c.78-.67-.3-2.11-.84-2.58a4.67,4.67,0,0,1-.66-.73c-.19-.38-.31-.79-.48-1.13a1.92,1.92,0,0,1-.14-.39c-.05-.28-.1-.57-.17-.91a5.72,5.72,0,0,1,.83-3.1v0a16.16,16.16,0,0,0,1.55-.72c.59-.52,2.88-2.68,2.88-2.68a8.16,8.16,0,0,0,1.36-.37c.35.19,1.71.78,2.48,1.2s1.81,1.47,2.67,2a2.38,2.38,0,0,0,2.5-.67c.81-.82-.22-2-.7-2.32s-1.75-.58-2.36-.79a5.67,5.67,0,0,1-3.19-2.4s0,0,0,0a2.34,2.34,0,0,1,.16-.6c.43-1,1.48-2.59,1.76-3.16l.06-.11a17.8,17.8,0,0,1,3.41-1.29c1.32-.52,1.26,0,1.95.06s1.95.55,2.83.71c1.33,0,1.39-.72,1.63-1.06.69-.9-.58-2.22-1-2.49A13.68,13.68,0,0,0,385.83,941.76Z"/><path class="cls-9" d="M1373.28,251.49a6.18,6.18,0,0,1-5-1.15,1.34,1.34,0,0,1-.72-.82v-.23a7.17,7.17,0,0,0-.54-2.35l-.44-1.77-.32-.62c-.18-.6-.35-1.11-.39-1.23a6.67,6.67,0,0,1,2-.74,14.2,14.2,0,0,1,2.32-.43c1-.4.9-.54,1-1.39-.26-1.92-1.36-1.64-2.1-1.44-.85.67-1.47,1.09-1.56,1.23l-.1.06h0a13.13,13.13,0,0,1-1.35.48,2.6,2.6,0,0,1-1.21.08,11.16,11.16,0,0,0-.64-1,8.34,8.34,0,0,0-2.81-3.13l-.17-.17-.06-.11a3,3,0,0,1,.36-1.39,6.32,6.32,0,0,1,.71-.55,9.14,9.14,0,0,0,2.58-1.94,2.12,2.12,0,0,0-.89-2.29,2,2,0,0,0-2.17.34c-1,.49-.94,1.67-1,2a8.78,8.78,0,0,1-1,1,5.28,5.28,0,0,1-1.16,1h0c-1.34-1.26-6.59-2.74-6.59-2.74h0a6.83,6.83,0,0,1-1-1.78,5.51,5.51,0,0,1-.24-2.31,9.21,9.21,0,0,1,.72-1.79c1.11-2.14-.53-2.82-.92-2.9-2.45.37-2.15,1.67-2.24,2.19a3.86,3.86,0,0,0,.28,1.45,5.4,5.4,0,0,1-.3,1.82,8.67,8.67,0,0,1-1.51,2.58l-.33.22a8.91,8.91,0,0,0-2.39.25,23.08,23.08,0,0,0-3.33.95c-1.06.36-1.81.66-1.81.66l0,0c-.23,0-.75-.94-.75-.94l-.76-1.77s0-.09,0-.14a1,1,0,0,1,0-.18,3.43,3.43,0,0,0,.1-.68,3.11,3.11,0,0,0-.44-1.15l0,0,0,0a1.19,1.19,0,0,0-.8-.33l-.14,0c-1.78.19-1.28.36-2,.76s-.41,1.08-.42,1.6c.25.74.48.63.88,1.06s.58.52.85.79c.31.59.74,1.93.94,2.41-1.2.31-2.52,1.54-3.72,3a7.28,7.28,0,0,1-1.7-.74c-.49-.23-.84-.72-1.2-.93s.16-.61-.87-.72a1.13,1.13,0,0,0-.21-.12,1.34,1.34,0,0,0-.58.15c-.57.15-.75.62-1,1.23a1.06,1.06,0,0,0-.09.63v0a1,1,0,0,0,.08.25,1.74,1.74,0,0,0,.76,1,1.41,1.41,0,0,0,.61,0,3,3,0,0,0,.57.06,11.3,11.3,0,0,1,1.11.46l1,.76-.11.16a32.89,32.89,0,0,0-2.21,3.54l-.06,0a1.66,1.66,0,0,0-.25.14h0l0,0a9.91,9.91,0,0,0-1.09-.43l-.44-.25a.82.82,0,0,0-.31-.13,2.36,2.36,0,0,0-1.83-1.14c-1.9.43-1.78,1.75-1.9,2.6.18,1.36,2,1.23,2.44,1.16a17,17,0,0,1,1.9.42l.09.07a1.28,1.28,0,0,1,.29.63c0,.09,0,.15,0,.15s0,.06,0,.19c-.13.63-.53,2.59-.79,3.72,0,.19-.11.38-.16.58s0,.21,0,.31a17.47,17.47,0,0,0,.33,3.3,3.46,3.46,0,0,1-1.61,2.47,11.54,11.54,0,0,1-3.3,1c-3.06.62-2.19,2.14-2,2.89s1.21.61,2,.33a1.84,1.84,0,0,0,.25-.09,5.56,5.56,0,0,0,.89-.45,7.66,7.66,0,0,1,2.33-1.11,4.19,4.19,0,0,1,2.76,0,14.81,14.81,0,0,0,2.27,3.31A10,10,0,0,0,1332,265c0,.08,0,.15,0,.22-.51.75-2.75,4.08-3,4.48a3.32,3.32,0,0,0-1.37,1.16l-.18.16a.56.56,0,0,0,0,.12l0,0c-.76,1.85,1.29,2.35,2.08,2.24s1.2-1.45,1.49-1.88c.55-.52,2.3-2.73,2.77-3.19a9.31,9.31,0,0,1,2.16-.68,17.24,17.24,0,0,0,2.76.86h.06l2.62.84.29.12c.59.6.55,1.07.65,2.19a5.16,5.16,0,0,1-.94,2.93.85.85,0,0,0,0,.16,2,2,0,0,0-.1.21.82.82,0,0,0,.2.42,2.05,2.05,0,0,0,1.52,1.33c1.8-.43,1.78-1.26,1.84-2a5.29,5.29,0,0,1-.19-2.64c.11-.36.23-.72.32-1a2.28,2.28,0,0,0,.13-.74c0-.11.1-.23.16-.35l0,0a8.21,8.21,0,0,1,1-.4c.44-.09.86-.12,1.11-.18a3.28,3.28,0,0,0,1-.12,8.42,8.42,0,0,0,1.13-.36l.21-.06.18-.06c.42-.09,1.6-.33,3-.55l.73-.09s.55,1.73.71,2.36a11.92,11.92,0,0,1,.84,2.89,2,2,0,0,0,1.59,2.14,6.1,6.1,0,0,0,2.1-.82c.78-.68-.3-2.12-.84-2.58a5.18,5.18,0,0,1-.66-.74c-.19-.38-.31-.79-.48-1.13a1.92,1.92,0,0,1-.14-.39c0-.27-.1-.57-.17-.9a5.76,5.76,0,0,1,.83-3.11h0c.06,0,1-.42,1.55-.73.59-.52,2.88-2.67,2.88-2.67a8.65,8.65,0,0,0,1.36-.38c.35.19,1.71.79,2.48,1.2s1.8,1.47,2.67,2a2.38,2.38,0,0,0,2.5-.66c.81-.82-.22-2-.7-2.33s-1.75-.57-2.36-.78a5.71,5.71,0,0,1-3.19-2.41.09.09,0,0,1,0-.05,2,2,0,0,1,.16-.6c.43-1,1.48-2.59,1.76-3.16l.06-.1a17.9,17.9,0,0,1,3.41-1.3c1.32-.51,1.26,0,1.94.06s2,.55,2.84.72a1.52,1.52,0,0,0,1.63-1.07c.69-.89-.58-2.22-1-2.49A13.7,13.7,0,0,0,1373.28,251.49Z"/></g></g></svg>