<svg xmlns="http://www.w3.org/2000/svg" xmlns:xlink="http://www.w3.org/1999/xlink" viewBox="0 0 1366.17 764.88"><defs><style>.cls-1{opacity:0.5;fill:url(#未命名漸層_16);}</style><linearGradient id="未命名漸層_16" x1="683.08" y1="767.77" x2="683.08" gradientUnits="userSpaceOnUse"><stop offset="0" stop-color="#001c2b"/><stop offset="1" stop-color="#00060a"/></linearGradient></defs><title>nochina</title><g id="圖層_2" data-name="圖層 2"><g id="世界地圖"><path class="cls-1" d="M1366.17,0H0V764.88H1366.17ZM942.9,239.41l-5.45,31.19L922.3,273l5.58,22.33-64.55,53.91.5-1.8-12.74,21.23-6.91,8,22,69.8a65.43,65.43,0,0,1-7.21,54.74l-22.71,35.69-67.9,31.33c-5.95,2.72-34.22-18.88-40.33-21.23L716.63,548,680,563.8a14.12,14.12,0,0,1-16.4-3.88l-31.5-37.41L644.88,493s-36.67-19.93-40.66-19.93-67.76,9.56-67.76,9.56l-81.31-57.39,9.57-12.76-9.57-35.87s-39.86-38.27-30.29-47,29.49-11.95,29.49-11.95l12.36.4,37.87-11.56,5.58-28.7,48.35-29a16.85,16.85,0,0,1,20.74,2.69l19.39,19.94-8.76,19.13,40.65,15.15,14.35,19.13,63.78,16.74,59.79-30.29,61.38-39.86L800.09,259a5.76,5.76,0,0,1-1.59-9.65l19.37-17L830,208.1A18.66,18.66,0,0,1,855.54,200l54,29.13,19.14-.65A10.11,10.11,0,0,1,942.9,239.41Z"/></g></g></svg>