<svg xmlns="http://www.w3.org/2000/svg" xmlns:xlink="http://www.w3.org/1999/xlink" viewBox="0 0 382.99 758.11"><defs><style>.cls-1,.cls-29{fill:none;}.cls-2{opacity:0.95;}.cls-3{fill:url(#未命名漸層_408);}.cls-4{fill:url(#未命名漸層_3);}.cls-5{fill:url(#未命名漸層_434);}.cls-6{fill:url(#未命名漸層_4);}.cls-7{fill:url(#未命名漸層_3-2);}.cls-8{opacity:0.45;fill:url(#未命名漸層_7);}.cls-9{fill:url(#未命名漸層_440);}.cls-10{fill:url(#未命名漸層_4-2);}.cls-11{fill:url(#未命名漸層_4-3);}.cls-12{fill:url(#未命名漸層_441);}.cls-13{fill:url(#未命名漸層_441-2);}.cls-14{fill:url(#未命名漸層_408-2);}.cls-15{fill:url(#未命名漸層_389);}.cls-16{fill:#ffb655;}.cls-17{fill:#ff8a55;opacity:0.34;}.cls-18{fill:#ffc715;}.cls-19{fill:#fff;}.cls-20{clip-path:url(#clip-path);}.cls-21{fill:#bc682f;}.cls-22{clip-path:url(#clip-path-2);}.cls-23{fill:#703913;}.cls-24{fill:url(#未命名漸層_395);}.cls-25{fill:#f48282;}.cls-26{fill:#ebf0f3;}.cls-27{fill:url(#未命名漸層_3-3);}.cls-28{fill:#f1f0e3;}.cls-29{stroke:#f9f9f9;stroke-linecap:round;stroke-miterlimit:10;}.cls-30{fill:url(#未命名漸層_40);}.cls-31{fill:#86dad8;}</style><linearGradient id="未命名漸層_408" x1="57.77" y1="320.44" x2="36.1" y2="283.78" gradientUnits="userSpaceOnUse"><stop offset="0" stop-color="#ffbb94"/><stop offset="0.27" stop-color="#ffc99e"/><stop offset="0.64" stop-color="#ffd5a7"/><stop offset="1" stop-color="#ffd9aa"/></linearGradient><linearGradient id="未命名漸層_3" x1="-2998.46" y1="469.12" x2="-3076.38" y2="337.32" gradientTransform="matrix(-1, 0.08, 0.08, 1, -2934.92, 105.26)" gradientUnits="userSpaceOnUse"><stop offset="0" stop-color="#f2e8da"/><stop offset="0.02" stop-color="#f3e9db"/><stop offset="0.21" stop-color="#faeee8"/><stop offset="0.47" stop-color="#fef1f0"/><stop offset="1" stop-color="#fff2f2"/></linearGradient><linearGradient id="未命名漸層_434" x1="62.12" y1="53.01" x2="58.72" y2="3.34" gradientTransform="translate(180.58 105.26) rotate(4.78)" gradientUnits="userSpaceOnUse"><stop offset="0" stop-color="#d47100"/><stop offset="0.08" stop-color="#da8019"/><stop offset="0.23" stop-color="#e59b45"/><stop offset="0.38" stop-color="#efb169"/><stop offset="0.54" stop-color="#f6c386"/><stop offset="0.69" stop-color="#fbcf9a"/><stop offset="0.85" stop-color="#fed7a6"/><stop offset="1" stop-color="#ffd9aa"/></linearGradient><linearGradient id="未命名漸層_4" x1="-39.59" y1="291.12" x2="42.34" y2="215.15" gradientTransform="translate(180.58 105.26) rotate(4.78)" gradientUnits="userSpaceOnUse"><stop offset="0" stop-color="#f2e8da"/><stop offset="0.18" stop-color="#f6ebe2"/><stop offset="0.59" stop-color="#fdf0ee"/><stop offset="1" stop-color="#fff2f2"/></linearGradient><linearGradient id="未命名漸層_3-2" x1="253.52" y1="329.32" x2="51.25" y2="158.57" gradientTransform="translate(180.58 105.26) rotate(4.78)" xlink:href="#未命名漸層_3"/><linearGradient id="未命名漸層_7" x1="146.93" y1="326.54" x2="6.26" y2="207.8" gradientTransform="translate(180.58 105.26) rotate(4.78)" gradientUnits="userSpaceOnUse"><stop offset="0" stop-color="#f2e8da"/><stop offset="0.6" stop-color="#f3e9dc"/><stop offset="0.81" stop-color="#f7ece3"/><stop offset="0.97" stop-color="#fdf1ee"/><stop offset="1" stop-color="#fff2f2"/></linearGradient><linearGradient id="未命名漸層_440" x1="65.59" y1="85.45" x2="62.17" y2="35.48" gradientTransform="translate(180.58 105.26) rotate(4.78)" gradientUnits="userSpaceOnUse"><stop offset="0" stop-color="#002b5d"/><stop offset="1" stop-color="#002155"/></linearGradient><linearGradient id="未命名漸層_4-2" x1="37.03" y1="73.15" x2="-17.66" y2="74.15" xlink:href="#未命名漸層_4"/><linearGradient id="未命名漸層_4-3" x1="75.53" y1="102.88" x2="89.02" y2="34.41" xlink:href="#未命名漸層_4"/><linearGradient id="未命名漸層_441" x1="74.47" y1="26.54" x2="75.35" y2="67.36" gradientTransform="translate(180.58 105.26) rotate(4.78)" gradientUnits="userSpaceOnUse"><stop offset="0" stop-color="#006b94"/><stop offset="1" stop-color="#002155"/></linearGradient><linearGradient id="未命名漸層_441-2" x1="31.11" y1="52.95" x2="53.73" y2="52.95" xlink:href="#未命名漸層_441"/><linearGradient id="未命名漸層_408-2" x1="9.17" y1="-54.27" x2="99.97" y2="-54.27" gradientTransform="translate(184.11 133.81) rotate(5.7)" xlink:href="#未命名漸層_408"/><linearGradient id="未命名漸層_389" x1="68.14" y1="-120.86" x2="49.64" y2="-91.67" gradientTransform="translate(184.11 133.81) rotate(5.7)" gradientUnits="userSpaceOnUse"><stop offset="0" stop-color="#ffdb55"/><stop offset="1" stop-color="#ffaf55"/></linearGradient><clipPath id="clip-path"><path class="cls-1" d="M239,74.14A9.61,9.61,0,0,1,247.68,70c2.06.2,6.89,3.66,7.81,4.75s2,1.19.72,3.07a7,7,0,0,1-6.57,3.37l-3.08-.3a10.16,10.16,0,0,1-4.11-.39,12.68,12.68,0,0,1-3.91-2.38C237.62,77,239,74.14,239,74.14Z"/></clipPath><clipPath id="clip-path-2"><path class="cls-1" d="M206.7,75a5.15,5.15,0,0,1,2.46-3.77c1.13-.89,3.18-.69,5.24-.49a7.93,7.93,0,0,1,4.93,2.47,15.08,15.08,0,0,1,1.75,3.17c.43,1.38,1.3,1.43-.21,2-2.15.79-5.44,2.48-7.5,2.28s-6.16-.59-6.06-1.58A22.18,22.18,0,0,0,206.7,75Z"/></clipPath><linearGradient id="未命名漸層_395" x1="-321.38" y1="1085.79" x2="-308.02" y2="1079.51" gradientTransform="translate(440.4 -1016) rotate(-5.35)" gradientUnits="userSpaceOnUse"><stop offset="0" stop-color="#ffbb94"/><stop offset="1" stop-color="#ffd9aa"/></linearGradient><linearGradient id="未命名漸層_3-3" x1="221.23" y1="251.62" x2="133.98" y2="104.03" gradientTransform="translate(180.58 105.26) rotate(4.78)" xlink:href="#未命名漸層_3"/><linearGradient id="未命名漸層_40" x1="202.74" y1="109.71" x2="269.18" y2="109.71" gradientUnits="userSpaceOnUse"><stop offset="0" stop-color="#abfff0"/><stop offset="1" stop-color="#8fffe9"/></linearGradient></defs><title>over_doctor</title><g id="圖層_2" data-name="圖層 2"><g id="預防方法"><g class="cls-2"><polygon points="179.51 384.88 177.61 517.49 176.08 624.6 175.2 686.4 174.17 758.11 219.56 758.11 230.24 583.94 237.35 515.3 234.69 467.25 247.14 524.73 251.59 631.99 256.04 694.62 257.64 757.95 303.48 757.95 303.21 633.7 309.44 510.15 314.78 445.8 319.23 379.73 179.51 384.88"/><path class="cls-3" d="M69,282.09a47.72,47.72,0,0,1-13.88,1c-6.91-.38-17.57-2.05-19.2-2.05H28.43c-1.68,0-7.12,2.39-6.4,3.08.46.45,2.22,3.08,5.33,3.09,4.05,0,10.67,1.48,10.67,2.06-7.47,1-34.14,1-34.14,3.08s7.47,4.12,12.8,4.12a87.94,87.94,0,0,1,11.74,1,85.54,85.54,0,0,1-9.6,1c-1.28,0-11-.7-16,0-3.35.46-3.22,2-2.13,3.08,2.13,2.06,7.46,2.06,9.6,2.06s18.14,1,18.14,1l-13.87,3.09s-12.81,0-12.81,2.05S10.29,313,12.42,313H25.23c1.06,0,7.47-1,7.47-1L27.36,314l-10.67,1s-6.4,0-6.4,3.08c0,2.06,8.54,1,10.67,1,1.51,0,9.6-1,9.6-1L50.84,314l17.07-3.09,17.07-1V282.09Z"/><path class="cls-4" d="M194.61,178.6c-5.32-13.56-6.67-30.33-15.69-25.71-6.95,3.56-12.43,12-19.2,41.51-1.13,4.95-14.07,49.2-16.7,55.77-4.45,11.15-22.24,12-28.47,14.58-25.32,10.47-53.4,9.44-62.3,12-4.26,1.23,0,8.58,1.78,18.87,0,0,4.48,17.2,8,23.17s36.49,0,51.62-5.15c16.16-5.5,31.63-9.15,39.15-14.58,7.12-5.15,19.58-12.87,23.14-22.31,2.47-6.55,22.88-37.58,23-48.57s5.47-32.41,5.47-32.41S195.35,180.47,194.61,178.6Z"/><path class="cls-5" d="M211.55,145.49C218.07,130,263.93,111.64,264,112.7s1.51,8.17,1.51,8.17L250.9,181.63l-26.67,8.84-8-27.61Z"/><path class="cls-6" d="M288.75,137.73c6.17.5,9.26.75,28.64,4.31s31.63,5.55,38,16.05S366.93,192,366.93,192l-21.27,6.28-13,29.92L227.72,255l-.15,184L207.1,504.14l-12.46,16.3-41.83-6.86,2.67-36,.89-8.58,5.34-46.33L172.39,378l6.23-62.63,2.67-89.24V152.35l29.37-9.43,23.8,59.36Z"/><path class="cls-7" d="M293.28,136.81c6.17.49,9.26.74,28.63,4.3s31.64,5.55,38,16,11.57,33.9,11.57,33.9l-21.27,6.27-12.95,29.93-10,56.37-.89,43.76,4.45,24.88,5.33,50.63,8,115.83L275.62,523l-52.5,1.71-4.45-6-3.56-10.3-2.67-18.87L215.76,387l1.12-43.82,1.5-58.43-7.86-37.64,4.95-16L239,201.35Z"/><polygon class="cls-8" points="225.79 518.73 216 513.58 214.22 496.42 212.44 486.98 213.33 414.91 214.59 369.69 218.38 284.75 210.52 247.11 215.47 231.15 227.28 216.19 230.85 315.19 227.25 362.69 222.23 477.54 225.79 518.73"/><path class="cls-9" d="M214.54,182.7c1.11,11.07-.35,16-.43,16.94s1,12.07,1,12.07l6.26,11.49,32.25-37.35s14.49-23.81,14.67-25.79-.77-15.05-.77-15.05L234.88,166.5l-6.62,13.31s.77-8.93-5.31-10.42-9.52-9.76-9.52-9.76l-3-1.26Z"/><path class="cls-10" d="M208.64,143.26c-.38,4.29,6.59,43.49,6.24,47.45s-1.66,19.47-.32,21.76,5.8,10.65,5.8,10.65l-30.26-33.4,7.47-26.37-10-3.81,14.15-19.84s3.17-.74,5.15.42A3.5,3.5,0,0,1,208.64,143.26Z"/><path class="cls-11" d="M271.4,124.35c2.92,2.23,8.66,7.69,12.6,10a45.27,45.27,0,0,0,10,3.81l2.82,15.21L280.31,165,282,181.14s-19.81,25.38-30.7,31.49-41.19,18.52-41.19,18.52L243.43,196l15.1-30.75Z"/><path class="cls-12" d="M264.8,116.82s4.12.33,6.6,7.53,2.74,16.2,2.74,16.2a65.14,65.14,0,0,1-7.55,15.37c-4.71,6.62-16.12,30.67-17.24,31.58s-15-18.19-15-18.19l-6.09,10.5,10-20.17s19.47-21.41,20.75-24.3S264.8,116.82,264.8,116.82Z"/><path class="cls-13" d="M228.26,179.81c.17-2-5-14.39-5-14.39l-6.6-19.51L210,139.38s-1.63,6.86-1.72,7.85,6.25,35.47,6.25,35.47l5.15-11.58s5,2.4,5.83,4.47A18.27,18.27,0,0,0,228.26,179.81Z"/><path class="cls-14" d="M204.81,50.47A26.93,26.93,0,0,1,203,58.3c-1.33,2.87-2.67,5.74-3,8.72a8.82,8.82,0,0,0,2.36,7.23c1.85,2.18,6,12.58,5.76,14.56S210.37,97,209,99.9s-1.43,13.87-.61,15.95.82,12.08,4.73,14.46,10.79,6,18.08,5.74,25.17-2.58,27.43-4.36,9.14-8.13,10.68-13,1.64-5.84,3.29-11.69,3.08-9.71,3.08-9.71,8.73-4.16,8.93-6.14,5-8.52,5.24-10.5-.51-5-.41-6-.31-7-.31-7-10.48-19-19.32-23.87-8.73-5.84-21-8-9.86-4.95-19.42-2.87-15.4,8.52-17.66,10.3A81.71,81.71,0,0,0,204.81,50.47Z"/><path class="cls-15" d="M205.05,50.87c-9.15-1.88-13.67-8.32-11-14.07s7.29-20.3,10.89-25S209.15,1.24,218.6.15s20.34,4,22.09,7.13,4,1.39,14.07,4.36,11.51-.9,23,8.21,12.94,15.25,14.59,19.41,4.11,10.4,3.49,16.35S290,72.05,290,72.05s-3.7-4.36-5.65-5.54-5.14-.5-6.27.39-3.18,10.7-3.18,10.7l-2.05-.2s.71-16.93-2.06-20.2-3.09-10.3-11.1-13.08-10.89-5-12-4.15-2.36,2.77-6.47,2.37a15.3,15.3,0,0,1-6.06-1.58s-2.37,2.77-3.39,2.68l-3.09-.3a5.32,5.32,0,0,1-4.62,4.56,24.09,24.09,0,0,1-7.29.29c-2.16.8-2.16.8-4.11-.39a8.15,8.15,0,0,0-3-1.29c-1.23,1.88-4.42,2.58-4.42,2.58Z"/><path class="cls-16" d="M295.9,52a19.35,19.35,0,0,1,0,3.57c-.13,1.28-24.14,2.68-25.06,1.59-1.22-1.44-2-3.59-3.09-5.8C266.27,48.58,295.53,47.26,295.9,52Z"/><path class="cls-17" d="M294.46,61.38A94.89,94.89,0,0,1,290,72.05s-3.7-4.36-5.65-5.54-5.14-.5-6.27.39-3.18,10.7-3.18,10.7l-2.05-.2a109.39,109.39,0,0,0-.36-14.12C272.18,60.54,294.62,60.9,294.46,61.38Z"/><path class="cls-18" d="M208.24,90.19c-1.41,2.61-.56,6.44-1.48,8.76-.76,1.91-1.41,3.61-2,4.91-1.34,2.87-3.9,7.63-4.31,11.59s-.93,8.92,1.85,12.18,11.4,10.11,14.38,11.39,10.89,5,18.08,5.74,16.85-2.38,20.24-5,15.1-15.55,16.33-17.44,3.39-12.68,3.49-13.67-.28-6.54-.09-8.76,1.43-4.11.81-8.17.31-13,.31-13l-3-1.29s-2.57,14.76-3,18.72-3.29,11.69-8.93,16.15-12.43,9.81-17.67,10.31-16.54-.6-19.63-.89-7.91-3.77-8.73-5.85-3.6-5.34-4.21-9.4c-.38-2.5-.88-7.64-1.2-11.24A22.71,22.71,0,0,0,208.24,90.19Z"/><path class="cls-16" d="M212.07,111.14c-2.9.15-7.63,5.7-8.86,7.58s-1.85,7.82-.92,8.91.53.6.53.6,1-5.45,2.24-7.33a31.19,31.19,0,0,1,4.72-5.55l3.39-2.67-.86-1.59Z"/><path class="cls-16" d="M218.58,119.53a17.43,17.43,0,0,0-5.71,6.12c-1.34,2.87-1.77,9.73-1.77,9.73l1.21.9s.64-3,1.07-5.58a14.9,14.9,0,0,1,1.44-3.86c1.23-1.88,2.57-4.76,3.7-5.65a6.2,6.2,0,0,1,1.28-.91Z"/><path class="cls-16" d="M229.3,122.19c-1.74,1.87-3.28,6.73-3.38,7.72s-1.34,2.87-.72,6.93c.15,1,1.06,6,1.06,6l2.14.66s-1.35-4.49-1.25-5.48-.31-7,1-9.91,2.91-5.76,2.91-5.76Z"/><path class="cls-16" d="M241.72,122.67a30.36,30.36,0,0,0-.7,11.69c.62,4.06,2.08,9.88,2.08,9.88l1.63-.35s-1.14-4.28-1.76-8.34a44,44,0,0,1,0-10c.1-1,.55-3,.55-3Z"/><path class="cls-16" d="M254.32,117.31c.46,4.37.16,7.34,1.8,11.5s3,6.95,3,6.95l1-1a31.48,31.48,0,0,1-2.88-6.84c-.72-3.07-1.44-6.14-1.23-8.12a10.11,10.11,0,0,0-.26-3.53Z"/><path class="cls-16" d="M268.19,126a48.55,48.55,0,0,1-3.85-6.42c-.83-2.08-2.62-8-2.62-8l.59-.54s1.41,4.45,2.23,6.53,4.23,7.74,4.23,7.74Z"/><path class="cls-16" d="M201.61,64.06c4.31-1.59,6.57-3.37,8.63-3.18l7.19.7c1,.09,4,1.38,5,1.48s-.2,2-.2,2a4.41,4.41,0,0,1-1.13.89c-.7.23-2.36-.22-3.09-.29-2-.2-8.42,1.19-9.45,1.09a8,8,0,0,0-4.31,1.58c-1.13.9-3.08-.29-3.08-.29a3.42,3.42,0,0,1-.83-2.08A3.51,3.51,0,0,1,201.61,64.06Z"/><path class="cls-16" d="M235.72,63.34c3.08.29,4.26-2.18,7.35-1.88l9.74.93c3.08.3,6.11,2,6.82,3.25.58,1-.83-5.12-3.81-6.4a45.74,45.74,0,0,0-7.8-2.48c-5.22-1.36-6.19-.6-7.08-.68a9.55,9.55,0,0,0-4.6,1.28C234.08,59.14,235.72,63.34,235.72,63.34Z"/><path class="cls-19" d="M239,74.14A9.61,9.61,0,0,1,247.68,70c2.06.2,6.89,3.66,7.81,4.75s2,1.19.72,3.07a7,7,0,0,1-6.57,3.37l-3.08-.3a10.16,10.16,0,0,1-4.11-.39,12.68,12.68,0,0,1-3.91-2.38C237.62,77,239,74.14,239,74.14Z"/><g class="cls-20"><ellipse class="cls-21" cx="248.2" cy="75.03" rx="5.16" ry="4.98"/></g><path class="cls-19" d="M206.7,75a5.15,5.15,0,0,1,2.46-3.77c1.13-.89,3.18-.69,5.24-.49a7.93,7.93,0,0,1,4.93,2.47,15.08,15.08,0,0,1,1.75,3.17c.43,1.38,1.3,1.43-.21,2-2.15.79-5.44,2.48-7.5,2.28s-6.16-.59-6.06-1.58A22.18,22.18,0,0,0,206.7,75Z"/><g class="cls-22"><ellipse class="cls-21" cx="216.04" cy="74.94" rx="5.16" ry="4.98"/><ellipse class="cls-23" cx="216.04" cy="74.94" rx="3.1" ry="2.99"/></g><path class="cls-24" d="M231.16,81.69c1.32,2.88,2.09,10.81,2.38,13.79s-3.72,6.79-5.78,6.59a6.86,6.86,0,0,1-3-1.28c-1.55-1.09-2.76-1.06-2.88-2.28-.05-.6-.06-5.41.72-6.93s2.6-2.75,2.95-3.38c1.77-3.16,1.19-9.11,3.35-8.3S231.16,81.69,231.16,81.69Z"/><path class="cls-25" d="M220.32,108.42l1.32.12,5.76.56,6.2.6c2.3.22,7.12-.18,14.26.51.88.08.34,1.4-1.15,2.47-.4.29-.6.47-1,.77-1,.77-1.86.68-4.6,1.28-2.25.49-10.29-.13-13.37-.42a17.77,17.77,0,0,1-5.87-1.67C221.39,112.38,220.32,108.42,220.32,108.42Z"/><path class="cls-26" d="M221.2,108.5l.44,0,5.76.56,6.2.6c2.3.22,8.06-.09,15.23-.26.89,0-.63,2.17-2.12,3.24-.27.19-.44.34-.64.5s-22.83-1.32-23.36-2A8.08,8.08,0,0,1,221.2,108.5Z"/><ellipse class="cls-23" cx="248.2" cy="75.03" rx="3.1" ry="2.99"/><path class="cls-27" d="M336.36,176c5.32-13.55,6.67-30.32,15.7-25.7,6.94,3.56,12.42,12,19.19,41.5,1.14,5,7.19,24.56,7.62,31.58.3,5,2,32.06,3.84,58.18,1.9,26.5-6.34,38.82-7.42,49.24-1.78,17.16-51.07,73.24-44.49,79.8,0,0-36.11-29.3-34.71-36,.89-4.29,0,.86,14.24-24.88,11.72-21.2,8-22.31,19.58-40.33,6.1-9.51,7.88-34.4,6.22-41.18-3.56-14.59-4-31.57-4.07-42.57s-5.48-32.4-5.48-32.4S335.62,177.89,336.36,176Z"/><polygon class="cls-28" points="285.41 377.15 293.42 368.57 333.46 411.48 327.24 419.2 285.41 377.15"/></g><path class="cls-29" d="M276.25,97.26s-3.55,15-5.77,18.26"/><path class="cls-29" d="M270.48,91.79s.34-22.24,7.61-24.89"/><path class="cls-29" d="M207.58,90.14s-.26-4.64-1.06-5.61"/><path class="cls-30" d="M205,93.44s6.83-2.3,11.58-2.65c1.73-.2,5.62-3.07,11-4.65,5.52.92,21.41,3.4,27.35,3.47,1.42,0,6.7,1.22,6.7,1.22s5.8,2,7.07,2.61c1.07,8.57.37,20.23,0,21s-19.41,17.16-22.36,18c-3.66.63-23,1.6-27.46.12-2.17-1.45-13.51-14.52-14.68-16.13-.42-2.06-2.27-15.68-.84-19.7C203.85,95.5,203,95.3,205,93.44Z"/><path class="cls-31" d="M202.93,100.77s8.24-1.34,11.5-1.14a50.47,50.47,0,0,0,5.54-.71c1-.23,7-2.64,8.4-2.64s30,1.88,40.4,5.18c-1.69.17-16.89-1-19-1.14s-18-1.75-20.9-1.59c-3.19.33-10.07,2.22-12,2.3S202.93,100.77,202.93,100.77Z"/><path class="cls-31" d="M203,107.5s4,.28,7.11.39C213,108.15,226.78,109,229,109s18.08-.45,21.86-.9,14.34-1.65,17.1-1.28c-2,.41-22.1,3.44-26,3.68-2.84.11-11.46.33-13.63,0-2.09,0-4.44-.41-6.72-.59s-8.07-.86-10.2-.75C209,108.81,205,108.92,203,107.5Z"/><path class="cls-31" d="M204.13,115.06a13.59,13.59,0,0,1,5.34.34c2,.78,10,7.68,18.79,7.15,2.2,0,15.45-1.45,16.58-1.6s4.71-.63,5.73-1.36c1-.35,9.53-5.48,16.29-5-1.74.49-9.33,1.68-15.27,5.92-1.28.58-2.45.78-5.63,1.17-1.53.29-13.65,3.08-17.9,3.27-1.9-.14-10.53-2.47-15.39-6.32C211.59,118.34,210.27,115.45,204.13,115.06Z"/></g></g></svg>