<svg xmlns="http://www.w3.org/2000/svg" viewBox="0 0 279.94 262.73"><defs><style>.cls-1{fill:#eff2f4;opacity:0.15;}</style></defs><title>p1_shade</title><g id="圖層_2" data-name="圖層 2"><g id="拼圖"><path class="cls-1" d="M61.27,94H46.69S13.62,70.4,0,109.06c0,4.13,10.94,42.31,48.14,14.59H61.27s7.3,54.71-2.91,76.35l.24,4.13s36.23-17.51,77.57-11.43c3.4,2.92,11.67,3.89,11.67,3.89v15.06s-39.39,35.27,14.1,51.08c5.59-.49,48.87-14.62,16.05-51.08-.73-6.06-1.46-13.6-1.46-13.6s44.5-9.48,91.43.49c1.94-3.89,16.29-40.37,10.69-72.46-2.91-1.22-11.42-2.19-19-2.43-1.22,3.16-35.26,28.93-46.69-12.65.25-4.86,18.73-41.82,45.72-13.13,5.83.49,17,0,17,0s6.32-57.63-9.73-84.62c-1.7-1.7-40.12-27-90-2.91.49,5.83.49,9.72.49,9.72s31.61,50.82-13.62,50.58c-5.1-.49-43.76-5.84-14.59-50.09.49-3.41-1-12.16-1-12.16S93.61-7.9,54,11.31C53.49,18.36,73.68,76.23,61.27,94Z"/></g></g></svg>