<svg xmlns="http://www.w3.org/2000/svg" viewBox="0 0 319.08 309.28"><defs><style>.cls-1{fill:#eff2f4;opacity:0.15;}</style></defs><title>p2_shade</title><g id="圖層_2" data-name="圖層 2"><g id="拼圖"><path class="cls-1" d="M53,59.8s68,22,92.61,4.86c4.36-2.83,5.64-8.47,3.08-13.86-3.59-2.31-37.89-33.87,15.18-50.8,4.06.51,42.55,7.44,11,49.26.26,7.7.51,14.88.51,14.88s44.39,15.65,90.32-4.62c.51,6.93-16.42,48.24-4.62,83.65,8.46.25,15.39,0,15.39,0s38.74-35.67,42.59,11.29c.26,5.64-3.08,38.23-43.1,15.9-5.39.26-16.42-.51-16.42-.51s-6.67,55.42,3.08,76c-9,0-62.35-15.91-84.16,4.1-.26,5.65-.51,8.3-.51,8.3s37.46,35.79-16.42,51.08c-4.62-.11-50.55-14.81-13.86-51.08.77-4.19-.51-11.38-.51-11.38S140.81,227,55,245.08c2.19-5.38,19.25-55.06,10.7-72.46-5.05-1.2-19-2.43-19-2.43S14.48,202.2,0,157.55c4.4-9.67,19.44-38.57,45.71-13.13,7,.21,17,0,17,0S68.41,79.06,53,59.8Z"/></g></g></svg>