<svg xmlns="http://www.w3.org/2000/svg" viewBox="0 0 236.37 216.53"><defs><style>.cls-1{fill:#eff2f4;opacity:0.15;}</style></defs><title>p3_shade</title><g id="圖層_2" data-name="圖層 2"><g id="拼圖"><path class="cls-1" d="M223.83,7.1S165.75-3.23,132.4,6.61c.59,5.76,1.46,13.61,1.46,13.61s36.53,35.24-16.05,51.07C113,69.74,67.08,57.8,103.71,20.22V5.15S99.25,5,92,1.26c-6-.71-42.26-5.86-77.57,11.43-3.58,4.7-19,38.05-13.14,78.17,4.43,2.1,6.06,11.19,19.59,4.2,3-3.5,36.39-19.83,43.38,15.39.24,4.43-6.29,36.85-42.45,14.93-5.13-.23-21.83-.47-21.83-.47s-1,49.92,10.64,81.17c6.76,2.34,32.65,15.16,87.7,7,3.73-3.26,7.93-7.93,7.93-7.93v-9.33s-40.82-35.45,13.06-48.52c5.13,0,43.15,5.84,13.53,49l.23,12.13s27.06,20.52,93.07-3.74c.7-7.46,19.13-39.88,4.66-75.1-4-2.33-7.46-5.13-19.59-3.73-2.56,3-42.77,18.48-42.37-17.59,2.49-5.51,13.45-42.13,45.64-9.47,6.06.47,14.92.47,14.92.47S240.6,43,223.83,7.1Z"/></g></g></svg>