<svg xmlns="http://www.w3.org/2000/svg" viewBox="0 0 280.07 217.66"><defs><style>.cls-1{fill:#eff2f4;opacity:0.15;}</style></defs><title>p4_shade</title><g id="圖層_2" data-name="圖層 2"><g id="拼圖"><path class="cls-1" d="M55,7.45s78.42-17.87,92.2,1.74a83.91,83.91,0,0,1,.52,11.38s-39.57,35.57,13.85,51.08c8.33-2.81,49.91-16.16,16.42-51.08.3-4.1.52-8.3.52-8.3s16.88-20,84.15-4.1C264,14.28,285.05,48.12,279,89.32c-2.82,3-6.5,11.71-6.5,11.71H261.62s-33.18-38.17-46.84,9.55c.21,5.42,13,41,46.41,13.88,6.29.21,12.14,0,12.14,0s15,49.23-3.9,81.54c-6.51,1.95-72.65,20.82-90.65,6.07-2.61-3.9-2.17-14.31-2.17-14.31s33.18-34.7-17-48.58c-6,.65-40.66,12.14-6.4,49.88,0,3,.44,13,.44,13s-55.48,16.08-96.27-7c2-6.85,14.14-44.65,4.66-75.11-4.18-2.32-5.43-4.58-19.59-3.73C37.16,128.93-1.5,144.61.05,108.62,2.13,103.57,13.66,66,45.69,99.14c5.35.29,14.92.47,14.92.47S71.32,37.28,55,7.45Z"/></g></g></svg>