<svg xmlns="http://www.w3.org/2000/svg" xmlns:xlink="http://www.w3.org/1999/xlink" viewBox="0 0 330.78 330.78"><defs><style>.cls-1,.cls-7{fill:#fff;}.cls-1{stroke:#94d9f7;stroke-width:6px;}.cls-1,.cls-17,.cls-6,.cls-8{stroke-miterlimit:10;}.cls-2{fill:#cce3f2;opacity:0.55;}.cls-3{fill:url(#未命名漸層_83);}.cls-4{fill:url(#未命名漸層_72);}.cls-5{fill:url(#未命名漸層_83-2);}.cls-17,.cls-6,.cls-8{fill:none;}.cls-6{stroke:#f9f9f9;}.cls-6,.cls-8{stroke-linecap:round;}.cls-8{stroke:#757575;}.cls-9{fill:#757575;}.cls-10{fill:url(#未命名漸層_10);}.cls-11{fill:#686161;}.cls-12{fill:#afb6ba;}.cls-13{fill:url(#未命名漸層_10-2);}.cls-14{fill:#59bac2;}.cls-15{fill:url(#未命名漸層_72-2);}.cls-16{fill:#848476;}.cls-17{stroke:#070707;}.cls-18{fill:#070707;}.cls-19{fill:#cbfff6;}.cls-20{fill:url(#未命名漸層_40);}.cls-21{fill:#86dad8;}</style><linearGradient id="未命名漸層_83" x1="251.98" y1="176.27" x2="262.99" y2="176.27" gradientUnits="userSpaceOnUse"><stop offset="0" stop-color="#020202"/><stop offset="0.7" stop-color="#333"/></linearGradient><linearGradient id="未命名漸層_72" x1="180" y1="176.52" x2="305.23" y2="176.52" gradientUnits="userSpaceOnUse"><stop offset="0" stop-color="#f4d8a2"/><stop offset="0.85" stop-color="#f4d198"/><stop offset="1" stop-color="#f4cc90"/></linearGradient><linearGradient id="未命名漸層_83-2" x1="171.16" y1="105.37" x2="310.75" y2="105.37" xlink:href="#未命名漸層_83"/><linearGradient id="未命名漸層_10" x1="121.11" y1="202.99" x2="140.34" y2="202.99" gradientUnits="userSpaceOnUse"><stop offset="0" stop-color="#d3d3d9"/><stop offset="1" stop-color="#cacacc"/></linearGradient><linearGradient id="未命名漸層_10-2" x1="140.65" y1="132.03" x2="157.83" y2="132.03" xlink:href="#未命名漸層_10"/><linearGradient id="未命名漸層_72-2" x1="100.23" y1="162.62" x2="151.1" y2="162.62" xlink:href="#未命名漸層_72"/><linearGradient id="未命名漸層_40" x1="181.87" y1="188.21" x2="266.29" y2="188.21" gradientUnits="userSpaceOnUse"><stop offset="0" stop-color="#abfff0"/><stop offset="1" stop-color="#8fffe9"/></linearGradient></defs><title>prev_img_7</title><g id="圖層_2" data-name="圖層 2"><g id="圖層_3" data-name="圖層 3"><rect class="cls-1" x="3" y="3" width="324.78" height="324.78"/><polygon class="cls-2" points="324.73 324.82 6.1 324.82 5.67 6.2 324.73 5.96 324.73 324.82"/><path class="cls-3" d="M263,166.68l-11,19.17s-.72-7.74,5.49-18c2.3-.34,5.5-1.19,5.5-1.19"/><polyline points="282.6 243.78 324.73 324.82 136.93 324.82 275.07 252.17"/><path d="M324.73,324.82V263.15c-9.2-10.12-42.13-19.37-42.13-19.37"/><path d="M227.15,245.12l-.71,6.63,56.16-8-40,47.69L136.93,324.82s18.28-44,38.61-57.44c13.13-8.67,51.61-22.26,51.61-22.26"/><path d="M227.66,250.92c0-.18,0-.35,0-.53v-.11l-.06-.44s0,0,0-.05-.06-.16-.07-.24l.05.39v-.09l-.05.4a2.17,2.17,0,0,1,.07-.24,2.89,2.89,0,0,0,.07-.49,2.22,2.22,0,0,0-.06-.51,1.54,1.54,0,0,0-.69-.89,1.09,1.09,0,0,0-.55-.18,1,1,0,0,0-.6,0l-.36.15a1.55,1.55,0,0,0-.54.54l-.15.35a1.55,1.55,0,0,0,0,.8v0l-.05-.39v.09l.05-.4a1.21,1.21,0,0,1-.05.18,2.72,2.72,0,0,0-.09.56,1.66,1.66,0,0,0,.08.58c0,.06.05.13.07.2l-.06-.4a3.75,3.75,0,0,1,0,.67,1.22,1.22,0,0,0,.13.57,1.32,1.32,0,0,0,.8.8,1.22,1.22,0,0,0,.57.13l.4-.06a1.45,1.45,0,0,0,.66-.38l.24-.31a1.5,1.5,0,0,0,.2-.75Z"/><path d="M228,251.25a2.34,2.34,0,0,0-.13-.7,1.31,1.31,0,0,1-.09-.34l.05.4c0-.28,0-.58-.05-.86a1.27,1.27,0,0,0-.13-.58,1.32,1.32,0,0,0-.8-.8,1.11,1.11,0,0,0-.57-.12l-.4.05a1.45,1.45,0,0,0-.66.38,1.5,1.5,0,0,0-.44,1.07c0,.26,0,.53,0,.79a3.7,3.7,0,0,0,.13.74,1.33,1.33,0,0,1,.1.34l-.05-.4v0a1.27,1.27,0,0,0,.13.58,1.24,1.24,0,0,0,.31.48,1.72,1.72,0,0,0,1.06.44l.4-.05a1.39,1.39,0,0,0,.66-.39l.24-.3a1.57,1.57,0,0,0,.2-.76Z"/><path d="M226,246.27a3.81,3.81,0,0,1-.2.68,3.81,3.81,0,0,0-.23,1,6.51,6.51,0,0,0,.14,1.76,14.28,14.28,0,0,0,.68,3,1.72,1.72,0,0,0,.69.9,1.61,1.61,0,0,0,1.16.15,1.52,1.52,0,0,0,1.05-1.85,13.61,13.61,0,0,1-.66-2.75c0-.1,0-.21-.05-.31l0-.21c0,.21,0,.25,0,.13l0-.36a1.74,1.74,0,0,0,0-.32q0,.34,0,.09c0-.05,0-.09,0-.14l.12-.31a2.83,2.83,0,0,0,.18-.63,1.62,1.62,0,0,0-.15-1.16,1.5,1.5,0,0,0-2.74.36Z"/><path class="cls-4" d="M303.65,137.4c-5.83-7-12.35-3.35-14.75-2.13C283.08,105.93,261,84.1,235,84.1c-30.39,0-55,29.8-55,66.56,0,35.19,22.57,64,51.15,66.4l-4,28.06s.06,15.92,13.93,22.78a16.69,16.69,0,0,0,6.15,1c21.46-2.17,29.92-22.55,35.37-25.13-6.49-10.08.31-54.65.73-60.66.59-5.6,1-8.51,5.34-15.91C311,165,304.66,139.87,303.65,137.4Z"/><path class="cls-5" d="M178.92,138.21c-5.08-7.65-24.29-42.63,26.88-71.34a12.82,12.82,0,0,1,2.37-1c9.69-3.23,62.36-19.38,90.93,19.37,1.92,2.56,9.64,10.55,11.6,34.52,0,0,0,0,0,.07h0a8.92,8.92,0,0,1-.65,4.26c-1.85,6.07-3.31,10.2-5.05,13.29a.8.8,0,0,1-1.36.06c-1.61-2.3-6.23-7-15-2l-.16.13c-1.52,1.49-8,5.51-9.67,14.81a.81.81,0,0,1-1.57.11c-2-6.58-7.15-17.67-34.4-18.41h-.06c-2.93.17-33.08,1.51-33.31-23a.8.8,0,0,0-1.19-.69h0a.81.81,0,0,0-.38.45,19.39,19.39,0,0,0,6.51,21,.8.8,0,0,1-.68,1.41c-6.16-1.35-16.56-6.05-16-23.94a.81.81,0,0,0-1.33-.64c-3.58,3.05-11.06,11.6-15.41,31.46C180.84,138.75,179.32,138.8,178.92,138.21Z"/><path class="cls-6" d="M262.55,160.6s12.85-5.84,18.11-15.94"/><path class="cls-6" d="M257.49,167.87s-9.47,24.76-18.66,27.77"/><path class="cls-7" d="M5.67,211.4s70.81-20.81,94.56-40.13c1.85-.25,19.08.49,17.24,21.66C107.29,214.41,6,278.72,6,278.72l-.37-37.29Z"/><path class="cls-8" d="M86.2,180.83s21.68,6.23,11.67,32.41"/><circle class="cls-9" cx="105.05" cy="200.74" r="2.24"/><path class="cls-10" d="M132.85,192.38l7.49-4.44s-6.26,25.68-9,27.66a14.65,14.65,0,0,1-9.79,2.33C118.5,217.54,132.85,192.38,132.85,192.38Z"/><path class="cls-7" d="M132.85,192.38s-.18,3.16-.34,4.66-1.62,10.8-2.46,12.67-4,8.08-7.17,8.21-4-.36-4.39-3.75c.45-2.62,3-14.9,3-20.71C126.24,194,132.85,192.38,132.85,192.38Z"/><path class="cls-11" d="M163.17,119.57a23.45,23.45,0,0,1,5.53,2.19c.39.25,1,.57,1.65,2.75.63,2.53,2.79,10.8-2.15,18a6.9,6.9,0,0,1-4.16,2.76c-1.85.21-2.93-.05-6.24-.16C161.22,143.12,163.17,119.57,163.17,119.57Z"/><path class="cls-12" d="M155.38,115.85a55.43,55.43,0,0,1,7.79,3.72c1.32,1,6.08,4.72,4.72,14.24-.13,1.49-2.82,9.39-5.13,10.18a32.07,32.07,0,0,1-12.11,1.42c.88-1.3,5.86-8.43,5.86-8.43Z"/><path class="cls-13" d="M144.93,109.61s8.16,2.92,9.59,5,5.34,7.47,2,22.42c-1.06,3.5-8.74,13.21-10.14,16.47-4.53.85-3.54.71-5.72,1a12.27,12.27,0,0,1,3.44-7.15c.68-1,5.71-8.69,5.71-8.69S158.78,119.88,144.93,109.61Z"/><path class="cls-7" d="M122.67,139.73a51.6,51.6,0,0,1-1.57-7.44c-.07-2.08-.45-9.33,1.93-13.93s6.8-8.19,9.78-9.21c2.48-.64,9.27-1.41,12.84.85s4.7,5.4,5.52,7.5c1.16,2.06,1.84,6.22,1.36,10.73-.39,3.71-1.62,8.73-2.73,10.38s-5.14,7.91-5.71,8.69-3.11,3.28-3.44,7.15c-1.37.15-11.28.82-13.69.17.13-2,.37-5.25,0-6.39S122.67,139.73,122.67,139.73Z"/><circle class="cls-14" cx="135.26" cy="137.35" r="2.7"/><path class="cls-15" d="M100.23,171.27s1.47-11,3.09-13.7,8.6-10.33,10.92-12.54c1.79-1,7.46-4,8.43-5.3s3.52-10.92,9.08-7c2.26,2,.84,10.06-3.29,14.64a5,5,0,0,1-1.46.88c-.43.24-.85.45-1.21.61a5.49,5.49,0,0,0-2.36,2,6.68,6.68,0,0,0-1.3,3c2.22.7,15.73,2.27,26.59-1.08,1.08.11,4.76,4.11,0,9.84-.16.86,1,7.94-1.51,9.73-.92.59.59,7.24-3.67,9.08-.11,1-2.1,14.84-26.07,11.47C117.59,191,120.27,172.92,100.23,171.27Z"/><rect class="cls-16" x="127.12" y="117.03" width="19.48" height="14.17" rx="2.93" transform="matrix(1, 0.06, -0.06, 1, 8.03, -8.32)"/><line class="cls-17" x1="133.86" y1="123.9" x2="137.83" y2="124.18"/><line class="cls-17" x1="128.23" y1="123.5" x2="131.46" y2="123.73"/><rect class="cls-18" x="138.75" y="127.85" width="0.82" height="0.82" transform="translate(9.3 -9.41) rotate(4.01)"/><polyline class="cls-17" points="145.4 120.72 142.18 120.49 141.9 124.46 145.12 124.69 144.84 128.66 141.35 128.42"/><polyline class="cls-17" points="128.51 119.53 131.74 119.76 131.46 123.73 131.18 127.7 127.95 127.48"/><polyline class="cls-17" points="137.61 120.17 134.14 119.93 133.58 127.87 137.06 128.12 137.33 124.14"/><path class="cls-6" d="M270.58,200a122.81,122.81,0,0,0,17.84-32.36"/><path class="cls-19" d="M180.73,161.53s21.84-9.44,26.18-9.44,48.13,7.16,55.64,7.51c.12,3.28-2.35,26.17,8.45,40.38-.58,2.81-29.93,33.68-63.15,19C204.1,217.11,181.67,204.37,180.73,161.53Z"/><path class="cls-20" d="M185.45,164s18.48-7,22.09-6.84,42,4.77,50,7.21c-.09,2.17-.41,24.08,8.8,35.47-.72,1.62-14.62,21.88-58.44,19.13-1.74-1-21.33-9.32-26-51.53Z"/><path class="cls-21" d="M184.29,178.18s29.16-10,68.72-2.64C248.4,175.91,205.91,172.91,184.29,178.18Z"/><path class="cls-21" d="M254.43,187.51s-55.75,4.93-67.37,4.05C189.47,193.3,243,192.78,254.43,187.51Z"/><path class="cls-21" d="M258.1,195.71s-27.64,15.66-62.4,12.11C198.92,209.21,235.63,214.19,258.1,195.71Z"/></g></g></svg>