<svg xmlns="http://www.w3.org/2000/svg" xmlns:xlink="http://www.w3.org/1999/xlink" viewBox="0 0 330.78 330.78"><defs><style>.cls-1{fill:#fff;stroke:#94d9f7;stroke-miterlimit:10;stroke-width:6px;}.cls-2{fill:#cce3f2;opacity:0.55;}.cls-3{fill:#7b7c7c;}.cls-4{fill:#929293;opacity:0.75;}.cls-5{fill:url(#未命名漸層_75);}.cls-6{fill:url(#未命名漸層_75-2);}.cls-7{fill:url(#未命名漸層_75-3);}.cls-8{fill:url(#未命名漸層_75-4);}</style><linearGradient id="未命名漸層_75" x1="82.3" y1="97.88" x2="61.84" y2="133.32" gradientUnits="userSpaceOnUse"><stop offset="0" stop-color="#8bc1f7"/><stop offset="0.62" stop-color="#4aa4ed"/></linearGradient><linearGradient id="未命名漸層_75-2" x1="103.66" y1="148.57" x2="34.88" y2="267.7" xlink:href="#未命名漸層_75"/><linearGradient id="未命名漸層_75-3" x1="268.94" y1="97.88" x2="248.48" y2="133.32" xlink:href="#未命名漸層_75"/><linearGradient id="未命名漸層_75-4" x1="290.3" y1="148.57" x2="221.52" y2="267.7" xlink:href="#未命名漸層_75"/></defs><title>prev_img_6</title><g id="圖層_2" data-name="圖層 2"><g id="圖層_3" data-name="圖層 3"><rect class="cls-1" x="3" y="3" width="324.78" height="324.78"/><rect class="cls-2" x="6.01" y="6" width="318.74" height="318.78"/><rect class="cls-3" x="125.27" y="154.92" width="80.84" height="4.27"/><path class="cls-3" d="M120.22,158l10.51,7.57a1.15,1.15,0,0,0,1.82-.94V163a1.12,1.12,0,0,0-.47-.92L126.54,158a1.14,1.14,0,0,1,0-1.85l5.54-4a1.16,1.16,0,0,0,.47-.93v-1.66a1.15,1.15,0,0,0-1.82-.93l-10.51,7.56A1.15,1.15,0,0,0,120.22,158Z"/><path class="cls-3" d="M210.39,156.12l-10.51-7.56a1.15,1.15,0,0,0-1.82.93v1.66a1.16,1.16,0,0,0,.47.93l5.54,4a1.14,1.14,0,0,1,0,1.85L198.53,162a1.12,1.12,0,0,0-.47.92v1.66a1.15,1.15,0,0,0,1.82.94L210.39,158A1.15,1.15,0,0,0,210.39,156.12Z"/><ellipse class="cls-4" cx="72.11" cy="280.58" rx="27.9" ry="9.66"/><ellipse class="cls-4" cx="258.71" cy="280.58" rx="27.9" ry="9.66"/><path class="cls-5" d="M72.07,136.06A20.46,20.46,0,1,0,51.61,115.6,20.46,20.46,0,0,0,72.07,136.06Z"/><path class="cls-6" d="M80.53,139.43H63.61a27.18,27.18,0,0,0-27.18,27.18V208.9a6.8,6.8,0,0,0,13.6,0V167h2.88V273.15a8.57,8.57,0,1,0,17.14,0V215.7h4.24v57.45a8.57,8.57,0,0,0,8.57,8.57h0a8.57,8.57,0,0,0,8.58-8.57V167h2.68v41.9a6.8,6.8,0,1,0,13.59,0V166.61A27.18,27.18,0,0,0,80.53,139.43Z"/><path class="cls-7" d="M258.71,136.06a20.46,20.46,0,1,0-20.46-20.46A20.46,20.46,0,0,0,258.71,136.06Z"/><path class="cls-8" d="M267.17,139.43H250.25a27.18,27.18,0,0,0-27.18,27.18V208.9a6.8,6.8,0,1,0,13.6,0V167h2.88V273.15a8.57,8.57,0,0,0,17.14,0V215.7h4.24v57.45a8.57,8.57,0,0,0,8.57,8.57h0a8.57,8.57,0,0,0,8.58-8.57V167h2.67v41.9a6.8,6.8,0,0,0,13.6,0V166.61A27.18,27.18,0,0,0,267.17,139.43Z"/></g></g></svg>