<svg xmlns="http://www.w3.org/2000/svg" xmlns:xlink="http://www.w3.org/1999/xlink" viewBox="0 0 330.78 330.78"><defs><style>.cls-1{fill:#fff;stroke:#93d2ee;stroke-miterlimit:10;stroke-width:6px;}.cls-2{fill:url(#未命名漸層_33);}.cls-3{fill:url(#未命名漸層_33-2);}.cls-4{fill:url(#未命名漸層_33-3);}.cls-5{fill:url(#未命名漸層_44);}.cls-6{fill:#757575;}.cls-7{fill:#989a9b;}.cls-8{fill:#c9dfec;}.cls-9{fill:url(#未命名漸層_104);}.cls-10{fill:url(#未命名漸層_104-2);}.cls-11{fill:none;stroke:#686969;stroke-linecap:round;stroke-linejoin:round;stroke-width:0.25px;}.cls-12{fill:url(#未命名漸層_75);}.cls-13{fill:url(#未命名漸層_75-2);}.cls-14{fill:url(#未命名漸層_75-3);}.cls-15{fill:url(#未命名漸層_75-4);}.cls-16{fill:url(#未命名漸層_75-5);}.cls-17{fill:url(#未命名漸層_75-6);}.cls-18{fill:url(#未命名漸層_75-7);}.cls-19{fill:url(#未命名漸層_75-8);}.cls-20{fill:url(#未命名漸層_75-9);}.cls-21{fill:url(#未命名漸層_75-10);}.cls-22{fill:url(#未命名漸層_75-11);}.cls-23{fill:url(#未命名漸層_75-12);}.cls-24{fill:url(#未命名漸層_75-13);}.cls-25{fill:url(#未命名漸層_75-14);}.cls-26{fill:url(#未命名漸層_75-15);}.cls-27{fill:url(#未命名漸層_75-16);}.cls-28{fill:url(#未命名漸層_75-17);}.cls-29{opacity:0.18;}.cls-30{fill:#332c88;}</style><linearGradient id="未命名漸層_33" x1="5.81" y1="144.46" x2="81.71" y2="144.46" gradientUnits="userSpaceOnUse"><stop offset="0" stop-color="#fbf3e5"/><stop offset="1" stop-color="#e5d7b8"/></linearGradient><linearGradient id="未命名漸層_33-2" x1="384.72" y1="179.27" x2="208.15" y2="77.33" xlink:href="#未命名漸層_33"/><linearGradient id="未命名漸層_33-3" x1="265.23" y1="148.83" x2="65.78" y2="33.67" xlink:href="#未命名漸層_33"/><linearGradient id="未命名漸層_44" x1="265.03" y1="401.81" x2="59.34" y2="175.92" gradientUnits="userSpaceOnUse"><stop offset="0" stop-color="#d0d0cf"/><stop offset="1" stop-color="#d6d6d6"/></linearGradient><linearGradient id="未命名漸層_104" x1="160.05" y1="89.4" x2="162.21" y2="89.4" gradientUnits="userSpaceOnUse"><stop offset="0" stop-color="#9e9fa0"/><stop offset="0.51" stop-color="#c7ccce"/><stop offset="1" stop-color="#9e9fa0"/></linearGradient><linearGradient id="未命名漸層_104-2" x1="168.96" y1="89.4" x2="171.12" y2="89.4" xlink:href="#未命名漸層_104"/><linearGradient id="未命名漸層_75" x1="80.65" y1="174.52" x2="69.14" y2="194.46" gradientUnits="userSpaceOnUse"><stop offset="0" stop-color="#8cbae4"/><stop offset="0.62" stop-color="#4f9bd5"/></linearGradient><linearGradient id="未命名漸層_75-2" x1="92.67" y1="203.05" x2="53.97" y2="270.07" xlink:href="#未命名漸層_75"/><linearGradient id="未命名漸層_75-3" x1="119.7" y1="249.22" x2="106.49" y2="272.09" xlink:href="#未命名漸層_75"/><linearGradient id="未命名漸層_75-4" x1="128.38" y1="278.99" x2="99.57" y2="328.88" xlink:href="#未命名漸層_75"/><linearGradient id="未命名漸層_75-5" x1="113.5" y1="324.66" x2="112.82" y2="325.85" xlink:href="#未命名漸層_75"/><linearGradient id="未命名漸層_75-6" x1="127.19" y1="145.29" x2="118.6" y2="160.16" xlink:href="#未命名漸層_75"/><linearGradient id="未命名漸層_75-7" x1="136.14" y1="166.55" x2="107.3" y2="216.51" xlink:href="#未命名漸層_75"/><linearGradient id="未命名漸層_75-8" x1="154.66" y1="158.1" x2="145.48" y2="173.99" xlink:href="#未命名漸層_75"/><linearGradient id="未命名漸層_75-9" x1="164.23" y1="180.83" x2="133.4" y2="234.23" xlink:href="#未命名漸層_75"/><linearGradient id="未命名漸層_75-10" x1="201.1" y1="189.33" x2="189.56" y2="209.32" xlink:href="#未命名漸層_75"/><linearGradient id="未命名漸層_75-11" x1="213.14" y1="217.92" x2="174.36" y2="285.1" xlink:href="#未命名漸層_75"/><linearGradient id="未命名漸層_75-12" x1="232.47" y1="158.18" x2="224.7" y2="171.64" xlink:href="#未命名漸層_75"/><linearGradient id="未命名漸層_75-13" x1="240.57" y1="177.43" x2="214.46" y2="222.65" xlink:href="#未命名漸層_75"/><linearGradient id="未命名漸層_75-14" x1="272.46" y1="165.59" x2="262.23" y2="183.31" xlink:href="#未命名漸層_75"/><linearGradient id="未命名漸層_75-15" x1="283.14" y1="190.94" x2="248.75" y2="250.5" xlink:href="#未命名漸層_75"/><linearGradient id="未命名漸層_75-16" x1="228.46" y1="244.45" x2="222.65" y2="254.52" xlink:href="#未命名漸層_75"/><linearGradient id="未命名漸層_75-17" x1="234.53" y1="258.86" x2="214.99" y2="292.7" xlink:href="#未命名漸層_75"/></defs><title>prev_img_5_new</title><g id="圖層_2" data-name="圖層 2"><g id="圖層_1-2" data-name="圖層 1"><rect class="cls-1" x="3" y="3" width="324.78" height="324.78"/><polygon class="cls-2" points="81.71 176.4 81.71 6.06 6 6 5.81 282.93 81.71 176.4"/><polygon class="cls-3" points="249.29 176.4 249.29 6.06 324.72 6.06 324.72 283.2 249.29 176.4"/><rect class="cls-4" x="81.71" y="6.06" width="167.58" height="170.37"/><polygon class="cls-5" points="81.71 176.4 5.81 282.93 5.81 325.26 324.79 325.2 324.69 283.19 249.29 176.4 81.71 176.4"/><rect class="cls-6" x="128.91" y="62.46" width="73.19" height="53.75"/><rect class="cls-7" x="131.05" y="63.96" width="68.9" height="50.88"/><rect class="cls-8" x="167" y="65.52" width="30.51" height="48.09"/><rect class="cls-8" x="133.56" y="65.52" width="30.51" height="48.09"/><rect class="cls-9" x="160.05" y="84.9" width="2.15" height="9" rx="0.54"/><rect class="cls-10" x="168.96" y="84.9" width="2.15" height="9" rx="0.54"/><line class="cls-11" x1="165.5" y1="65.52" x2="165.5" y2="113.61"/><path class="cls-12" d="M74.89,196a11.52,11.52,0,1,0-11.51-11.52A11.52,11.52,0,0,0,74.89,196Z"/><path class="cls-13" d="M79.66,197.9H70.13a15.3,15.3,0,0,0-15.29,15.29V237a3.83,3.83,0,0,0,7.65,0V213.41h1.62v59.73a4.83,4.83,0,0,0,9.65,0V240.81h2.38v32.33A4.82,4.82,0,0,0,81,278h0a4.82,4.82,0,0,0,4.82-4.82V213.41H87.3V237A3.83,3.83,0,0,0,95,237v-23.8A15.3,15.3,0,0,0,79.66,197.9Z"/><path class="cls-14" d="M113.09,273.86a13.21,13.21,0,1,0-13.2-13.2A13.2,13.2,0,0,0,113.09,273.86Z"/><path class="cls-15" d="M125.59,325.26V293.83h1.73v27a4.39,4.39,0,1,0,8.78,0V293.58A17.54,17.54,0,0,0,118.55,276H107.63a17.54,17.54,0,0,0-17.54,17.54v27.29a4.39,4.39,0,0,0,8.78,0v-27h1.85v31.43"/><line class="cls-16" x1="111.79" y1="325.26" x2="114.53" y2="325.26"/><path class="cls-17" d="M122.9,161.31a8.59,8.59,0,1,0-8.59-8.59A8.59,8.59,0,0,0,122.9,161.31Z"/><path class="cls-18" d="M126.44,162.72h-7.09a11.39,11.39,0,0,0-11.4,11.4v17.73a2.85,2.85,0,1,0,5.7,0V174.28h1.21V218.8a3.6,3.6,0,1,0,7.19,0V194.71h1.78V218.8a3.6,3.6,0,0,0,3.59,3.6h0a3.6,3.6,0,0,0,3.6-3.6V174.28h1.12v17.57a2.85,2.85,0,1,0,5.7,0V174.12A11.39,11.39,0,0,0,126.44,162.72Z"/><path class="cls-19" d="M150.07,175.22a9.17,9.17,0,1,0-9.17-9.17A9.16,9.16,0,0,0,150.07,175.22Z"/><path class="cls-20" d="M153.86,176.73h-7.58a12.19,12.19,0,0,0-12.19,12.19v19a3.05,3.05,0,0,0,6.1,0V189.09h1.29v47.59a3.85,3.85,0,0,0,7.69,0V210.92h1.9v25.76a3.84,3.84,0,0,0,3.84,3.84h0a3.84,3.84,0,0,0,3.84-3.84V189.09H160v18.79a3.05,3.05,0,0,0,6.1,0v-19A12.19,12.19,0,0,0,153.86,176.73Z"/><path class="cls-21" d="M195.33,210.87a11.54,11.54,0,1,0-11.54-11.54A11.54,11.54,0,0,0,195.33,210.87Z"/><path class="cls-22" d="M200.1,212.77h-9.54a15.33,15.33,0,0,0-15.33,15.33v23.84a3.84,3.84,0,1,0,7.67,0V228.31h1.62v59.87a4.84,4.84,0,0,0,9.67,0v-32.4h2.39v32.4a4.83,4.83,0,0,0,4.83,4.83h0a4.84,4.84,0,0,0,4.84-4.83V228.31h1.51v23.63a3.84,3.84,0,1,0,7.67,0V228.1A15.33,15.33,0,0,0,200.1,212.77Z"/><path class="cls-23" d="M228.58,172.68a7.77,7.77,0,1,0-7.77-7.77A7.77,7.77,0,0,0,228.58,172.68Z"/><path class="cls-24" d="M231.79,174h-6.42a10.33,10.33,0,0,0-10.32,10.32v16.06a2.58,2.58,0,0,0,5.16,0V184.42h1.1v40.3a3.26,3.26,0,1,0,6.51,0V202.91h1.6v21.81a3.26,3.26,0,0,0,3.26,3.26h0a3.25,3.25,0,0,0,3.25-3.26v-40.3h1v15.91a2.58,2.58,0,1,0,5.16,0V184.27A10.33,10.33,0,0,0,231.79,174Z"/><path class="cls-25" d="M267.34,184.68a10.23,10.23,0,1,0-10.23-10.23A10.23,10.23,0,0,0,267.34,184.68Z"/><path class="cls-26" d="M271.58,186.37h-8.47A13.59,13.59,0,0,0,249.52,200V221.1a3.4,3.4,0,0,0,6.8,0V200.15h1.44v53.08a4.29,4.29,0,1,0,8.58,0V224.5h2.11v28.73a4.29,4.29,0,0,0,4.29,4.29h0a4.29,4.29,0,0,0,4.29-4.29V200.15h1.34V221.1a3.4,3.4,0,0,0,6.8,0V200A13.59,13.59,0,0,0,271.58,186.37Z"/><path class="cls-27" d="M225.55,255.3a5.82,5.82,0,1,0-5.81-5.81A5.82,5.82,0,0,0,225.55,255.3Z"/><path class="cls-28" d="M228,256.26h-4.81a7.72,7.72,0,0,0-7.72,7.72v12a1.93,1.93,0,1,0,3.86,0v-11.9h.82v30.16a2.44,2.44,0,0,0,4.87,0V277.93h1.2v16.32a2.43,2.43,0,0,0,2.44,2.43h0a2.44,2.44,0,0,0,2.44-2.43V264.09h.76V276a1.93,1.93,0,1,0,3.86,0V264A7.72,7.72,0,0,0,228,256.26Z"/><g class="cls-29"><path class="cls-30" d="M100,76.08s4.08-23.69,24.84-39.35c11.3-8.52,27.86-14,46.48-14.09.13-.82.87-9.45.87-9.45L191.35,33.3,168.28,51.78l.93-9.13S131.62,38.48,124,80.86A233.94,233.94,0,0,0,100,76.08Z"/><path class="cls-30" d="M208.08,38s18,16,20.28,41.88c1.26,14.1-2.82,31.06-12.6,46.9.63.54,7.56,5.74,7.56,5.74l-27.19,5.63-3.49-29.35,7.25,5.61s23.41-29.71-8.54-58.6A232.43,232.43,0,0,0,208.08,38Z"/><path class="cls-30" d="M189.75,153s-22.84,7.51-46.41-3.49c-12.82-6-25.45-18-34.23-34.44-.79.27-8.77,3.67-8.77,3.67l8.79-26.35,27.13,11.71-8.49,3.46s14,35.16,55,22A233.29,233.29,0,0,0,189.75,153Z"/></g></g></g></svg>