<svg xmlns="http://www.w3.org/2000/svg" xmlns:xlink="http://www.w3.org/1999/xlink" viewBox="0 0 330.78 330.78"><defs><style>.cls-1{fill:#fff;stroke:#94d9f7;stroke-width:6px;}.cls-1,.cls-10,.cls-11,.cls-12,.cls-22{stroke-miterlimit:10;}.cls-2{fill:#f9f8f7;}.cls-3{fill:#cce3f2;opacity:0.55;}.cls-4{fill:url(#未命名漸層_84);}.cls-5{fill:url(#未命名漸層_65);}.cls-6{fill:url(#未命名漸層_32);}.cls-7{fill:#160000;}.cls-8{fill:#540000;opacity:0.6;}.cls-9{fill:#c6c6c6;}.cls-10,.cls-11,.cls-12{stroke:#929393;}.cls-10,.cls-11{stroke-width:2.5px;}.cls-10{fill:url(#未命名漸層_74);}.cls-11{fill:url(#未命名漸層_74-2);}.cls-12{fill:#e4f3f9;}.cls-13{fill:#2f3030;}.cls-14{fill:url(#未命名漸層_75);}.cls-15{fill:url(#未命名漸層_75-2);}.cls-16{fill:#777574;}.cls-17{fill:#929393;}.cls-18{fill:url(#未命名漸層_86);}.cls-19{fill:url(#未命名漸層_86-2);}.cls-20{fill:url(#未命名漸層_86-3);}.cls-21{fill:url(#未命名漸層_86-4);}.cls-22{fill:#f9f9f9;stroke:#070707;}.cls-23{font-size:18.52px;font-family:FranklinGothic-Heavy, Franklin Gothic Heavy;font-weight:800;}.cls-24{letter-spacing:0.01em;}</style><linearGradient id="未命名漸層_84" x1="84.89" y1="398.18" x2="248.17" y2="168.25" gradientUnits="userSpaceOnUse"><stop offset="0" stop-color="#9f9fa0"/><stop offset="0.69" stop-color="#bebebf"/></linearGradient><linearGradient id="未命名漸層_65" x1="250.08" y1="159.73" x2="83.31" y2="322.12" gradientUnits="userSpaceOnUse"><stop offset="0" stop-color="#e5d6b3"/><stop offset="0.73" stop-color="#f9dc9b"/></linearGradient><linearGradient id="未命名漸層_32" x1="208.08" y1="107.75" x2="127.89" y2="246.65" gradientUnits="userSpaceOnUse"><stop offset="0" stop-color="#683d1a"/><stop offset="0.62" stop-color="#704423"/></linearGradient><linearGradient id="未命名漸層_74" x1="257.31" y1="178.4" x2="209.92" y2="224.54" gradientUnits="userSpaceOnUse"><stop offset="0.38" stop-color="#e4f3f9"/><stop offset="1" stop-color="#c2ecf9"/></linearGradient><linearGradient id="未命名漸層_74-2" x1="121.88" y1="178.43" x2="74.49" y2="224.57" xlink:href="#未命名漸層_74"/><linearGradient id="未命名漸層_75" x1="102.55" y1="192.02" x2="93.35" y2="207.96" gradientUnits="userSpaceOnUse"><stop offset="0" stop-color="#8bc1f7"/><stop offset="0.62" stop-color="#4aa4ed"/></linearGradient><linearGradient id="未命名漸層_75-2" x1="104.34" y1="210.31" x2="93.19" y2="229.62" xlink:href="#未命名漸層_75"/><linearGradient id="未命名漸層_86" x1="109.79" y1="232.56" x2="65.78" y2="275.41" gradientUnits="userSpaceOnUse"><stop offset="0.59" stop-color="#f9f8f7"/><stop offset="1" stop-color="#e0dcdc"/></linearGradient><linearGradient id="未命名漸層_86-2" x1="109.86" y1="269.42" x2="65.71" y2="312.4" xlink:href="#未命名漸層_86"/><linearGradient id="未命名漸層_86-3" x1="210.83" y1="273.88" x2="251.44" y2="249.75" xlink:href="#未命名漸層_86"/><linearGradient id="未命名漸層_86-4" x1="211.3" y1="310.82" x2="251.66" y2="286.84" xlink:href="#未命名漸層_86"/></defs><title>prev_img_8</title><g id="圖層_2" data-name="圖層 2"><g id="圖層_3" data-name="圖層 3"><rect class="cls-1" x="3" y="3" width="324.78" height="324.78"/><rect class="cls-2" x="53.89" y="255.39" width="3.24" height="35.33"/><rect class="cls-3" x="6.02" y="6.01" width="318.73" height="318.78"/><rect class="cls-4" x="6.02" y="244.87" width="318.73" height="79.92"/><polygon class="cls-5" points="48.52 181.59 48.52 301.74 283.35 301.74 283.35 180.69 165.93 100.75 48.52 181.59"/><polygon class="cls-6" points="166.28 83.62 26.17 181.78 33.43 192.11 166.31 100.75 297.89 191.21 305.64 179.82 166.28 83.62"/><circle class="cls-7" cx="179.83" cy="252.8" r="2.07"/><rect class="cls-8" x="139.11" y="183.57" width="54.22" height="118.17"/><rect class="cls-9" x="143.42" y="189.25" width="45.32" height="112.5"/><rect class="cls-10" x="210.23" y="178.08" width="46.78" height="46.78"/><rect class="cls-11" x="74.79" y="178.11" width="46.78" height="46.78"/><rect class="cls-12" x="152.18" y="133.09" width="27.24" height="27.24"/><circle class="cls-13" cx="182.38" cy="239.92" r="2.07"/><path class="cls-14" d="M98,209.19a9.2,9.2,0,1,0-9.2-9.2A9.19,9.19,0,0,0,98,209.19Z"/><path class="cls-15" d="M101.75,210.71H94.14a12.22,12.22,0,0,0-12.22,12.22v.18H114v-.18A12.23,12.23,0,0,0,101.75,210.71Z"/><rect class="cls-16" x="48.52" y="292.46" width="234.83" height="9.28"/><rect class="cls-2" x="67.67" y="255.39" width="3.24" height="35.33"/><rect class="cls-2" x="81.55" y="255.39" width="3.24" height="35.33"/><rect class="cls-2" x="95.43" y="255.39" width="3.24" height="35.33"/><rect class="cls-2" x="109.42" y="255.39" width="3.24" height="35.33"/><rect class="cls-2" x="122.8" y="255.39" width="3.24" height="35.33"/><rect class="cls-2" x="206.81" y="255.39" width="3.24" height="35.33"/><rect class="cls-2" x="220.59" y="255.39" width="3.24" height="35.33"/><rect class="cls-2" x="234.47" y="255.39" width="3.24" height="35.33"/><rect class="cls-2" x="248.35" y="255.39" width="3.24" height="35.33"/><rect class="cls-2" x="262.34" y="255.39" width="3.24" height="35.33"/><rect class="cls-2" x="275.72" y="255.39" width="3.24" height="35.33"/><rect class="cls-17" x="165.23" y="133.09" width="1.34" height="26.91"/><rect class="cls-17" x="165.12" y="133.09" width="1.34" height="26.91" transform="translate(312.34 -19.25) rotate(90)"/><rect class="cls-18" x="46.3" y="252.57" width="82.98" height="2.83"/><rect class="cls-19" x="46.3" y="289.36" width="82.98" height="3.1"/><rect class="cls-20" x="202.59" y="252.57" width="83.45" height="2.83"/><rect class="cls-21" x="203.12" y="289.63" width="82.92" height="2.83"/><circle class="cls-22" cx="80.96" cy="192.65" r="2.24"/><circle class="cls-22" cx="73.93" cy="187.33" r="3.08"/><circle class="cls-22" cx="65.78" cy="180.52" r="3.97"/><ellipse class="cls-22" cx="42.96" cy="159.81" rx="25.47" ry="12.96"/><text class="cls-23" transform="translate(24.39 166.46)">Si<tspan class="cls-24" x="16.75" y="0">c</tspan><tspan x="26.66" y="0">k</tspan></text></g></g></svg>