<svg xmlns="http://www.w3.org/2000/svg" xmlns:xlink="http://www.w3.org/1999/xlink" viewBox="0 0 330.78 330.78"><defs><style>.cls-1{fill:#fff;stroke:#94d9f7;stroke-width:6px;}.cls-1,.cls-23,.cls-27,.cls-30,.cls-8{stroke-miterlimit:10;}.cls-2{fill:#cce3f2;opacity:0.55;}.cls-3{fill:#b8d3f2;}.cls-4{fill:url(#未命名漸層_3);}.cls-5{fill:url(#未命名漸層_46);}.cls-6{fill:url(#未命名漸層_45);}.cls-7{fill:#d7e5f4;}.cls-11,.cls-8{fill:#a50000;}.cls-8{stroke:#600;}.cls-23,.cls-30,.cls-8{stroke-width:0.5px;}.cls-9{fill:#f4f4f4;}.cls-10{font-size:14.12px;}.cls-10,.cls-11,.cls-27{font-family:MS-UIGothic, MS UI Gothic;}.cls-11{font-size:14.92px;}.cls-12{fill:url(#未命名漸層_46-2);}.cls-13{fill:url(#未命名漸層_2);}.cls-14{fill:url(#未命名漸層_58);}.cls-15{fill:url(#未命名漸層_55);}.cls-16{fill:url(#未命名漸層_42);}.cls-17{fill:#eae8e8;}.cls-18{fill:url(#未命名漸層_39);}.cls-19{fill:url(#未命名漸層_39-2);}.cls-20{fill:url(#未命名漸層_39-3);}.cls-21{fill:#c1bfbf;}.cls-22{fill:#dbdbdb;}.cls-23,.cls-30{fill:none;}.cls-23{stroke:#a5a5a5;opacity:0.1;}.cls-24{fill:#333;}.cls-25{fill:#969595;opacity:0.2;}.cls-26{fill:#e4ea6c;opacity:0.8;}.cls-27{font-size:16.74px;fill:#529acc;stroke:#000;stroke-width:0.3px;}.cls-28{font-size:13.25px;}.cls-28,.cls-29,.cls-31{font-family:MS-PGothic, MS PGothic;}.cls-29{font-size:3.44px;}.cls-30{stroke:#2b2b2b;}.cls-31{font-size:3.81px;}</style><linearGradient id="未命名漸層_3" x1="58.35" y1="383.76" x2="282.1" y2="135.69" gradientUnits="userSpaceOnUse"><stop offset="0" stop-color="#333"/><stop offset="0.82" stop-color="#4b4a4a"/><stop offset="1" stop-color="#4c4b4b"/></linearGradient><linearGradient id="未命名漸層_46" x1="86.81" y1="208.05" x2="172.06" y2="156.38" gradientUnits="userSpaceOnUse"><stop offset="0.22" stop-color="#65a9e5"/><stop offset="1" stop-color="#83c3ea"/></linearGradient><linearGradient id="未命名漸層_45" x1="61.32" y1="206.44" x2="113.1" y2="175.05" gradientUnits="userSpaceOnUse"><stop offset="0.52" stop-color="#7dbbea"/><stop offset="1" stop-color="#acd5ea"/></linearGradient><linearGradient id="未命名漸層_46-2" x1="86.3" y1="124.74" x2="116.89" y2="124.74" xlink:href="#未命名漸層_46"/><linearGradient id="未命名漸層_2" x1="5507.71" y1="-8419.4" x2="5517.86" y2="-8419.4" gradientTransform="translate(-5411.19 8531.8)" gradientUnits="userSpaceOnUse"><stop offset="0.23" stop-color="#7dbbea"/><stop offset="1" stop-color="#acd5ea"/></linearGradient><linearGradient id="未命名漸層_58" x1="94.48" y1="98.27" x2="112.82" y2="87.24" gradientUnits="userSpaceOnUse"><stop offset="0.23" stop-color="#d7e5f4"/><stop offset="1" stop-color="#f2f3f4"/></linearGradient><linearGradient id="未命名漸層_55" x1="111.82" y1="99.75" x2="156" y2="99.75" gradientUnits="userSpaceOnUse"><stop offset="0.63" stop-color="#d7e5f4"/><stop offset="1" stop-color="#f2f3f4"/></linearGradient><linearGradient id="未命名漸層_42" x1="215.45" y1="217.83" x2="256.33" y2="201.1" gradientUnits="userSpaceOnUse"><stop offset="0.25" stop-color="#bcbcbc"/><stop offset="0.98" stop-color="#eae8e8"/></linearGradient><linearGradient id="未命名漸層_39" x1="221.62" y1="146.18" x2="249.83" y2="140.04" gradientUnits="userSpaceOnUse"><stop offset="0.25" stop-color="#c9c7c7"/><stop offset="0.98" stop-color="#eae8e8"/></linearGradient><linearGradient id="未命名漸層_39-2" x1="224.87" y1="128.83" x2="245.09" y2="128.83" xlink:href="#未命名漸層_39"/><linearGradient id="未命名漸層_39-3" x1="227.35" y1="117.22" x2="243.1" y2="117.22" xlink:href="#未命名漸層_39"/></defs><title>prev_img_3</title><g id="圖層_2" data-name="圖層 2"><g id="圖層_3" data-name="圖層 3"><rect class="cls-1" x="3" y="3" width="324.78" height="324.78"/><rect class="cls-2" x="6.04" y="5.95" width="318.69" height="318.8"/><ellipse class="cls-3" cx="152.72" cy="107.13" rx="2.44" ry="1.55"/><rect class="cls-4" x="6.04" y="205.42" width="318.69" height="119.33"/><path class="cls-5" d="M66.82,130.19h69.56a12.25,12.25,0,0,1,12.25,12.25v112A14.61,14.61,0,0,1,134,269H69.18a14.61,14.61,0,0,1-14.61-14.61v-112A12.25,12.25,0,0,1,66.82,130.19Z"/><path class="cls-6" d="M60.86,248.5V147.39a17.2,17.2,0,0,1,17.2-17.2H71.77c-15.71-.54-17.2,7.7-17.2,17.2V248.5C54,267.85,63.76,269,75.09,269h6.29A20.52,20.52,0,0,1,60.86,248.5Z"/><circle class="cls-7" cx="101.44" cy="171.7" r="17.06"/><path class="cls-8" d="M112.18,168.55h-7.6V161a.92.92,0,0,0-.92-.91H99.21a.92.92,0,0,0-.92.91v7.6h-7.6a.92.92,0,0,0-.92.92v4.46a.92.92,0,0,0,.92.91h7.6v7.6a.92.92,0,0,0,.92.92h4.45a.92.92,0,0,0,.92-.92v-7.6h7.6a.92.92,0,0,0,.92-.91v-4.46A.92.92,0,0,0,112.18,168.55Z"/><rect class="cls-9" x="69.58" y="211.67" width="67.88" height="20.89" rx="2.31"/><text class="cls-10" transform="translate(103.38 227.04)">酒精</text><text class="cls-11" transform="translate(76.12 227.04)">75%</text><path class="cls-12" d="M88.29,119.3H114.9a2,2,0,0,1,2,2v8.9a0,0,0,0,1,0,0H86.3a0,0,0,0,1,0,0v-8.9A2,2,0,0,1,88.29,119.3Z"/><rect class="cls-13" x="96.52" y="105.5" width="10.15" height="13.8" transform="translate(203.19 224.8) rotate(180)"/><path class="cls-14" d="M95.09,80.42h13a3.72,3.72,0,0,1,3.72,3.72v21.46a.6.6,0,0,1-.6.6H92a.6.6,0,0,1-.6-.6V84.14A3.72,3.72,0,0,1,95.09,80.42Z"/><polygon class="cls-15" points="150 93.31 111.82 93.31 111.82 98.74 150 98.74 150 106.19 156 106.19 156 93.31 150 93.31"/><path class="cls-16" d="M213.1,156.36v105S216,268,235,267.81c1.95.09,19.4-.45,22.09-6.26.39-1.66,0-105.19,0-105.19Z"/><polygon class="cls-17" points="213.1 156.35 220.96 152.93 249.79 152.93 257.09 156.35 213.1 156.35"/><path class="cls-18" d="M221,152.94s-.15-18.41.32-19.58c.86,0,27-.39,27.63-.12.43,1.89,1,10.37.89,19.7Z"/><path class="cls-19" d="M224.87,133.3s-.07-8.46.49-9c.87,0,19,0,19,0a59.87,59.87,0,0,1,.7,8.78Z"/><path class="cls-20" d="M227.35,124.35V112.77s5.75-4,15.74-2.22c0,.75,0,13.8,0,13.8Z"/><path class="cls-21" d="M213.25,260.66s1.35,7.37,21.47,7.13c1.15.09,21.4-.44,22.39-7.13C256.56,260.89,235.18,272.37,213.25,260.66Z"/><rect class="cls-22" x="220.93" y="151.04" width="28.86" height="1.89"/><line class="cls-23" x1="222.86" y1="151.05" x2="222.9" y2="133.34"/><line class="cls-23" x1="224.32" y1="133.35" x2="224.28" y2="151.05"/><line class="cls-23" x1="225.94" y1="133.34" x2="225.9" y2="151.05"/><line class="cls-23" x1="227.36" y1="133.35" x2="227.32" y2="151.05"/><line class="cls-23" x1="228.92" y1="133.34" x2="228.88" y2="151.05"/><line class="cls-23" x1="230.34" y1="133.35" x2="230.3" y2="151.05"/><line class="cls-23" x1="231.67" y1="133.34" x2="231.63" y2="151.05"/><line class="cls-23" x1="233.09" y1="133.35" x2="233.05" y2="151.05"/><line class="cls-23" x1="234.71" y1="133.34" x2="234.67" y2="151.05"/><line class="cls-23" x1="236.13" y1="133.35" x2="236.09" y2="151.05"/><line class="cls-23" x1="237.57" y1="133.3" x2="237.53" y2="151.01"/><line class="cls-23" x1="239.11" y1="133.35" x2="239.07" y2="151.05"/><line class="cls-23" x1="240.11" y1="133.34" x2="240.07" y2="151.05"/><line class="cls-23" x1="241.73" y1="133.34" x2="241.69" y2="151.05"/><line class="cls-23" x1="243.15" y1="133.34" x2="243.11" y2="151.05"/><line class="cls-23" x1="244.71" y1="133.34" x2="244.67" y2="151.05"/><line class="cls-23" x1="246.13" y1="133.34" x2="246.09" y2="151.05"/><line class="cls-23" x1="247.27" y1="133.3" x2="247.23" y2="151"/><line class="cls-23" x1="248.48" y1="133.3" x2="248.44" y2="151.01"/><circle class="cls-24" cx="240.55" cy="113.95" r="1.79"/><path class="cls-25" d="M223.84,133.3s.55-26.08,1.45-26.51c1.1-.21,16.22-1.23,19.54,0,.25.55,1.44,23.58,1.27,26.51Z"/><path class="cls-26" d="M213.1,211.65s19.35,6.08,44.17.46V173.46c-24.82,5.61-44.17-.47-44.17-.47Z"/><text class="cls-27" transform="translate(218.03 192.86)">抗菌</text><text class="cls-28" transform="translate(215.19 208.66)">乾洗手</text><text class="cls-29" transform="translate(222.63 239.29)"><tspan xml:space="preserve">抗菌  淨化  防護</tspan></text><line class="cls-30" x1="222.06" y1="234.82" x2="248.36" y2="234.82"/><line class="cls-30" x1="222.06" y1="241.24" x2="248.36" y2="241.24"/><text class="cls-31" transform="translate(230.19 252.8)">100ml</text></g></g></svg>