<svg xmlns="http://www.w3.org/2000/svg" xmlns:xlink="http://www.w3.org/1999/xlink" viewBox="0 0 330.78 330.78"><defs><style>.cls-1,.cls-16{fill:#fff;}.cls-1{stroke:#94d9f7;stroke-miterlimit:10;stroke-width:6px;}.cls-2{fill:url(#未命名漸層_7);}.cls-3{fill:url(#未命名漸層_29);}.cls-4{fill:url(#未命名漸層_35);}.cls-5{fill:url(#未命名漸層_23);}.cls-6{fill:#757575;}.cls-7{fill:#989a9b;}.cls-8{fill:#cbe2ef;}.cls-9{fill:url(#未命名漸層_104);}.cls-10{fill:url(#未命名漸層_104-2);}.cls-11{fill:none;stroke:#686868;stroke-linecap:round;stroke-linejoin:round;stroke-width:0.25px;}.cls-12{fill:url(#未命名漸層_75);}.cls-13{fill:url(#未命名漸層_75-2);}.cls-14{fill:url(#未命名漸層_75-3);}.cls-15{fill:url(#未命名漸層_75-4);}.cls-16{opacity:0.56;}.cls-17{opacity:0.75;}.cls-18{fill:#bfe4ff;}</style><linearGradient id="未命名漸層_7" x1="5.85" y1="144.41" x2="52.29" y2="144.41" gradientUnits="userSpaceOnUse"><stop offset="0" stop-color="#bea369"/><stop offset="1" stop-color="#9d9fa0"/></linearGradient><linearGradient id="未命名漸層_29" x1="384.43" y1="179" x2="231.18" y2="90.53" gradientUnits="userSpaceOnUse"><stop offset="0" stop-color="#c8ccce"/><stop offset="1" stop-color="#9d9fa0"/></linearGradient><linearGradient id="未命名漸層_35" x1="297.56" y1="188.57" x2="34.09" y2="36.46" gradientUnits="userSpaceOnUse"><stop offset="0" stop-color="#c8ccce"/><stop offset="1" stop-color="#959596"/></linearGradient><linearGradient id="未命名漸層_23" x1="262.17" y1="403.23" x2="65.21" y2="186.94" gradientUnits="userSpaceOnUse"><stop offset="0" stop-color="#e6e9b6"/><stop offset="1" stop-color="#959596"/></linearGradient><linearGradient id="未命名漸層_104" x1="162.16" y1="127.78" x2="164.16" y2="127.78" gradientUnits="userSpaceOnUse"><stop offset="0" stop-color="#9d9fa0"/><stop offset="0.51" stop-color="#c8ccce"/><stop offset="1" stop-color="#9d9fa0"/></linearGradient><linearGradient id="未命名漸層_104-2" x1="160.3" y1="125.89" x2="162.13" y2="125.89" xlink:href="#未命名漸層_104"/><linearGradient id="未命名漸層_75" x1="89.2" y1="111.68" x2="72.73" y2="140.2" gradientUnits="userSpaceOnUse"><stop offset="0" stop-color="#8bc1f7"/><stop offset="0.62" stop-color="#4aa4ed"/></linearGradient><linearGradient id="未命名漸層_75-2" x1="106.38" y1="152.47" x2="51.05" y2="248.3" xlink:href="#未命名漸層_75"/><linearGradient id="未命名漸層_75-3" x1="268.14" y1="103.1" x2="250.87" y2="133" xlink:href="#未命名漸層_75"/><linearGradient id="未命名漸層_75-4" x1="286.16" y1="145.87" x2="228.13" y2="246.38" xlink:href="#未命名漸層_75"/></defs><title>prev_img_5</title><g id="圖層_2" data-name="圖層 2"><g id="圖層_3" data-name="圖層 3"><rect class="cls-1" x="3" y="3" width="324.78" height="324.78"/><polygon class="cls-2" points="51.75 218.46 52.29 6.01 6.04 5.95 5.85 282.88 51.75 218.46"/><polygon class="cls-3" points="279.94 219.2 279.94 6.06 324.76 6.06 324.46 282.87 279.94 219.2"/><rect class="cls-4" x="51.71" y="5.95" width="228.23" height="213.14"/><polygon class="cls-5" points="51.71 219.2 5.81 282.93 5.81 325.26 324.46 325.26 324.46 282.87 279.94 219.2 51.71 219.2"/><rect class="cls-6" x="116.1" y="90.29" width="99.46" height="73.04"/><rect class="cls-7" x="119.01" y="92.32" width="93.62" height="69.15"/><rect class="cls-8" x="167.86" y="94.45" width="41.46" height="65.35"/><rect class="cls-8" x="122.41" y="94.45" width="41.46" height="65.35"/><rect class="cls-9" x="162.16" y="121.66" width="1.99" height="12.24" rx="0.54"/><rect class="cls-10" x="160.3" y="123.76" width="1.83" height="4.26" rx="0.54"/><line class="cls-11" x1="165.82" y1="94.45" x2="165.83" y2="159.79"/><path class="cls-12" d="M81,142.4a16.46,16.46,0,1,0-16.46-16.46A16.46,16.46,0,0,0,81,142.4Z"/><path class="cls-13" d="M87.77,145.11H74.16A21.87,21.87,0,0,0,52.29,167v34a5.47,5.47,0,0,0,10.94,0V167.29h2.32v85.4a6.9,6.9,0,0,0,13.79,0V206.47h3.41v46.22a6.89,6.89,0,0,0,6.9,6.89h0a6.89,6.89,0,0,0,6.9-6.89v-85.4H98.7V201a5.47,5.47,0,0,0,10.94,0V167A21.87,21.87,0,0,0,87.77,145.11Z"/><path class="cls-14" d="M259.51,135.31a17.26,17.26,0,1,0-17.27-17.26A17.26,17.26,0,0,0,259.51,135.31Z"/><path class="cls-15" d="M266.65,138.16H252.37a22.94,22.94,0,0,0-22.94,22.93v35.68a5.74,5.74,0,1,0,11.48,0V161.42h2.43V251a7.23,7.23,0,0,0,14.46,0V202.51h3.58V251a7.23,7.23,0,0,0,7.23,7.23h0a7.23,7.23,0,0,0,7.24-7.23V161.42h2.26v35.35a5.74,5.74,0,1,0,11.47,0V161.09A22.93,22.93,0,0,0,266.65,138.16Z"/><polygon class="cls-16" points="167.81 156.1 167.81 142.99 209.27 128.75 209.33 141.93 167.81 156.1"/><polygon class="cls-16" points="122.38 158.5 122.38 147.36 163.78 135.26 163.81 146.46 122.38 158.5"/><polygon class="cls-16" points="167.81 138.72 167.81 129.65 209.27 115.27 209.33 124.55 167.81 138.72"/><polygon class="cls-16" points="122.33 135.49 122.33 126.41 163.79 112.03 163.85 121.32 122.33 135.49"/><g class="cls-17"><path class="cls-18" d="M60.2,107.44s6.57-38.19,40-63.42c18.22-13.74,44.9-22.61,74.92-22.71.2-1.33,1.4-15.25,1.4-15.25l30.87,32.43L170.24,68.27l1.5-14.71s-60.59-6.72-72.91,61.59C97.34,114.47,71.68,108.77,60.2,107.44Z"/><path class="cls-18" d="M234.39,46.09s28.95,25.76,32.69,67.5c2,22.73-4.54,50.07-20.31,75.61,1,.87,12.2,9.25,12.2,9.25l-43.84,9.06-5.63-47.3,11.7,9s37.72-47.9-13.76-94.46C208.8,73.91,227.2,55.13,234.39,46.09Z"/><path class="cls-18" d="M204.85,231.36s-36.81,12.1-74.8-5.62c-20.67-9.64-41-29.06-55.19-55.51-1.27.44-14.12,5.9-14.12,5.9L74.9,133.67l43.74,18.87L105,158.12s22.48,56.67,88.59,35.51C193.63,195.26,200.63,220.6,204.85,231.36Z"/></g></g></g></svg>