<svg xmlns="http://www.w3.org/2000/svg" xmlns:xlink="http://www.w3.org/1999/xlink" viewBox="0 0 330.78 330.78"><defs><style>.cls-1,.cls-8{fill:#fff;}.cls-1{stroke:#94d9f7;stroke-width:6px;}.cls-1,.cls-5,.cls-9{stroke-miterlimit:10;}.cls-2{fill:url(#未命名漸層_34);}.cls-3{fill:#848484;}.cls-4{fill:#3a3a3a;}.cls-5{fill:#232323;stroke:#777676;}.cls-5,.cls-9{stroke-width:0.5px;}.cls-6{font-size:18.51px;font-family:YuGothicUI-Light, Yu Gothic UI;font-weight:300;}.cls-6,.cls-7{fill:#777676;}.cls-9{fill:none;stroke:#000;}.cls-10{font-size:16.85px;}.cls-10,.cls-11{font-family:AdobeMingStd-Light-B5pc-H, Adobe Ming Std;}.cls-11{font-size:11.69px;}.cls-12{fill:url(#未命名漸層_49);}.cls-13{fill:url(#未命名漸層_49-2);}.cls-14{fill:url(#未命名漸層_49-3);}.cls-15{fill:url(#未命名漸層_49-4);}.cls-16{fill:url(#未命名漸層_49-5);}.cls-17{fill:url(#未命名漸層_49-6);}.cls-18{fill:url(#未命名漸層_49-7);}.cls-19{fill:url(#未命名漸層_49-8);}.cls-20{fill:url(#未命名漸層_49-9);}.cls-21{fill:url(#未命名漸層_49-10);}.cls-22{fill:url(#未命名漸層_49-11);}.cls-23{fill:url(#未命名漸層_49-12);}.cls-24{fill:url(#未命名漸層_49-13);}.cls-25{fill:url(#未命名漸層_49-14);}.cls-26{fill:url(#未命名漸層_64);}</style><linearGradient id="未命名漸層_34" x1="135.44" y1="316.77" x2="310.26" y2="13.98" gradientUnits="userSpaceOnUse"><stop offset="0" stop-color="#a0a0a0"/><stop offset="0.7" stop-color="#bcbcbc"/></linearGradient><linearGradient id="未命名漸層_49" x1="3405.25" y1="-9313.37" x2="3418.7" y2="-9336.67" gradientTransform="translate(-3169.36 9620.29)" gradientUnits="userSpaceOnUse"><stop offset="0.36" stop-color="#9b6131"/><stop offset="0.79" stop-color="#934d27"/></linearGradient><linearGradient id="未命名漸層_49-2" x1="3443.73" y1="-9313.37" x2="3457.18" y2="-9336.67" gradientTransform="translate(-3246.3 9620.29)" xlink:href="#未命名漸層_49"/><linearGradient id="未命名漸層_49-3" x1="3406.66" y1="-9274.83" x2="3420.11" y2="-9298.12" gradientTransform="translate(-3172.17 9543.2)" xlink:href="#未命名漸層_49"/><linearGradient id="未命名漸層_49-4" x1="3445.13" y1="-9274.83" x2="3458.58" y2="-9298.12" gradientTransform="translate(-3249.11 9543.2)" xlink:href="#未命名漸層_49"/><linearGradient id="未命名漸層_49-5" x1="3406.66" y1="-9236.28" x2="3420.11" y2="-9259.58" gradientTransform="translate(-3172.17 9466.11)" xlink:href="#未命名漸層_49"/><linearGradient id="未命名漸層_49-6" x1="3443.73" y1="-9236.28" x2="3457.18" y2="-9259.58" gradientTransform="translate(-3246.3 9466.11)" xlink:href="#未命名漸層_49"/><linearGradient id="未命名漸層_49-7" x1="3405.25" y1="-9197.8" x2="3418.7" y2="-9221.1" gradientTransform="translate(-3169.36 9389.14)" xlink:href="#未命名漸層_49"/><linearGradient id="未命名漸層_49-8" x1="3445.13" y1="-9197.8" x2="3458.58" y2="-9221.1" gradientTransform="translate(-3249.11 9389.14)" xlink:href="#未命名漸層_49"/><linearGradient id="未命名漸層_49-9" x1="3405.25" y1="-9159.6" x2="3418.7" y2="-9182.9" gradientTransform="translate(-3169.36 9312.75)" xlink:href="#未命名漸層_49"/><linearGradient id="未命名漸層_49-10" x1="3445.13" y1="-9159.6" x2="3458.58" y2="-9182.9" gradientTransform="translate(-3249.11 9312.75)" xlink:href="#未命名漸層_49"/><linearGradient id="未命名漸層_49-11" x1="3405.25" y1="-9121.41" x2="3418.7" y2="-9144.7" gradientTransform="translate(-3169.36 9236.36)" xlink:href="#未命名漸層_49"/><linearGradient id="未命名漸層_49-12" x1="3402.43" y1="-9062.45" x2="3415.88" y2="-9085.75" gradientTransform="translate(-3163.7 9118.45)" xlink:href="#未命名漸層_49"/><linearGradient id="未命名漸層_49-13" x1="3443.73" y1="-9121.41" x2="3457.18" y2="-9144.7" gradientTransform="translate(-3246.3 9236.36)" xlink:href="#未命名漸層_49"/><linearGradient id="未命名漸層_49-14" x1="3443.73" y1="-9062.45" x2="3457.18" y2="-9085.75" gradientTransform="translate(-3246.3 9118.45)" xlink:href="#未命名漸層_49"/><linearGradient id="未命名漸層_64" x1="390.83" y1="245.6" x2="212.5" y2="67.27" gradientUnits="userSpaceOnUse"><stop offset="0.4" stop-color="#898989"/><stop offset="0.7" stop-color="#a0a0a0"/></linearGradient></defs><title>prev_img_4</title><g id="圖層_2" data-name="圖層 2"><g id="圖層_3" data-name="圖層 3"><rect class="cls-1" x="3" y="3" width="324.78" height="324.78"/><rect class="cls-2" x="149.25" y="6.01" width="147.2" height="318.73"/><rect class="cls-3" x="5.99" y="6.01" width="143.25" height="318.73"/><rect class="cls-4" x="188.47" y="122.16" width="29.18" height="29.18" rx="3.23"/><rect class="cls-5" x="191.51" y="125.2" width="23.11" height="23.11" rx="2.67"/><text class="cls-6" transform="translate(198.45 142.97)">5</text><rect class="cls-4" x="188.47" y="160.36" width="29.18" height="29.18" rx="3.23"/><rect class="cls-5" x="191.51" y="163.4" width="23.11" height="23.11" rx="2.67"/><text class="cls-6" transform="translate(198.07 181.17)">4</text><rect class="cls-4" x="188.47" y="198.84" width="29.18" height="29.18" rx="3.23"/><rect class="cls-5" x="191.51" y="201.88" width="23.11" height="23.11" rx="2.67"/><text class="cls-6" transform="translate(198.45 219.65)">3</text><rect class="cls-4" x="188.47" y="237.39" width="29.18" height="29.18" rx="3.23"/><rect class="cls-5" x="191.51" y="240.42" width="23.11" height="23.11" rx="2.67"/><text class="cls-6" transform="translate(198.45 258.2)">2</text><rect class="cls-4" x="188.47" y="275.58" width="29.18" height="29.18" rx="3.23"/><rect class="cls-5" x="191.51" y="278.62" width="23.11" height="23.11" rx="2.67"/><text class="cls-6" transform="translate(199.41 296.39)">1</text><rect class="cls-4" x="227.51" y="122.16" width="29.18" height="29.18" rx="3.23"/><rect class="cls-5" x="230.55" y="125.2" width="23.11" height="23.11" rx="2.67"/><text class="cls-6" transform="translate(235.6 142.97)">11</text><rect class="cls-4" x="188.47" y="83.97" width="29.18" height="29.18" rx="3.23"/><rect class="cls-5" x="191.51" y="87" width="23.11" height="23.11" rx="2.67"/><text class="cls-6" transform="translate(198.45 104.78)">6</text><rect class="cls-4" x="227.51" y="83.97" width="29.18" height="29.18" rx="3.23"/><rect class="cls-5" x="230.55" y="87" width="23.11" height="23.11" rx="2.67"/><text class="cls-6" transform="translate(234.11 104.78)">12</text><rect class="cls-4" x="227.51" y="160.36" width="29.18" height="29.18" rx="3.23"/><rect class="cls-5" x="230.55" y="163.4" width="23.11" height="23.11" rx="2.67"/><text class="cls-6" transform="translate(234.11 181.52)">10</text><rect class="cls-4" x="227.51" y="198.84" width="29.18" height="29.18" rx="3.23"/><rect class="cls-5" x="230.55" y="201.88" width="23.11" height="23.11" rx="2.67"/><text class="cls-6" transform="translate(237.49 219.65)">9</text><rect class="cls-4" x="227.51" y="237.39" width="29.18" height="29.18" rx="3.23"/><rect class="cls-5" x="230.55" y="240.42" width="23.11" height="23.11" rx="2.67"/><text class="cls-6" transform="translate(237.49 258.2)">8</text><rect class="cls-4" x="227.51" y="275.58" width="29.18" height="29.18" rx="3.23"/><rect class="cls-5" x="230.55" y="278.62" width="23.11" height="23.11" rx="2.67"/><text class="cls-6" transform="translate(238.22 296.39)">7</text><rect class="cls-4" x="188.47" y="26.02" width="29.18" height="29.18" rx="3.23"/><rect class="cls-5" x="191.51" y="29.06" width="23.11" height="23.11" rx="2.67"/><polygon class="cls-7" points="193.48 40.61 201.66 46.71 201.66 40.61 201.66 34.5 193.48 40.61"/><polygon class="cls-7" points="212.57 40.61 204.39 34.5 204.39 40.61 204.39 46.71 212.57 40.61"/><rect class="cls-7" x="202.69" y="34.5" width="0.7" height="12.21"/><rect class="cls-4" x="227.51" y="26.02" width="29.18" height="29.18" rx="3.23"/><rect class="cls-5" x="230.55" y="29.06" width="23.11" height="23.11" rx="2.67"/><polygon class="cls-7" points="241.23 40.61 233.05 34.5 233.05 40.61 233.05 46.71 241.23 40.61"/><polygon class="cls-7" points="242.97 40.61 251.15 46.71 251.15 40.61 251.15 34.5 242.97 40.61"/><rect class="cls-7" x="241.76" y="34.5" width="0.7" height="12.21"/><rect class="cls-8" x="159.61" y="21.18" width="23.97" height="288.01"/><rect class="cls-9" x="162.16" y="281.46" width="18.87" height="18.87"/><text class="cls-10" transform="translate(167.71 297.29)">1</text><rect class="cls-9" x="162.16" y="243.19" width="18.87" height="18.87"/><text class="cls-10" transform="translate(167.71 259.03)">2</text><rect class="cls-9" x="162.16" y="204.96" width="18.87" height="18.87"/><text class="cls-10" transform="translate(167.71 220.79)">3</text><rect class="cls-9" x="162.16" y="165.45" width="18.87" height="18.87"/><text class="cls-10" transform="translate(167.35 181.28)">4</text><rect class="cls-9" x="162.16" y="127.26" width="18.87" height="18.87"/><text class="cls-10" transform="translate(167.71 143.09)">5</text><rect class="cls-9" x="162.16" y="89.19" width="18.87" height="18.87"/><text class="cls-10" transform="translate(167.71 105.02)">6</text><rect class="cls-9" x="162.16" y="33.29" width="18.87" height="18.87"/><text class="cls-11" transform="translate(166.08 47.16)">開</text><rect class="cls-8" x="261.66" y="21.18" width="23.97" height="288.01"/><rect class="cls-9" x="264.21" y="281.46" width="18.87" height="18.87"/><text class="cls-10" transform="translate(269.76 297.29)">7</text><rect class="cls-9" x="264.21" y="243.19" width="18.87" height="18.87"/><text class="cls-10" transform="translate(269.76 259.03)">8</text><rect class="cls-9" x="264.21" y="204.96" width="18.87" height="18.87"/><text class="cls-10" transform="translate(269.76 220.79)">9</text><rect class="cls-9" x="264.21" y="165.45" width="18.87" height="18.87"/><text class="cls-10" transform="translate(264.95 181.28)">10</text><rect class="cls-9" x="264.21" y="127.26" width="18.87" height="18.87"/><text class="cls-10" transform="translate(265.36 143.09)">11</text><rect class="cls-9" x="264.21" y="89.19" width="18.87" height="18.87"/><text class="cls-10" transform="translate(265.12 105.02)">12</text><rect class="cls-9" x="264.21" y="33.29" width="18.87" height="18.87"/><text class="cls-11" transform="translate(268.08 47.16)">關</text><rect class="cls-12" x="232.77" y="285.42" width="19.69" height="19.69" transform="translate(485.24 590.54) rotate(180)"/><rect class="cls-13" x="194.3" y="285.42" width="19.69" height="19.69" transform="translate(408.29 590.54) rotate(180)"/><rect class="cls-14" x="231.37" y="246.88" width="19.69" height="19.69" transform="translate(482.43 513.45) rotate(180)"/><rect class="cls-15" x="192.9" y="246.88" width="19.69" height="19.69" transform="translate(405.49 513.45) rotate(180)"/><rect class="cls-16" x="231.37" y="208.33" width="19.69" height="19.69" transform="translate(482.43 436.36) rotate(180)"/><rect class="cls-17" x="194.3" y="208.33" width="19.69" height="19.69" transform="translate(408.29 436.36) rotate(180)"/><rect class="cls-18" x="232.77" y="169.85" width="19.69" height="19.69" transform="translate(485.24 359.39) rotate(180)"/><rect class="cls-19" x="192.9" y="169.85" width="19.69" height="19.69" transform="translate(405.49 359.39) rotate(180)"/><rect class="cls-20" x="232.77" y="131.65" width="19.69" height="19.69" transform="translate(485.24 283) rotate(180)"/><rect class="cls-21" x="192.9" y="131.65" width="19.69" height="19.69" transform="translate(405.49 283) rotate(180)"/><rect class="cls-22" x="232.77" y="93.46" width="19.69" height="19.69" transform="translate(485.24 206.61) rotate(180)"/><rect class="cls-23" x="235.6" y="34.5" width="19.69" height="19.69" transform="translate(490.89 88.7) rotate(180)"/><rect class="cls-24" x="194.3" y="93.46" width="19.69" height="19.69" transform="translate(408.29 206.61) rotate(180)"/><rect class="cls-25" x="194.3" y="34.5" width="19.69" height="19.69" transform="translate(408.29 88.7) rotate(180)"/><rect class="cls-26" x="296.45" y="6.01" width="28.31" height="318.73"/></g></g></svg>