<svg xmlns="http://www.w3.org/2000/svg" xmlns:xlink="http://www.w3.org/1999/xlink" viewBox="0 0 330.78 330.78"><defs><style>.cls-1{fill:#fff;stroke:#94d9f7;stroke-width:6px;}.cls-1,.cls-16,.cls-17,.cls-18,.cls-3{stroke-miterlimit:10;}.cls-2{fill:#cce3f2;opacity:0.55;}.cls-3{fill:none;}.cls-15,.cls-16,.cls-17,.cls-18,.cls-3,.cls-4,.cls-5{stroke:#e8c387;stroke-width:0.5px;}.cls-16,.cls-17,.cls-18,.cls-3{stroke-linecap:round;}.cls-15,.cls-4,.cls-5{stroke-linejoin:round;}.cls-4{fill:url(#未命名漸層_72);}.cls-5{fill:url(#未命名漸層_72-2);}.cls-6{fill:url(#未命名漸層_19);}.cls-7{fill:url(#未命名漸層_41);}.cls-8{fill:url(#未命名漸層_19-2);}.cls-9{fill:url(#未命名漸層_80);}.cls-10{fill:url(#未命名漸層_62);}.cls-11{fill:url(#未命名漸層_79);}.cls-12{opacity:0.4;fill:#605d5d;}.cls-12,.cls-13{font-size:16.17px;font-family:MaiandraGD-Regular, Maiandra GD;}.cls-13{fill:#a09f9f;}.cls-14{opacity:0.75;fill:url(#未命名漸層_59);}.cls-15{fill:url(#未命名漸層_69);}.cls-16{fill:url(#未命名漸層_69-2);}.cls-17{fill:url(#未命名漸層_69-3);}.cls-18{fill:url(#未命名漸層_69-4);}</style><linearGradient id="未命名漸層_72" x1="97.65" y1="191.93" x2="323.51" y2="191.93" gradientUnits="userSpaceOnUse"><stop offset="0" stop-color="#f4d8a2"/><stop offset="0.85" stop-color="#f4d198"/><stop offset="1" stop-color="#f4cc90"/></linearGradient><linearGradient id="未命名漸層_72-2" x1="121.3" y1="233.32" x2="144.02" y2="233.32" xlink:href="#未命名漸層_72"/><linearGradient id="未命名漸層_19" x1="102.78" y1="149.7" x2="61.8" y2="78.72" gradientUnits="userSpaceOnUse"><stop offset="0" stop-color="#5d5d5d"/><stop offset="1" stop-color="#727272"/></linearGradient><linearGradient id="未命名漸層_41" x1="57.58" y1="73.53" x2="101.64" y2="73.53" gradientUnits="userSpaceOnUse"><stop offset="0.31" stop-color="#5d5d5d"/><stop offset="0.64" stop-color="#727272"/><stop offset="1" stop-color="#868686"/></linearGradient><linearGradient id="未命名漸層_19-2" x1="6.13" y1="106.43" x2="37.07" y2="106.43" xlink:href="#未命名漸層_19"/><linearGradient id="未命名漸層_80" x1="-1042.22" y1="-525.79" x2="-1020.03" y2="-547.98" gradientTransform="translate(1302.63 424.23) rotate(-15.93)" gradientUnits="userSpaceOnUse"><stop offset="0" stop-color="#eaeaad"/><stop offset="0.7" stop-color="#f7d877"/></linearGradient><linearGradient id="未命名漸層_62" x1="-1095.39" y1="-532.93" x2="-1034.18" y2="-532.93" gradientTransform="translate(1197.23 737.04)" gradientUnits="userSpaceOnUse"><stop offset="0" stop-color="#eaeaad"/><stop offset="1" stop-color="#f7d877"/></linearGradient><linearGradient id="未命名漸層_79" x1="-1061.73" y1="-556.02" x2="-1061.73" y2="-548.11" gradientTransform="translate(1302.63 424.23) rotate(-15.93)" gradientUnits="userSpaceOnUse"><stop offset="0.18" stop-color="#eaeaad"/><stop offset="1" stop-color="#f7d877"/></linearGradient><linearGradient id="未命名漸層_59" x1="97.62" y1="183.22" x2="163.79" y2="183.22" gradientUnits="userSpaceOnUse"><stop offset="0" stop-color="#92d6f4" stop-opacity="0.6"/><stop offset="1" stop-color="#49a0e8" stop-opacity="0.6"/></linearGradient><linearGradient id="未命名漸層_69" x1="97.45" y1="233.71" x2="323.51" y2="233.71" gradientUnits="userSpaceOnUse"><stop offset="0" stop-color="#f4d8a2"/><stop offset="0.54" stop-color="#f4d198"/><stop offset="1" stop-color="#f4cc90"/></linearGradient><linearGradient id="未命名漸層_69-2" x1="107.76" y1="237.06" x2="134.26" y2="237.06" xlink:href="#未命名漸層_69"/><linearGradient id="未命名漸層_69-3" x1="118.99" y1="250.49" x2="142.42" y2="250.49" xlink:href="#未命名漸層_69"/><linearGradient id="未命名漸層_69-4" x1="121.3" y1="259.66" x2="144.02" y2="259.66" xlink:href="#未命名漸層_69"/></defs><title>prev_img_1</title><g id="圖層_2" data-name="圖層 2"><g id="圖層_3" data-name="圖層 3"><rect class="cls-1" x="3" y="3" width="324.78" height="324.78"/><rect class="cls-2" x="6.13" y="6.04" width="318.54" height="318.67"/><path class="cls-3" d="M144,237.51s-15.76-.26-22.72-5.71"/><path class="cls-4" d="M234.09,215s-20.12,7-22.22,8c-2.34.93-47.28,17.16-48.65,20-3.34.86-9,3-18.22,1.9s-8.52-.9-13.27-1.83-14.31-3.06-16.17-4.22c0,0-12.84-8.1,5.59-7.87,0,0,19.69-7.77,12.77-13.1-3.1-2.38-34-20.91-34.13-21.76-4.21-4.4-2.3-11.88,6.37-7.09.77.43,7.3,4.32,7.46,4.44,2.95,2.06,24.53,13.63,35.6,7.4.74-.41.5-1.45-.22-1.89-3.68-2.23-13.89-8.41-18.52-10.81-5.19-4.11-1.3-14.37,9.88-7.89,0,0,11.06,7.61,23.55,10.24,4.34,1.4,9.79,5,13.62,6.85a5.13,5.13,0,0,0,2.18.55c4.41.16,16.67.55,21.16-.91l.25-.1c5.15-2.29,122.39-58.27,122.39-58.27l-.31,48.42Z"/><path class="cls-5" d="M144,236.18s-15.76-.26-22.72-5.71"/><path class="cls-6" d="M96.36,93c0,4.14,2.75,4.93,2.75,4.93,39.92-1.16,33.27,34.68,33.27,34.68H116.81c.17-11.42-6.13-15.27-6.13-15.27a11.84,11.84,0,0,0-11.25-.17C92.71,121.86,81,124,79,123.84c-9.42-.21-20.21-7.51-20.21-7.51h-16v3.51H37.07V93h5.57v4.5H58.2c3.6-.06,3.7-4.5,3.7-4.5Z"/><path class="cls-7" d="M100.76,54.8c-2.49-1-17.66,1.53-17.66,1.53v-1a1.26,1.26,0,0,0-1.26-1.27H77.37a1.26,1.26,0,0,0-1.26,1.27v.76c-.3-.05-15.18-2.49-17.64-1.53a11.16,11.16,0,0,0,0,8.58c.56.16,16.5-.34,17.64-1.09V70H70.4v6.88H67.25v7.47H60.17V93H99.11V84.34H91.83V76.87h-3V70H83.1V62.28c1.05.76,17.09,1.26,17.66,1.1A11.21,11.21,0,0,0,100.76,54.8Z"/><rect class="cls-8" x="6.13" y="93.01" width="30.93" height="26.84"/><path class="cls-9" d="M166,210.3l-8.33-29.2,3.7-9.27,8,26.57a5.87,5.87,0,0,1-.16,3.88Z"/><path class="cls-10" d="M101.85,188.92h61.2a0,0,0,0,1,0,0v30.36a0,0,0,0,1,0,0H105a3.17,3.17,0,0,1-3.17-3.17V188.92A0,0,0,0,1,101.85,188.92Z" transform="translate(-50.95 44.21) rotate(-15.93)"/><path class="cls-11" d="M101.83,190.45l-3,7.46,58.85-16.81,3.7-9.27-57,16.26A4,4,0,0,0,101.83,190.45Z"/><text class="cls-12" transform="matrix(0.96, -0.27, 0.27, 0.96, 115.5, 215.48)">SOAP</text><text class="cls-13" transform="matrix(0.96, -0.27, 0.27, 0.96, 114.93, 215.23)">SOAP</text><polygon class="cls-14" points="120.65 132.61 98.49 217.27 97.62 220.92 136.48 233.83 163.79 226.05 153.29 213.54 128.47 132.61 120.65 132.61"/><path class="cls-15" d="M233.71,248.65s-17.66.16-19.76,1.25c-2.34.93-49.36,16.64-50.73,19.44-3.34.86-9,3-18.22,1.91s-8.52-.91-13.27-1.84-14.31-3.05-16.17-4.22c0,0-12.84-8.09,5.59-7.87,0,0-3.27-3.66-2.38-7.46s-10.31-6.63-11-17.41c.06-1.85-9.28-10.19-10-11.53-.61-2.24-1.34-7.55,8.72-5.48,0,0,20,15.95,32.83,15.23,0,0,7.07,2.66,7.37-6.75,0,0-10.5-6.45-16.2-9.41-5.19-4.1-1.3-14.37,9.88-7.88,0,0,11.06,7.61,23.55,10.24,4.51,1.45,10.22,5.25,14.05,7a3.43,3.43,0,0,0,1.41.33c4.13.17,16.95,0,21.63-.94,3.1-.78,19.63-3.07,30.95-6.31l91.56-21.14-.36,47.77Z"/><path class="cls-16" d="M134.26,242.26s-9.07-.62-10.79-1.56-10.38-6.53-15.71-8.85"/><path class="cls-17" d="M142.42,252.39s-19.32,0-23.43-3.8"/><path class="cls-18" d="M144,262.51s-15.76-.26-22.72-5.71"/></g></g></svg>