<svg xmlns="http://www.w3.org/2000/svg" xmlns:xlink="http://www.w3.org/1999/xlink" viewBox="0 0 330.78 330.78"><defs><style>.cls-1,.cls-6{fill:#fff;}.cls-1{stroke:#94d9f7;stroke-width:6px;}.cls-1,.cls-9{stroke-miterlimit:10;}.cls-2{fill:#cce3f2;opacity:0.55;}.cls-3{fill:url(#未命名漸層_72);}.cls-4{fill:url(#未命名漸層_72-2);}.cls-5{fill:url(#未命名漸層_83);}.cls-7{fill:#0c0c0c;}.cls-8{opacity:0.5;font-size:30.81px;fill:#00a249;font-family:KristenITC-Regular, Kristen ITC;}.cls-9{fill:none;stroke:#fff;stroke-linecap:round;}.cls-10{fill:#cbfff6;}.cls-11{fill:url(#未命名漸層_40);}.cls-12{fill:#86dad8;}</style><linearGradient id="未命名漸層_72" x1="74.86" y1="257.23" x2="253.87" y2="257.23" gradientUnits="userSpaceOnUse"><stop offset="0" stop-color="#f4d8a2"/><stop offset="0.85" stop-color="#f4d198"/><stop offset="1" stop-color="#f4cc90"/></linearGradient><linearGradient id="未命名漸層_72-2" x1="90.31" y1="142.52" x2="243.66" y2="142.52" xlink:href="#未命名漸層_72"/><linearGradient id="未命名漸層_83" x1="116.88" y1="130.37" x2="235.12" y2="73.26" gradientUnits="userSpaceOnUse"><stop offset="0" stop-color="#020202"/><stop offset="0.7" stop-color="#333"/></linearGradient><linearGradient id="未命名漸層_40" x1="123.24" y1="184.72" x2="210.73" y2="184.72" gradientUnits="userSpaceOnUse"><stop offset="0" stop-color="#abfff0"/><stop offset="1" stop-color="#8fffe9"/></linearGradient></defs><title>prev_img_2</title><g id="圖層_2" data-name="圖層 2"><g id="圖層_3" data-name="圖層 3"><rect class="cls-1" x="3" y="3" width="324.78" height="324.78"/><polygon class="cls-2" points="326.02 324.81 7.45 324.81 5.99 6.09 324.56 6.09 326.02 324.81"/><path class="cls-3" d="M141.7,212.33s2.2,26.86,0,32.68c-9.35,3.37-66.81,20.91-66.81,20.91L166.41,303l87.46-37.16-60.53-21.54s-4-17.33-1.18-32.87C189.33,212.5,141.7,212.33,141.7,212.33Z"/><path class="cls-4" d="M226.69,132.86c-3.8-37.5-29.44-66.52-60.53-66.52s-56.67,28.94-60.52,66.38c-4.56-.18-14.12,1.15-15.33,15.25,0,1.45,1.53,15.63,6.84,19.48,1.11,1,5.07,3.9,12.22,3,6.19,19.57,18.68,35.18,34.36,42.91a50.37,50.37,0,0,0,22.43,5.31c26,0,48.19-20.3,57-48.88l.6.55c7.71,1.24,11.93-1.89,13.09-2.91,5.31-3.85,6.83-18,6.83-19.48C242.27,131.79,229.91,132.42,226.69,132.86Z"/><path class="cls-5" d="M103.88,139.86a79.56,79.56,0,0,1-2.64-33.67c2.88-12.86,3.11-20.54,16.63-37.19,3.34-3,14.22-13,28.6-15.91,2.49-.55,12.67-4.35,32.79-1.85,2.64.56,19.35,2.41,31.86,13.88,1.87,1.48,13.14,11.56,17.26,27.2.54,2.31,3.49,12.58,3.41,23.31.16,2-.62,18.22-2,20.35s-3,5.64-4.19,6.47c-.66.45-.53-1.47-.24-4,.25-2.2.63-4.85.7-6.76-.7-2.12-7.92-19-7.92-19S200.87,108,194,100.46c-.62.27-2.33,1.29,2,7.4-1.32.27-12.05.74-21-7.22-.16,1.2-1.56,1.39,3.26,7.59-1.63-.1-22.85-5.09-33-23-.93.93-6.84,8-3.26,22-2.1-.37-11.58-.46-18.65-13.32-.23,1.64-3.36,24.58-15.87,43.42a5.34,5.34,0,0,0-.64,1.26C105.64,142.66,103.88,139.86,103.88,139.86Z"/><path class="cls-6" d="M275.82,275.61c-1.77-7.2-46.4-20.66-72.23-27.64-11.44,21.63-30.32,24.78-35.7,25.2a10.11,10.11,0,0,1-2.8-.18c-5.51-1.14-26.69-6.63-33-24.89-25.54,6.81-71.51,20-73.13,27.51-3.39,15.59-3.74,42.5-1.62,49.2,37.11.14,212,.14,222.6,0C281.86,316.57,280.23,293.49,275.82,275.61Z"/><path class="cls-7" d="M137.17,246.35s26.56,45.35,61.86,0c4.56,1.62,8.71,2.75,8.71,2.75s-41.36,57.45-79.95.17C129.92,248.69,137.17,246.35,137.17,246.35Z"/><text class="cls-8" transform="translate(120.9 320.32)">health</text><path class="cls-9" d="M213.8,160s11.08-25.46,16.76-27.25"/><path class="cls-9" d="M223.74,170.36a96.39,96.39,0,0,1-11,20.49"/><path class="cls-9" d="M123.14,160s-13.85-25.64-20.94-27"/><path class="cls-9" d="M109.42,170.65s5.86,16.07,15.46,26.16"/><path class="cls-10" d="M123.14,160c.5-.5,5-3.16,17.31-2.93,2.13-1.06,21.64-9.69,27.79-9,2.13.07,21.34,3,25.82,4.7,2.58.46,16.4,2.44,19.74,7.18.15,1.78.68,29.11-.76,33.82-1.06,1.52-22.4,23.08-26.12,26.27-2.35.15-39.79,1.37-39.79,1.37s-23-22.1-24.75-25.82c-.83-2.35-1.29-10.28-1.52-10.87s-.6-5.07-.6-5.07S118.59,164.55,123.14,160Z"/><path class="cls-11" d="M126.18,162.64S136.87,160,142.53,161c1.32-.84,17.74-7.82,23.88-7.82,6,.35,23.75,2.93,25.57,4.75,1.88.07,9.08,1.11,9.08,1.11s7.68,2.8,9.36,3.64c.35,2,.48,28.1,0,29.14s-21,22.12-24.87,23.24c-3.91.28-32.83,2-37,1-2.86-2-21.93-19.28-23.46-21.52-.56-2.86-3-21.79-1.12-27.37C124.72,165.5,123.6,165.22,126.18,162.64Z"/><path class="cls-12" d="M123.75,172.41s14.76-1.83,19.07-1.56a58,58,0,0,0,7-.73c1.33-.32,10.37-3.12,12.2-3.12s38.75,1.33,48.24,5.87c-2.25.23-18.71-1.05-21.46-1.28s-20.54-1.43-24.4-1.2c-4.21.46-16.14,2.4-18.7,2.51S123.75,172.41,123.75,172.41Z"/><path class="cls-12" d="M123.88,180.22s6.56,2.14,10.74,2.29c3.75.37,26.69,1.36,29.61,1.36s23.77-.1,28.77-.73,13.45-2.29,17.1-1.77c-2.61.57-25.07,3.75-28.67,4.58-3.75.16-15.17.47-18,0-2.76,0-7.09-.67-10.11-.93s-14.08-1.1-16.89-.94C133.16,183.61,126.54,182.2,123.88,180.22Z"/><path class="cls-12" d="M125.54,193.64s9.42-.41,12.06.67,15.1,9.82,26.68,9.08c2.91-.07,19.23-1.42,20.72-1.63s6.23-.88,7.59-1.89c1.35-.48,6.56-7.51,15.5-6.76-2.3.67-6.29,2.22-14.15,8.11-1.69.81-3.25,1.09-7.45,1.63-2,.4-16.45,3.93-22.07,4.2-2.51-.21-18.63-5.22-25.06-10.57A45.72,45.72,0,0,0,125.54,193.64Z"/></g></g></svg>