<svg xmlns="http://www.w3.org/2000/svg" viewBox="0 0 349.72 339"><defs><style>.cls-1{fill:#a0a0a0;stroke:#898989;stroke-miterlimit:10;stroke-width:3px;}</style></defs><title>puzzle_2_ept</title><g id="圖層_2" data-name="圖層 2"><g id="拼圖"><path class="cls-1" d="M59.19,66.49s73.85,24,100.6,5.28c4.74-3.07,6.13-9.2,3.35-15-3.9-2.51-41.16-36.8,16.49-55.19C184,2.09,225.85,9.61,191.57,55c.27,8.36.55,16.17.55,16.17s48.22,17,98.11-5c.56,7.53-17.84,52.4-5,90.86,9.2.28,16.73,0,16.73,0S344,118.31,348.2,169.32c.28,6.13-3.34,41.52-46.82,17.28-5.85.27-17.84-.56-17.84-.56s-7.24,60.2,3.35,82.5c-9.76,0-67.73-17.28-91.42,4.46-.28,6.13-.56,9-.56,9s40.69,38.88-17.84,55.48c-5-.11-54.9-16.08-15-55.48.84-4.55-.56-12.36-.56-12.36s-6.89-21.53-100.16-1.89c2.38-5.84,20.91-59.81,11.62-78.71-5.48-1.3-20.6-2.64-20.6-2.64s-35,34.77-50.71-13.74c4.77-10.49,21.12-41.89,49.65-14.26,7.64.23,18.49,0,18.49,0S75.92,87.41,59.19,66.49Z"/></g></g></svg>