<svg xmlns="http://www.w3.org/2000/svg" viewBox="0 0 283.57 221.16"><defs><style>.cls-1{fill:#096ba8;stroke:#064589;stroke-miterlimit:10;stroke-width:3.5px;}.cls-2{font-size:29.47px;fill:#d3d3d3;font-family:MS-UIGothic, MS UI Gothic;}</style></defs><title>puzzle_4_f_1</title><g id="圖層_2" data-name="圖層 2"><g id="拼圖"><path class="cls-1" d="M56.75,9.2S135.17-8.67,149,10.94a83.91,83.91,0,0,1,.52,11.38S109.9,57.89,163.32,73.4c8.33-2.81,49.91-16.16,16.42-51.08.3-4.1.52-8.3.52-8.3s16.88-20,84.15-4.1c1.35,6.11,22.39,39.95,16.31,81.15-2.82,3-6.5,11.71-6.5,11.71H263.37s-33.18-38.17-46.84,9.55c.21,5.42,13,41,46.41,13.88,6.29.21,12.14,0,12.14,0s15,49.23-3.9,81.54c-6.51,1.95-72.65,20.82-90.65,6.07-2.61-3.9-2.17-14.31-2.17-14.31s33.18-34.7-17-48.58c-6,.65-40.66,12.14-6.4,49.88,0,3,.44,13,.44,13s-55.48,16.08-96.27-7c2-6.85,14.14-44.65,4.66-75.11-4.18-2.32-5.43-4.58-19.59-3.73C38.91,130.68.25,146.36,1.8,110.37c2.08-5.05,13.61-42.59,45.64-9.48,5.35.29,14.92.47,14.92.47S73.07,39,56.75,9.2Z"/><text class="cls-2" transform="translate(91.64 121.51)">飛沫傳染</text></g></g></svg>