<svg xmlns="http://www.w3.org/2000/svg" viewBox="0 0 307.1 288.42"><defs><style>.cls-1{fill:#a0a0a0;stroke:#898989;stroke-miterlimit:10;stroke-width:3px;}</style></defs><title>puzzle_1_ept</title><g id="圖層_2" data-name="圖層 2"><g id="拼圖"><path class="cls-1" d="M68.06,103.59H52.21S16.29,78,1.5,120c0,4.49,11.89,46,52.3,15.85H68.06s7.93,59.43-3.17,82.93l.27,4.5s39.35-19,84.26-12.42c3.69,3.17,12.68,4.23,12.68,4.23v16.36s-42.79,38.31,15.32,55.48c6.07-.53,53.09-15.87,17.43-55.48-.79-6.59-1.59-14.78-1.59-14.78s48.34-10.3,99.32.53c2.11-4.23,17.7-43.85,11.62-78.71-3.17-1.32-12.41-2.38-20.6-2.64-1.32,3.43-38.3,31.43-50.72-13.74.27-5.28,20.34-45.43,49.66-14.26,6.34.53,18.49,0,18.49,0s6.87-62.6-10.56-91.92c-1.85-1.85-43.59-29.32-97.73-3.17.52,6.34.52,10.56.52,10.56S227.6,78.5,178.47,78.23c-5.55-.52-47.54-6.34-15.85-54.41.53-3.7-1.05-13.2-1.05-13.2S103.19-7.08,60.14,13.78C59.61,21.44,81.53,84.31,68.06,103.59Z"/></g></g></svg>