<svg xmlns="http://www.w3.org/2000/svg" viewBox="0 0 239.37 219.53"><defs><style>.cls-1{fill:#0048e9;stroke:#025696;stroke-miterlimit:10;stroke-width:3px;}.cls-2{font-size:29.47px;fill:#d3d3d3;font-family:MS-UIGothic, MS UI Gothic;}</style></defs><title>puzzle_3_t</title><g id="圖層_2" data-name="圖層 2"><g id="拼圖"><path class="cls-1" d="M225.33,8.6S167.25-1.73,133.9,8.11c.59,5.76,1.46,13.61,1.46,13.61S171.89,57,119.31,72.79c-4.79-1.55-50.73-13.49-14.1-51.07V6.65s-4.46-.18-11.67-3.89C87.57,2.05,51.28-3.1,16,14.19,12.39,18.89-3,52.24,2.83,92.36c4.43,2.1,6.06,11.19,19.59,4.2,3-3.5,36.39-19.83,43.38,15.39.24,4.43-6.29,36.85-42.45,14.93-5.13-.23-21.83-.47-21.83-.47s-1,49.92,10.64,81.17c6.76,2.34,32.65,15.16,87.7,7,3.73-3.26,7.93-7.93,7.93-7.93v-9.33S67,161.87,120.85,148.8c5.13,0,43.15,5.84,13.53,49l.23,12.13s27.06,20.52,93.07-3.74c.7-7.46,19.13-39.88,4.66-75.1-4-2.33-7.46-5.13-19.59-3.73-2.56,3-42.77,18.48-42.37-17.59,2.49-5.51,13.45-42.13,45.64-9.47,6.06.47,14.92.47,14.92.47S242.1,44.5,225.33,8.6Z"/><text class="cls-2" transform="translate(73.07 122.4)">潛伏期</text></g></g></svg>