<svg xmlns="http://www.w3.org/2000/svg" viewBox="0 0 283.44 266.25"><defs><style>.cls-1{fill:#096ba8;stroke:#025696;stroke-miterlimit:10;stroke-width:3.5px;}.cls-2{font-size:29.47px;fill:#d3d3d3;font-family:MS-UIGothic, MS UI Gothic;}</style></defs><title>puzzle_1_f_1</title><g id="圖層_2" data-name="圖層 2"><g id="說明文字"><path class="cls-1" d="M63,95.73H48.44S15.37,72.15,1.75,110.81c0,4.13,10.94,42.31,48.14,14.59H63s7.3,54.71-2.91,76.35l.24,4.13s36.23-17.51,77.57-11.43c3.4,2.92,11.67,3.89,11.67,3.89V213.4s-39.39,35.27,14.1,51.08c5.59-.49,48.87-14.62,16.05-51.08-.73-6.06-1.46-13.6-1.46-13.6s44.5-9.48,91.43.49c1.94-3.89,16.29-40.37,10.69-72.46-2.91-1.22-11.42-2.19-19-2.43-1.22,3.16-35.26,28.93-46.69-12.65.25-4.86,18.73-41.82,45.72-13.13,5.83.49,17,0,17,0S283.81,42,267.76,15c-1.7-1.7-40.12-27-90-2.91.49,5.83.49,9.72.49,9.72s31.61,50.82-13.62,50.58c-5.1-.49-43.76-5.84-14.59-50.09.49-3.41-1-12.16-1-12.16S95.36-6.15,55.73,13.06C55.24,20.11,75.43,78,63,95.73Z"/><text class="cls-2" transform="translate(89.43 122.96)">接觸傳染</text></g></g></svg>