<svg xmlns="http://www.w3.org/2000/svg" viewBox="0 0 259.77 238.21"><defs><style>.cls-1{fill:#a0a0a0;stroke:#898989;stroke-miterlimit:10;stroke-width:3px;}</style></defs><title>puzzle_3_ept</title><g id="圖層_2" data-name="圖層 2"><g id="拼圖"><path class="cls-1" d="M244.64,9.21S181.55-2,145.33,8.68c.63,6.25,1.58,14.78,1.58,14.78s39.68,38.28-17.43,55.48c-5.21-1.69-55.12-14.65-15.32-55.48V7.1s-4.85-.2-12.68-4.23C95,2.1,55.57-3.49,17.22,15.29,13.33,20.39-3.39,56.62,2.94,100.2c4.82,2.28,6.59,12.16,21.29,4.56,3.29-3.8,39.52-21.54,47.12,16.72.26,4.82-6.84,40-46.11,16.22-5.57-.25-23.71-.51-23.71-.51S.41,191.42,13.08,225.37c7.35,2.53,35.47,16.47,95.27,7.6,4.05-3.55,8.61-8.62,8.61-8.62V214.22s-44.34-38.51,14.19-52.7c5.58,0,46.88,6.33,14.7,53.21l.25,13.17s29.39,22.3,101.1-4.05c.76-8.11,20.77-43.33,5.07-81.59-4.31-2.53-8.11-5.57-21.29-4-2.79,3.29-46.46,20.07-46-19.1,2.7-6,14.61-45.77,49.58-10.3,6.59.51,16.22.51,16.22.51S262.87,48.21,244.64,9.21Z"/></g></g></svg>