<svg xmlns="http://www.w3.org/2000/svg" viewBox="0 0 307.24 239.45"><defs><style>.cls-1{fill:#a0a0a0;stroke:#898989;stroke-miterlimit:10;stroke-width:3px;}</style></defs><title>puzzle_4_ept</title><g id="圖層_2" data-name="圖層 2"><g id="拼圖"><path class="cls-1" d="M61.24,9.6s85.19-19.42,100.17,1.89A91.8,91.8,0,0,1,162,23.85S119,62.49,177,79.33c9-3,54.21-17.55,17.83-55.48.32-4.45.56-9,.56-9s18.34-21.7,91.42-4.46c1.46,6.65,24.31,43.4,17.72,88.16-3.07,3.3-7.07,12.72-7.07,12.72H285.7s-36-41.46-50.89,10.37c.24,5.89,14.14,44.52,50.42,15.08,6.83.23,13.19,0,13.19,0s16.26,53.48-4.24,88.58c-7.07,2.12-78.92,22.61-98.48,6.59-2.82-4.24-2.35-15.54-2.35-15.54s36-37.7-18.5-52.78c-6.47.71-44.17,13.2-6.95,54.19,0,3.3.48,14.13.48,14.13s-60.27,17.47-104.58-7.64c2.16-7.43,15.36-48.5,5.07-81.58-4.55-2.53-5.91-5-21.29-4.06-5.72,3-47.71,20-46-19.1C3.81,114,16.34,73.22,51.13,109.2c5.81.31,16.22.51,16.22.51S79,42,61.24,9.6Z"/></g></g></svg>