<svg xmlns="http://www.w3.org/2000/svg" viewBox="0 0 322.7 312.82"><defs><style>.cls-1{fill:#096ba8;stroke:#064589;stroke-miterlimit:10;stroke-width:3.5px;}.cls-2{font-size:29.47px;fill:#d3d3d3;font-family:MS-UIGothic, MS UI Gothic;}</style></defs><title>puzzle_2_f_4</title><g id="圖層_2" data-name="圖層 2"><g id="拼圖"><path class="cls-1" d="M54.88,61.58s68,22,92.61,4.86c4.37-2.82,5.65-8.47,3.08-13.85C147,50.28,112.68,18.72,165.75,1.78c4.07.52,42.55,7.45,11,49.27.26,7.69.52,14.88.52,14.88s44.38,15.65,90.31-4.62c.51,6.93-16.42,48.24-4.62,83.64,8.47.26,15.4,0,15.4,0s38.74-35.66,42.59,11.29c.25,5.65-3.08,38.23-43.11,15.91-5.39.26-16.42-.51-16.42-.51s-6.67,55.42,3.08,75.94c-9,0-62.35-15.91-84.15,4.11-.26,5.64-.52,8.29-.52,8.29s37.46,35.79-16.42,51.08c-4.62-.11-50.54-14.81-13.85-51.08.77-4.19-.52-11.37-.52-11.37s-6.35-19.82-92.2-1.74c2.19-5.38,19.24-55.07,10.7-72.46-5.05-1.2-19-2.43-19-2.43s-32.2,32-46.69-12.65c4.4-9.66,19.45-38.56,45.72-13.13,7,.22,17,0,17,0S70.29,80.85,54.88,61.58Z"/><text class="cls-2" transform="translate(87.56 169.15)">無症狀患者</text></g></g></svg>