<svg xmlns="http://www.w3.org/2000/svg" viewBox="0 0 322.18 312.31"><defs><style>.cls-1{fill:#0048e9;stroke:#025696;stroke-miterlimit:10;stroke-width:3px;}.cls-2{font-size:29.47px;fill:#d3d3d3;font-family:MS-UIGothic, MS UI Gothic;}</style></defs><title>puzzle_2_t</title><g id="圖層_2" data-name="圖層 2"><g id="拼圖"><path class="cls-1" d="M54.61,61.33s68,22,92.62,4.86c4.36-2.83,5.64-8.47,3.08-13.86-3.6-2.31-37.9-33.87,15.17-50.8C169.55,2,208,9,176.48,50.79c.25,7.7.51,14.88.51,14.88s44.39,15.65,90.31-4.62c.52,6.93-16.42,48.24-4.62,83.65,8.47.25,15.4,0,15.4,0S316.82,109,320.67,156c.26,5.64-3.08,38.23-43.1,15.9-5.39.26-16.43-.51-16.43-.51s-6.67,55.42,3.08,76c-9,0-62.34-15.91-84.15,4.1-.26,5.65-.52,8.3-.52,8.3s37.46,35.79-16.42,51.08c-4.61-.11-50.54-14.81-13.85-51.08.77-4.19-.51-11.38-.51-11.38s-6.36-19.82-92.21-1.74c2.19-5.38,19.25-55.06,10.7-72.46-5.05-1.2-19-2.43-19-2.43s-32.2,32-46.68-12.64C6,149.41,21.05,120.51,47.32,146c7,.21,17,0,17,0S70,80.59,54.61,61.33Z"/><text class="cls-2" transform="translate(87.29 168.9)">無症狀患者</text></g></g></svg>