<svg xmlns="http://www.w3.org/2000/svg" viewBox="0 0 332.74 216.35"><defs><style>.cls-1{fill:#aaa;opacity:0.15;}.cls-2{fill:#f4eef6;stroke:#ffc63f;stroke-miterlimit:10;stroke-width:3px;}.cls-3{font-size:33.52px;font-family:MS-PGothic, MS PGothic;}.cls-4{fill:#af0404;}.cls-4,.cls-5{font-size:49.15px;}.cls-5{fill:#9b0000;}.cls-6{font-family:MS-UIGothic, MS UI Gothic;}</style></defs><title>sym_2_text</title><g id="圖層_2" data-name="圖層 2"><g id="常見症狀"><polygon class="cls-1" points="330.35 155.57 300.86 185.06 276.96 185.03 330.29 131.81 330.35 155.57"/><polygon class="cls-1" points="329.34 152.8 299.85 182.29 275.95 182.27 329.28 129.04 329.34 152.8"/><polygon class="cls-1" points="51.41 3.55 3.79 47.98 3.83 31.69 34.45 3.65 51.41 3.55"/><path class="cls-2" d="M248.26,184.79h57.32a25.66,25.66,0,0,0,25.66-25.66v-132A25.66,25.66,0,0,0,305.58,1.5H27.16A25.66,25.66,0,0,0,1.5,27.16v132a25.66,25.66,0,0,0,25.66,25.66h191.6"/><polyline class="cls-2" points="217.12 184.34 234.24 213.31 250.19 184.08"/><polygon class="cls-1" points="82.05 3.58 3.69 77.27 3.67 58.11 62.12 3.97 82.05 3.58"/><text class="cls-3" transform="translate(51.12 86.72)">約 <tspan class="cls-4" x="43.73" y="0">67.1%</tspan><tspan class="cls-5" x="152.02" y="0"> </tspan><tspan x="166.99" y="0">患者</tspan><tspan class="cls-6"><tspan x="0" y="43.6">會出現乾咳症狀</tspan></tspan></text></g></g></svg>