<svg xmlns="http://www.w3.org/2000/svg" xmlns:xlink="http://www.w3.org/1999/xlink" viewBox="0 0 363.14 186.56"><defs><style>.cls-1,.cls-2{stroke:#ffc63f;stroke-miterlimit:10;stroke-width:3px;}.cls-1{fill:url(#未命名漸層_37);}.cls-2{fill:#f4eef6;}.cls-3{fill:#aaa;opacity:0.15;}.cls-4{font-size:33.52px;font-family:MS-UIGothic, MS UI Gothic;}.cls-5{fill:#af0404;font-size:49.15px;}</style><linearGradient id="未命名漸層_37" x1="10570.75" y1="9399.42" x2="10259.88" y2="9219.94" gradientTransform="translate(10581.93 9402.96) rotate(180)" gradientUnits="userSpaceOnUse"><stop offset="0.32" stop-color="#fff"/><stop offset="1" stop-color="#f4eef6"/></linearGradient></defs><title>sym_5_text</title><g id="圖層_2" data-name="圖層 2"><g id="常見症狀"><path class="cls-1" d="M331.73,83.63v75.73a25.7,25.7,0,0,1-25.7,25.7H27.2a25.7,25.7,0,0,1-25.7-25.7V27.2A25.7,25.7,0,0,1,27.2,1.5H306a25.7,25.7,0,0,1,25.7,25.7V51.14"/><polyline class="cls-2" points="331.05 49.13 360.29 66.58 331 85.45"/><polygon class="cls-3" points="329.26 120.39 263.25 183.58 239.38 183.58 329.26 97.92 329.26 120.39"/><polygon class="cls-3" points="329.26 154.09 299.76 183.58 277.3 183.58 329.26 133.02 329.26 154.09"/><polygon class="cls-3" points="68.36 4.26 3.61 65.67 3.61 40.89 42.57 4.4 68.36 4.26"/><text class="cls-4" transform="translate(48.8 85.35)">約 <tspan class="cls-5" x="43.73" y="0">18.6% </tspan><tspan x="166.99" y="0">患者</tspan><tspan x="0" y="43.6">會感到呼吸急促</tspan></text></g></g></svg>