<svg xmlns="http://www.w3.org/2000/svg" viewBox="0 0 363.14 186.56"><defs><style>.cls-1{fill:#f4eef6;stroke:#ffc63f;stroke-miterlimit:10;stroke-width:3px;}.cls-2{font-size:33.52px;font-family:MS-PGothic, MS PGothic;}.cls-3{fill:#af0404;}.cls-3,.cls-4{font-size:49.15px;}.cls-4{fill:#9b0000;}.cls-5{font-family:MS-UIGothic, MS UI Gothic;}.cls-6{fill:#aaa;opacity:0.15;}</style></defs><title>sym_1_text</title><g id="圖層_2" data-name="圖層 2"><g id="常見症狀"><path class="cls-1" d="M31.41,102.93V27.2A25.7,25.7,0,0,1,57.11,1.5H335.94a25.7,25.7,0,0,1,25.7,25.7V159.36a25.7,25.7,0,0,1-25.7,25.7H57.11a25.7,25.7,0,0,1-25.7-25.7V135.42"/><polyline class="cls-1" points="32.09 137.43 2.85 119.98 32.15 101.11"/><text class="cls-2" transform="translate(79.74 85.28)">約 <tspan class="cls-3" x="43.73" y="0">87.9%</tspan><tspan class="cls-4" x="152.02" y="0"> </tspan><tspan x="166.99" y="0">患者</tspan><tspan class="cls-5"><tspan x="0" y="43.6">會出現發燒症狀</tspan></tspan></text><polygon class="cls-6" points="359.24 119.58 293.24 182.77 269.37 182.77 359.24 97.11 359.24 119.58"/><polygon class="cls-6" points="359.24 153.28 329.75 182.77 307.28 182.77 359.24 132.22 359.24 153.28"/><polygon class="cls-6" points="98.35 3.46 33.59 64.86 33.59 40.08 72.56 3.6 98.35 3.46"/></g></g></svg>