<svg xmlns="http://www.w3.org/2000/svg" xmlns:xlink="http://www.w3.org/1999/xlink" viewBox="0 0 184.37 168.21"><defs><style>.cls-1{stroke:#323277;stroke-width:2px;fill:url(#未命名漸層_82);}.cls-1,.cls-2{stroke-miterlimit:10;}.cls-2{font-size:37.59px;fill:#f4eef6;stroke:#f4eef6;font-family:MicrosoftJhengHeiUIRegular, Microsoft JhengHei UI;}</style><linearGradient id="未命名漸層_82" x1="1126.79" y1="-3006.69" x2="1250.73" y2="-3130.63" gradientTransform="matrix(0.97, 0.23, -0.23, 0.97, -1765.81, 2807.16)" gradientUnits="userSpaceOnUse"><stop offset="0.37" stop-color="#232382"/><stop offset="0.93" stop-color="#01337a"/></linearGradient></defs><title>sym_7</title><g id="圖層_2" data-name="圖層 2"><g id="常見症狀"><path class="cls-1" d="M174.06,100.45A19.56,19.56,0,0,1,159,94.3a4.5,4.5,0,0,1-1.84-3c.06-.27.11-.51.14-.71A22.7,22.7,0,0,0,156.8,83l-.46-5.75s-.3-.88-.68-2.11c-.28-2-.52-3.66-.6-4.05a20.34,20.34,0,0,1,6.73-1.27,41.79,41.79,0,0,1,7.49-.16c3.47-.73,3.09-1.24,3.7-3.86.18-6.15-3.41-5.82-5.83-5.6-3,1.68-5.14,2.68-5.52,3.06l-.33.13-.11,0c-.76.17-2.64.57-4.45.8a8,8,0,0,1-3.84-.38,31.55,31.55,0,0,0-1.48-3.44,26.76,26.76,0,0,0-7.19-11.25l-.45-.61a3.37,3.37,0,0,0-.13-.38c0-1.69,1.85-4.17,1.85-4.17A22.22,22.22,0,0,1,148,42.65c6-2.39,7.58-3.49,9.08-4.74a6.7,6.7,0,0,0-1.62-7.62c-3.78-2.36-5.8-.29-6.95,0-3.38,1-3.79,4.73-4.21,5.7a31,31,0,0,1-3.73,2.66,17,17,0,0,1-4.14,2.62h0c-3.55-4.61-19.21-12-19.21-12l-.17,0c-.89-.95-1.48-3.69-2.23-6.08a17.12,17.12,0,0,1,.45-7.36,27.58,27.58,0,0,1,3.17-5.24C123,4.41,118.19,1.45,117,1c-7.84-.08-7.58,4.13-8.12,5.71s.08,3.38.11,4.67-1,3.66-1.85,5.54a28.17,28.17,0,0,1-6.06,7.32l-1.15.49a29,29,0,0,0-7.61-.44,73.91,73.91,0,0,0-10.89,1.26c-3.51.58-6,1.14-6,1.14l-.13,0c-.71-.22-1.86-3.33-1.86-3.33s-1-4-1.48-5.92L71.91,17c0-.19,0-.39-.07-.59a10.88,10.88,0,0,0,.69-2.09,10.28,10.28,0,0,0-.81-3.81,2.09,2.09,0,0,1-.14-.17l-.06-.12a3.85,3.85,0,0,0-2.35-1.46l-.39-.2c-5.69-.31-4.19.48-6.55,1.39s-1.83,3.15-2.11,4.79c.39,2.43,1.17,2.21,2.19,3.75s1.55,1.95,2.26,2.91c.68,2,1.31,6.43,1.71,8-3.91.38-8.67,3.54-13.16,7.43-1.79-.63-3.64-2.27-4.94-3.18s-2.27-2.7-3.29-3.54.8-1.81-2.36-2.71a3.87,3.87,0,0,0-.59-.48,4.43,4.43,0,0,0-1.88.17c-1.86.19-2.67,1.58-3.89,3.31a3.5,3.5,0,0,0-.62,1.92.69.69,0,0,0,0,.13,4.6,4.6,0,0,0,.12.84,5.54,5.54,0,0,0,1.89,3.42,4.35,4.35,0,0,0,1.88.39,10.29,10.29,0,0,0,1.78.51,36.63,36.63,0,0,1,3.22,2l2.75,2.9-.42.44A103,103,0,0,0,38,52.94l-.21.07a3.3,3.3,0,0,0-.84.3h0l-.07.05a30.61,30.61,0,0,0-3.19-1.89c-.52-.4-1-.77-1.24-1a2.54,2.54,0,0,0-.93-.54c-1.57-3.25-3.73-4.21-5.14-4.53-6.17.39-6.45,4.56-7.26,7.17-.13,4.34,5.56,4.85,7.05,4.88a52,52,0,0,1,5.72,2.29,2.77,2.77,0,0,1,.24.25,3.86,3.86,0,0,1,.57,2.15,1.62,1.62,0,0,1-.21.44l-.15.56c-.73,1.92-3,7.84-4.39,11.26-.25.56-.51,1.13-.79,1.73a7.9,7.9,0,0,0-.27.95c-.87,3.08-.52,8-.68,10.5-.81,4-4.57,6-6.29,6.89C15.79,95.85,11.11,95.82,9,95.87c-9.89.36-7.94,5.57-7.78,8,.55,2.38,3.47,2.54,6.12,2.09a8,8,0,0,0,.85-.17,17.54,17.54,0,0,0,3-.94c2.65-1.6,5.16-1.62,7.88-2.27,4.76-.57,7.16.55,8.65,1.34,0,1.67,3.2,7.84,5.38,11.52a33.3,33.3,0,0,0,4.72,6.09c-.05.23-.11.45-.16.67-2,2.1-10.7,11.37-11.82,12.46A10.39,10.39,0,0,0,21,137.58l-.63.4c-.08.12-.15.24-.22.36l-.09.08c-3.32,5.39,2.82,8,5.36,8.07s4.5-3.92,5.61-5.11c2-1.35,8.61-7.36,10.33-8.57a30,30,0,0,1,7.1-1,53.09,53.09,0,0,0,8.2,4.11l.17.07,7.77,4,.86.53c1.54,2.19,1.15,3.62.9,7.19-.85,3.7-2.24,6.68-4.46,8.68a5.06,5.06,0,0,0-.08.52l-.43.59a2.81,2.81,0,0,0,.42,1.43,6.55,6.55,0,0,0,4.08,4.93c5.84-.43,6.23-3,6.79-5.43a16.88,16.88,0,0,1,.77-8.37c.52-1.07,1.1-2.14,1.51-2.85a8.64,8.64,0,0,0,.79-2.26c.2-.32.41-.66.66-1l.15-.08a23.94,23.94,0,0,1,3.31-.73c1.41-.06,2.76.06,3.56,0a11.33,11.33,0,0,0,3,.12,31,31,0,0,0,3.73-.54l.68-.11.62-.08c1.35-.06,5.17-.21,9.8-.16,1.38,0,2.3.1,2.3.1s.84,5.68,1,7.75c.49,2,1.41,7.2,1.14,9.48-1.15,5.87,3.67,7.12,3.87,7.49s4.44-.48,7-1.49c2.79-1.71.14-6.77-1.3-8.51a17.37,17.37,0,0,1-1.7-2.64c-.38-1.28-.56-2.63-.91-3.78a8.79,8.79,0,0,1-.25-1.28c0-.89,0-1.84,0-2.92-.15-3.86,3.86-8.91,4.17-9.29l.05,0c.2,0,3.35-.79,5.22-1.47,2.11-1.33,10.39-6.9,10.39-6.9a25.53,25.53,0,0,0,4.45-.48c1,.79,4.94,3.34,7.13,5s4.9,5.52,7.32,7.69c4.42,1.81,6.72.15,8.16-.8,3-2.15.35-6.34-1-7.63-1.46-.92-5.18-2.7-7-3.67a18,18,0,0,1-8.76-9.17s0-.1.05-.14a7.77,7.77,0,0,1,.82-1.81c1.84-2.77,5.94-7.34,7.14-9l.24-.3c3.26-1.32,9-2,11.32-2.28,4.41-.94,3.94.68,6.06,1.16s5.82,2.75,8.49,3.7c4.17.63,4.72-1.53,5.65-2.49,2.64-2.44-.66-7.24-1.76-8.29C178.61,99.89,176,100.57,174.06,100.45Z"/><text class="cls-2" transform="translate(55.21 98.24)">頭痛</text></g></g></svg>