<svg xmlns="http://www.w3.org/2000/svg" viewBox="0 0 332.74 216.35"><defs><style>.cls-1{fill:#f4eef6;stroke:#ffc63f;stroke-miterlimit:10;stroke-width:3px;}.cls-2{fill:#aaa;opacity:0.15;}.cls-3{font-size:33.52px;font-family:MS-UIGothic, MS UI Gothic;}.cls-4{fill:#af0404;font-size:49.15px;}</style></defs><title>sym_7_text</title><g id="圖層_2" data-name="圖層 2"><g id="常見症狀"><path class="cls-1" d="M84.49,31.56H27.16A25.66,25.66,0,0,0,1.5,57.22v132a25.66,25.66,0,0,0,25.66,25.66H305.58a25.66,25.66,0,0,0,25.66-25.66v-132a25.66,25.66,0,0,0-25.66-25.66H114"/><polyline class="cls-1" points="115.62 32.01 98.51 3.04 82.56 32.27"/><polygon class="cls-2" points="3.79 183.03 33.28 212.53 57.18 212.5 3.85 159.28 3.79 183.03"/><polygon class="cls-2" points="281.72 33.78 329.34 78.21 329.31 61.93 298.68 33.89 281.72 33.78"/><polygon class="cls-2" points="251.09 33.82 329.44 107.5 329.46 88.34 271.01 34.2 251.09 33.82"/><text class="cls-3" transform="translate(52.97 118.03)">約 <tspan class="cls-4" x="43.73" y="0">13.6% </tspan><tspan x="166.99" y="0">患者</tspan><tspan x="0" y="43.6">會出現頭痛症狀</tspan></text></g></g></svg>