<svg xmlns="http://www.w3.org/2000/svg" viewBox="0 0 332.74 216.35"><defs><style>.cls-1{fill:#aaa;opacity:0.15;}.cls-2{fill:#f4eef6;stroke:#ffc63f;stroke-miterlimit:10;stroke-width:3px;}.cls-3{font-size:33.52px;font-family:MS-UIGothic, MS UI Gothic;}.cls-4{fill:#af0404;font-size:49.15px;}</style></defs><title>sym_6_text</title><g id="圖層_2" data-name="圖層 2"><g id="常見症狀"><polygon class="cls-1" points="325.12 151.14 295.63 180.63 271.73 180.61 325.06 127.38 325.12 151.14"/><path class="cls-2" d="M84.49,184.79H27.16A25.66,25.66,0,0,1,1.5,159.13v-132A25.66,25.66,0,0,1,27.16,1.5H305.58a25.66,25.66,0,0,1,25.66,25.66v132a25.66,25.66,0,0,1-25.66,25.66H114"/><polyline class="cls-2" points="115.62 184.34 98.51 213.31 82.56 184.08"/><polygon class="cls-1" points="328.95 153.41 299.46 182.9 275.56 182.88 328.89 129.65 328.95 153.41"/><polygon class="cls-1" points="51.02 4.16 3.4 48.59 3.44 32.3 34.06 4.26 51.02 4.16"/><polygon class="cls-1" points="81.66 4.19 3.3 77.88 3.28 58.72 61.73 4.58 81.66 4.19"/><text class="cls-3" transform="translate(51.24 86.97)">約 <tspan class="cls-4" x="43.73" y="0">14.8% </tspan><tspan x="166.99" y="0">患者</tspan><tspan x="0" y="43.6">肌肉或關節疼痛</tspan></text></g></g></svg>