<svg xmlns="http://www.w3.org/2000/svg" xmlns:xlink="http://www.w3.org/1999/xlink" viewBox="0 0 174.81 172.26"><defs><style>.cls-1{stroke:#00418e;stroke-width:2px;fill:url(#未命名漸層_51);}.cls-1,.cls-2{stroke-miterlimit:10;}.cls-2{font-size:37.59px;fill:#f4eef6;stroke:#f4eef6;font-family:MicrosoftJhengHeiUIRegular, Microsoft JhengHei UI;}</style><linearGradient id="未命名漸層_51" x1="1" y1="86.13" x2="173.81" y2="86.13" gradientUnits="userSpaceOnUse"><stop offset="0.42" stop-color="#024984"/><stop offset="1" stop-color="#045c9e"/></linearGradient></defs><title>sym_4</title><g id="圖層_2" data-name="圖層 2"><g id="常見症狀"><path class="cls-1" d="M12.13,102.32A19.56,19.56,0,0,1,28.41,102a4.52,4.52,0,0,1,2.85,2c0,.27.1.51.15.71a22.9,22.9,0,0,0,3.45,6.82l2.7,5.11s.61.68,1.46,1.66c1,1.72,1.91,3.17,2.14,3.49a20.33,20.33,0,0,1-5.69,3.82,42.11,42.11,0,0,1-6.82,3.09c-2.9,2-2.35,2.37-1.88,5,2.26,5.73,5.43,4,7.56,2.85,2.11-2.72,3.67-4.49,3.87-5l.26-.24.08-.08c.64-.45,2.21-1.56,3.78-2.49A8.13,8.13,0,0,1,46,127.62a30.51,30.51,0,0,0,2.72,2.58,26.8,26.8,0,0,0,11,7.52l.66.38.26.29c.69,1.55-.05,4.56-.05,4.56a20.47,20.47,0,0,1-1.75,2.22c-4.57,4.56-5.6,6.2-6.49,8a6.72,6.72,0,0,0,4.5,6.36c4.4.67,5.44-2,6.4-2.7,2.71-2.27,1.62-5.84,1.63-6.9A30.78,30.78,0,0,1,67.28,146a17.47,17.47,0,0,1,2.77-4h0c5.07,2.84,22.37,3.42,22.37,3.42l.17,0c1.19.53,2.82,2.82,4.45,4.71A17.31,17.31,0,0,1,99.54,157a27.89,27.89,0,0,1-.85,6.07c-1.78,7.43,3.79,8.26,5,8.22,7.24-3,5.33-6.78,5.21-8.45s-1.41-3.07-1.94-4.24-.53-3.76-.48-5.83a28.34,28.34,0,0,1,2.68-9.11l.87-.9a29.29,29.29,0,0,0,7.16-2.6,75.38,75.38,0,0,0,9.52-5.44c3-1.92,5.08-3.42,5.08-3.42l.1-.08c.74-.09,3,2.31,3,2.31s2.48,3.29,3.69,4.87c.08.12.15.25.24.38s.2.34.29.52a10.25,10.25,0,0,0,.19,2.2,10.21,10.21,0,0,0,2.25,3.18l.19.1.11.08a3.88,3.88,0,0,0,2.73.43,3.47,3.47,0,0,1,.44,0c5.35-1.95,3.66-2.09,5.47-3.86s.44-3.61.05-5.23c-1.32-2.08-1.94-1.57-3.49-2.58s-2.19-1.18-3.22-1.79c-1.41-1.57-3.74-5.39-4.73-6.7,3.44-1.89,6.57-6.67,9.17-12,1.89-.12,4.23.65,5.79,1s3.15,1.6,4.42,2,0,2,3.23,1.56a4,4,0,0,0,.73.2,4.31,4.31,0,0,0,1.67-.89c1.63-.91,1.83-2.51,2.27-4.58a3.51,3.51,0,0,0-.19-2v-.13a5.23,5.23,0,0,0-.44-.73,5.48,5.48,0,0,0-3.09-2.39,4.33,4.33,0,0,0-1.88.37,10,10,0,0,0-1.83.24c-1.44-.1-3.75-.56-3.75-.56l-3.67-1.59.21-.57a100.39,100.39,0,0,0,4.1-12.58l.16-.15a3.2,3.2,0,0,0,.66-.6l0,0v0l.05-.06a34.26,34.26,0,0,0,3.67.48c.65.16,1.2.32,1.56.45a2.48,2.48,0,0,0,1.06.13c2.72,2.37,5.09,2.4,6.51,2.15,5.51-2.8,4.13-6.74,3.85-9.46-1.59-4-7-2.27-8.4-1.71a53.84,53.84,0,0,1-6.16.15,2.37,2.37,0,0,1-.32-.14,3.87,3.87,0,0,1-1.37-1.75,1.71,1.71,0,0,1,0-.48s0-.2-.08-.58c-.09-2-.35-8.38-.4-12.08,0-.61,0-1.24.05-1.9,0-.33-.07-.65-.12-1-.42-3.17-2.67-7.54-3.52-9.91-.82-4,1.85-7.29,3.06-8.82,3.22-2.89,7.53-4.7,9.42-5.57,8.94-4.22,5.1-8.24,4-10.4-1.44-2-4.19-1-6.45.49a6,6,0,0,0-.71.49,16.49,16.49,0,0,0-2.38,2c-1.8,2.51-4.11,3.52-6.35,5.19-4.15,2.4-6.8,2.31-8.47,2.18-.67-1.54-6-5.95-9.49-8.47A33.88,33.88,0,0,0,129,29.29c0-.22-.08-.45-.11-.67,1-2.71,5.35-14.67,6-16.11A10.41,10.41,0,0,0,138.2,7.9l.43-.62a3.05,3.05,0,0,0,.05-.41.61.61,0,0,0,0-.12c.93-6.25-5.74-6.23-8.1-5.3S128,6.82,127.49,8.36c-1.3,2-5,10.15-6.12,11.94A30,30,0,0,1,115.24,24a52.25,52.25,0,0,0-9.15-.55h-.19l-8.7-.58-1-.15c-2.28-1.41-2.48-2.88-3.66-6.25-.67-3.74-.57-7,.69-9.74,0-.18-.09-.34-.13-.51l.15-.7a2.71,2.71,0,0,0-1-1.16,6.53,6.53,0,0,0-5.68-2.92c-5.2,2.69-4.54,5.24-4.11,7.67a16.91,16.91,0,0,1,2.59,8c0,1.19-.16,2.4-.27,3.21A8.87,8.87,0,0,0,85,22.74c-.06.38-.12.77-.2,1.2l-.11.13a24.12,24.12,0,0,1-2.76,2c-1.27.61-2.56,1-3.28,1.39a11,11,0,0,0-2.84,1.1,27.78,27.78,0,0,0-3.21,2l-.59.37-.53.32c-1.23.59-4.68,2.23-9,4-1.29.5-2.16.81-2.16.81s-3-4.89-4-6.71c-1.24-1.65-4.13-6.06-4.78-8.27-1.25-5.84-6.17-5.1-6.51-5.36s-3.89,2.19-5.84,4.13c-1.9,2.67,2.53,6.27,4.55,7.3a18,18,0,0,1,2.59,1.76c.86,1,1.56,2.2,2.33,3.12a7.66,7.66,0,0,1,.73,1.08c.37.81.73,1.69,1.19,2.67,1.66,3.48,0,9.71-.17,10.18l0,.06c-.16.12-2.77,2-4.22,3.4-1.42,2-6.84,10.44-6.84,10.44A25.65,25.65,0,0,0,35.49,62c-1.22-.33-5.86-1.12-8.54-1.82S20.27,57,17.19,56c-4.78.08-6.24,2.51-7.18,4-1.87,3.14,2.17,6,3.92,6.62,1.7.27,5.83.44,7.85.63a18,18,0,0,1,11.65,5s0,.1,0,.15a7.91,7.91,0,0,1-.05,2c-.59,3.28-2.57,9.09-3,11.07l-.1.37c-2.48,2.5-7.51,5.35-9.51,6.56-3.68,2.6-3.89.92-6,1.31s-6.43-.22-9.26,0c-4.08,1.06-3.73,3.27-4.21,4.52-1.46,3.27,3.46,6.39,4.89,6.92C8.17,104.62,10.32,103,12.13,102.32Z"/><text class="cls-2" transform="translate(54.71 98.45)">有痰</text></g></g></svg>