<svg xmlns="http://www.w3.org/2000/svg" xmlns:xlink="http://www.w3.org/1999/xlink" viewBox="0 0 179.72 166.65"><defs><style>.cls-1{stroke:#004bb7;stroke-width:2px;fill:url(#未命名漸層_25);}.cls-1,.cls-2{stroke-miterlimit:10;}.cls-2{font-size:37.59px;fill:#f4eef6;stroke:#f4eef6;font-family:MicrosoftJhengHeiUIRegular, Microsoft JhengHei UI;}</style><linearGradient id="未命名漸層_25" x1="1" y1="83.32" x2="178.72" y2="83.32" gradientUnits="userSpaceOnUse"><stop offset="0" stop-color="#0d93ce"/><stop offset="1" stop-color="#086baf"/></linearGradient></defs><title>sym_1</title><g id="圖層_2" data-name="圖層 2"><g id="常見症狀"><path class="cls-1" d="M170.72,113.55a19.55,19.55,0,0,1-13.46-9.16,4.47,4.47,0,0,1-1.19-3.26c.12-.25.21-.48.29-.67a23,23,0,0,0,1.11-7.56l.74-5.73s-.1-.92-.22-2.2c.14-2,.26-3.69.26-4.09a20.56,20.56,0,0,1,6.85.16,42.6,42.6,0,0,1,7.35,1.41c3.55,0,3.29-.57,4.43-3,1.46-6-2.13-6.4-4.54-6.69-3.28,1-5.58,1.56-6,1.85l-.35.05h-.11c-.79,0-2.71,0-4.53-.14a8,8,0,0,1-3.67-1.18,31.81,31.81,0,0,0-.74-3.67,26.75,26.75,0,0,0-4.68-12.51c-.12-.26-.23-.49-.31-.69s0-.26,0-.39c.33-1.66,2.67-3.69,2.67-3.69a20.18,20.18,0,0,1,2.72-.8c6.36-1.09,8.15-1.84,9.88-2.75a6.72,6.72,0,0,0,0-7.79c-3.21-3.09-5.62-1.49-6.79-1.49-3.52.28-4.7,3.84-5.31,4.69a30.35,30.35,0,0,1-4.2,1.84,17.2,17.2,0,0,1-4.59,1.7v0c-2.51-5.24-16.3-15.69-16.3-15.69l-.16-.08c-.67-1.12-.68-3.92-.92-6.42a17.32,17.32,0,0,1,2-7.1A27.71,27.71,0,0,1,135,14c5.74-5,1.66-8.94.61-9.63-7.65-1.71-8.27,2.47-9.13,3.9s-.62,3.32-.87,4.58-1.72,3.38-3,5a28,28,0,0,1-7.45,5.89c-.41.09-.83.17-1.23.24a29,29,0,0,0-7.35-2,74.06,74.06,0,0,0-10.91-1c-3.56-.16-6.12-.14-6.12-.14H89.5c-.65-.35-1.13-3.64-1.13-3.64s-.13-4.11-.21-6.1c0-.15,0-.29,0-.45s0-.39.06-.6a10,10,0,0,0,1.11-1.9,10.21,10.21,0,0,0,0-3.89l-.1-.19s0-.09,0-.13a3.89,3.89,0,0,0-2-1.93,2.5,2.5,0,0,1-.34-.27c-5.5-1.49-4.2-.4-6.69,0S77.75,4.45,77.14,6c-.13,2.46.67,2.4,1.35,4.12s1.11,2.24,1.61,3.32c.24,2.11-.06,6.57,0,8.21-3.91-.45-9.22,1.65-14.42,4.51-1.62-1-3.08-3-4.17-4.13S59.86,18.91,59,17.88s1.16-1.61-1.74-3.14a3.53,3.53,0,0,0-.48-.59,4.31,4.31,0,0,0-1.88-.23c-1.85-.2-2.94,1-4.49,2.43a3.45,3.45,0,0,0-1,1.75.44.44,0,0,0-.08.11,4.89,4.89,0,0,0-.06.84,5.48,5.48,0,0,0,1.14,3.74,4.4,4.4,0,0,0,1.76.78,8.86,8.86,0,0,0,1.63.86c1.11.91,2.73,2.62,2.73,2.62l2.09,3.42-.5.34a101.52,101.52,0,0,0-10.61,7.92l-.21,0a3.37,3.37,0,0,0-.89.11h0l-.08,0A31,31,0,0,0,43.6,36.4a16,16,0,0,1-1-1.27,2.54,2.54,0,0,0-.79-.72c-.86-3.5-2.77-4.9-4.08-5.5-6.12-.9-7.27,3.11-8.6,5.5-1,4.22,4.42,5.9,5.87,6.24a53.29,53.29,0,0,1,5.12,3.43c.07.1.13.2.19.3a4,4,0,0,1,.11,2.22,1.69,1.69,0,0,1-.3.38l-.27.52c-1.11,1.73-4.54,7-6.63,10.1-.36.49-.74,1-1.14,1.52-.17.29-.32.58-.46.87-1.5,2.84-2.17,7.71-2.85,10.13-1.63,3.74-5.71,4.89-7.59,5.44-4.29.5-8.86-.51-10.9-.89C.52,73,1.34,78.47,1,80.87c0,2.44,2.86,3.21,5.55,3.31a6.21,6.21,0,0,0,.86,0,17.1,17.1,0,0,0,3.12-.3c2.93-1,5.39-.5,8.19-.58,4.77.44,6.88,2,8.17,3.11-.34,1.64,1.5,8.35,2.87,12.39a33.42,33.42,0,0,0,3.34,7c-.1.21-.19.42-.3.62C30.43,108,20,115.28,18.65,116.11A10.37,10.37,0,0,0,13.27,118l-.7.26a4,4,0,0,0-.29.3l-.11.06c-4.36,4.58,1.1,8.41,3.56,9s5.22-2.89,6.56-3.83c2.22-.9,9.94-5.4,11.89-6.23a30.53,30.53,0,0,1,7.15.49,53.61,53.61,0,0,0,7.16,5.73l.16.1,6.77,5.5.73.7c1.05,2.46.37,3.78-.62,7.21-1.6,3.44-3.58,6.07-6.17,7.56-.08.17-.13.33-.19.49l-.54.49a2.79,2.79,0,0,0,.12,1.49,6.52,6.52,0,0,0,3,5.66c5.81.81,6.73-1.66,7.78-3.89A17,17,0,0,1,62,141c.74-.94,1.52-1.87,2.08-2.47a9,9,0,0,0,1.24-2c.26-.27.54-.56.86-.86l.16,0a23,23,0,0,1,3.4,0c1.39.23,2.68.63,3.47.76a11.26,11.26,0,0,0,3,.74,30,30,0,0,0,3.76.25l.69,0,.62,0c1.34.23,5.11.88,9.61,1.9,1.35.33,2.24.58,2.24.58s-.37,5.72-.62,7.78c.07,2.07-.12,7.34-.86,9.51-2.35,5.5,2.1,7.73,2.22,8.13s4.45.46,7.16,0c3.09-1.08,1.55-6.58.5-8.59a16.67,16.67,0,0,1-1.11-2.93c-.11-1.33,0-2.7-.1-3.89a8.29,8.29,0,0,1,0-1.3c.17-.88.39-1.8.57-2.87.65-3.8,5.63-7.91,6-8.22l.06,0c.2,0,3.44-.07,5.41-.34,2.35-.86,11.61-4.58,11.61-4.58a25.17,25.17,0,0,0,4.44.45c.8,1,4.14,4.3,5.93,6.42s3.64,6.41,5.55,9.05c4,2.69,6.55,1.54,8.15.91,3.33-1.49,1.67-6.13.62-7.67-1.24-1.2-4.51-3.72-6.05-5a18,18,0,0,1-6.65-10.8l.07-.12a7.94,7.94,0,0,1,1.18-1.6c2.38-2.33,7.35-5.94,8.85-7.29l.3-.24c3.47-.62,9.22,0,11.56.12,4.5,0,3.7,1.49,5.68,2.4s5.12,3.9,7.53,5.39c3.95,1.49,4.94-.52,6-1.26,3.08-1.84.86-7.22,0-8.48C175.28,114,172.57,114.07,170.72,113.55Z"/><text class="cls-2" transform="translate(55.36 94.73)">發燒</text></g></g></svg>