<svg xmlns="http://www.w3.org/2000/svg" xmlns:xlink="http://www.w3.org/1999/xlink" viewBox="0 0 170.8 175.02"><defs><style>.cls-1{stroke:#00418e;stroke-width:2px;fill:url(#未命名漸層_51);}.cls-1,.cls-2{stroke-miterlimit:10;}.cls-2{font-size:37.59px;fill:#f4eef6;stroke:#f4eef6;font-family:MicrosoftJhengHeiUIRegular, Microsoft JhengHei UI;}</style><linearGradient id="未命名漸層_51" x1="18813.73" y1="-17737.87" x2="18937.67" y2="-17861.81" gradientTransform="translate(11893.72 -23019.42) rotate(160.38)" gradientUnits="userSpaceOnUse"><stop offset="0.42" stop-color="#024984"/><stop offset="1" stop-color="#045c9e"/></linearGradient></defs><title>sym_3</title><g id="圖層_2" data-name="圖層 2"><g id="常見症狀"><path class="cls-1" d="M12.52,121.15a19.5,19.5,0,0,1,16-3,4.44,4.44,0,0,1,3.14,1.47c.1.26.19.49.27.68a22.88,22.88,0,0,0,4.54,6.15l3.5,4.59,1.71,1.4c1.31,1.52,2.42,2.81,2.7,3.09a20.55,20.55,0,0,1-5,4.71,42.44,42.44,0,0,1-6.21,4.18c-2.52,2.49-1.93,2.72-1,5.25,3.17,5.27,6,3.05,7.93,1.56,1.62-3,2.87-5,3-5.56.07-.09.14-.18.21-.29l.07-.09c.56-.56,1.92-1.9,3.32-3.08a7.9,7.9,0,0,1,3.43-1.75,32.35,32.35,0,0,0,3.11,2.08,26.83,26.83,0,0,0,12.13,5.59l.72.26a3.31,3.31,0,0,0,.3.25c.94,1.42.71,4.51.71,4.51a20.5,20.5,0,0,1-1.37,2.48c-3.74,5.25-4.49,7-5.07,8.91a6.7,6.7,0,0,0,5.49,5.52c4.45-.06,5-2.9,5.87-3.72,2.29-2.68.62-6,.46-7.07A29.68,29.68,0,0,1,74.14,155a17.08,17.08,0,0,1,2.07-4.44h0c5.47,2,22.62-.34,22.62-.34l.16,0c1.27.32,3.25,2.3,5.17,3.9a17.15,17.15,0,0,1,3.6,6.44,27.63,27.63,0,0,1,.17,6.12c-.52,7.62,5.11,7.52,6.34,7.27,6.64-4.17,4.14-7.58,3.74-9.2s-1.9-2.79-2.61-3.86-1.15-3.62-1.45-5.67a28.2,28.2,0,0,1,1.14-9.42c.23-.36.47-.71.7-1a29.37,29.37,0,0,0,6.64-3.75,75.64,75.64,0,0,0,8.48-6.95c2.64-2.39,4.44-4.21,4.44-4.21l.08-.1c.72-.21,3.37,1.79,3.37,1.79s3,2.82,4.44,4.18l.3.34c.13.15.26.3.38.46a10.35,10.35,0,0,0,.55,2.13,10.07,10.07,0,0,0,2.74,2.77l.21.07a.67.67,0,0,0,.12.06,3.86,3.86,0,0,0,2.76,0l.44,0c5-2.81,3.26-2.67,4.75-4.72s-.16-3.63-.81-5.16c-1.65-1.83-2.18-1.23-3.87-2s-2.36-.8-3.48-1.23c-1.65-1.32-4.58-4.7-5.77-5.82,3.08-2.43,5.38-7.67,7-13.36,1.84-.44,4.28-.06,5.87,0s3.37,1,4.68,1.21.31,2,3.45,1a3.92,3.92,0,0,0,.76.08,4.29,4.29,0,0,0,1.49-1.16c1.46-1.16,1.39-2.77,1.48-4.89a3.52,3.52,0,0,0-.52-2s0-.09,0-.13a4.35,4.35,0,0,0-.56-.64,5.43,5.43,0,0,0-3.44-1.85,4.41,4.41,0,0,0-1.8.68,9.81,9.81,0,0,0-1.76.54,37.37,37.37,0,0,1-3.78.06l-3.9-1,.12-.6a103.7,103.7,0,0,0,2-13.09l.13-.17a3.28,3.28,0,0,0,.55-.7l0,0h0l0-.07a33.07,33.07,0,0,0,3.71-.14,15.74,15.74,0,0,1,1.6.19,2.71,2.71,0,0,0,1.07,0c3.08,1.88,5.42,1.52,6.77,1,5-3.67,3-7.34,2.23-10-2.24-3.72-7.29-1.07-8.56-.29a53.08,53.08,0,0,1-6.05,1.17l-.34-.08a3.9,3.9,0,0,1-1.65-1.5,1.81,1.81,0,0,1-.06-.48l-.17-.56c-.43-2-1.74-8.2-2.4-11.84-.09-.6-.18-1.23-.27-1.88-.08-.33-.18-.64-.28-1-.94-3.06-3.89-7-5.12-9.19-1.47-3.8.61-7.5,1.56-9.21,2.69-3.38,6.65-5.88,8.36-7.05,8.12-5.65,3.67-9,2.22-10.92-1.75-1.7-4.29-.26-6.28,1.55a7,7,0,0,0-.62.6,18.78,18.78,0,0,0-2,2.41c-1.36,2.78-3.47,4.15-5.4,6.17-3.69,3.06-6.31,3.41-8,3.56-.92-1.41-6.94-4.87-10.76-6.78a33.89,33.89,0,0,0-7.27-2.58c-.08-.21-.15-.43-.22-.64.52-2.84,2.85-15.35,3.2-16.88a10.23,10.23,0,0,0,2.51-5.1c.11-.22.22-.44.32-.68s0-.28,0-.42l0-.11c-.12-6.33-6.69-5.2-8.87-3.89s-1.67,5.73-2,7.33c-1,2.21-3.26,10.85-4.06,12.8a30.05,30.05,0,0,1-5.42,4.7,52.65,52.65,0,0,0-9.12,1l-.18,0-8.68.87h-1c-2.48-1-2.92-2.42-4.64-5.55-1.28-3.57-1.73-6.83-.94-9.72-.07-.17-.14-.32-.22-.48s0-.48,0-.72a2.74,2.74,0,0,0-1.13-1,6.55,6.55,0,0,0-6.09-1.94c-4.68,3.52-3.6,5.92-2.77,8.24A17.05,17.05,0,0,1,70.35,25c.14,1.19.23,2.4.26,3.22a8.33,8.33,0,0,0,.57,2.32c0,.39,0,.79,0,1.22,0,.05-.06.1-.08.15a26,26,0,0,1-2.39,2.41c-1.16.81-2.36,1.44-3,1.91a11,11,0,0,0-2.62,1.56,29.46,29.46,0,0,0-2.84,2.46l-.52.47-.47.4c-1.11.78-4.24,3-8.16,5.43l-2,1.16s-3.77-4.32-5-6C42.54,40.37,39,36.5,38,34.43c-2.21-5.55-6.93-4-7.3-4.21S27.17,33,25.56,35.27c-1.42,2.94,3.55,5.76,5.7,6.44A17.7,17.7,0,0,1,34.12,43c1,.87,1.9,1.91,2.81,2.68a8.57,8.57,0,0,1,.9.95c.5.74,1,1.54,1.62,2.43C41.66,52.24,41,58.67,41,59.15l0,.06c-.15.15-2.4,2.47-3.6,4.06-1.06,2.26-5,11.43-5,11.43a25.63,25.63,0,0,0-3.48,2.8c-1.26-.13-6-.14-8.73-.38s-7.1-2-10.31-2.51c-4.7.87-5.74,3.51-6.43,5.09-1.32,3.41,3.13,5.52,5,5.88,1.72,0,5.82-.53,7.84-.68a18,18,0,0,1,12.32,3s0,.09,0,.14a8.06,8.06,0,0,1,.29,2c-.05,3.32-1,9.38-1.15,11.41,0,.13,0,.26,0,.38-2,2.87-6.51,6.53-8.29,8-3.2,3.17-3.68,1.55-5.72,2.29s-6.38.85-9.14,1.49c-3.86,1.72-3.14,3.84-3.41,5.15-.9,3.48,4.47,5.73,6,6C9,124.08,10.84,122.09,12.52,121.15Z"/><text class="cls-2" transform="translate(54.68 101.65)">倦怠</text></g></g></svg>