<svg xmlns="http://www.w3.org/2000/svg" xmlns:xlink="http://www.w3.org/1999/xlink" viewBox="0 0 363.14 186.56"><defs><style>.cls-1,.cls-2{stroke:#ffc63f;stroke-miterlimit:10;stroke-width:3px;}.cls-1{fill:url(#未命名漸層_37);}.cls-2{fill:#f4eef6;}.cls-3{fill:#aaa;opacity:0.15;}.cls-4{font-size:33.52px;font-family:MS-UIGothic, MS UI Gothic;}.cls-5{fill:#af0404;font-size:49.15px;}</style><linearGradient id="未命名漸層_37" x1="351.96" y1="183.02" x2="41.09" y2="3.54" gradientUnits="userSpaceOnUse"><stop offset="0.32" stop-color="#fff"/><stop offset="1" stop-color="#f4eef6"/></linearGradient></defs><title>sym_4_text</title><g id="圖層_2" data-name="圖層 2"><g id="常見症狀"><path class="cls-1" d="M31.41,102.93V27.2A25.7,25.7,0,0,1,57.11,1.5H335.94a25.7,25.7,0,0,1,25.7,25.7V159.36a25.7,25.7,0,0,1-25.7,25.7H57.11a25.7,25.7,0,0,1-25.7-25.7V135.42"/><polyline class="cls-2" points="32.09 137.43 2.85 119.98 32.15 101.11"/><polygon class="cls-3" points="359.24 119.58 293.24 182.77 269.37 182.77 359.24 97.11 359.24 119.58"/><polygon class="cls-3" points="359.24 153.28 329.75 182.77 307.28 182.77 359.24 132.22 359.24 153.28"/><polygon class="cls-3" points="98.35 3.46 33.59 64.86 33.59 40.08 72.56 3.6 98.35 3.46"/><text class="cls-4" transform="translate(83.98 88.62)">約 <tspan class="cls-5" x="43.73" y="0">33.4% </tspan><tspan x="166.99" y="0">患者</tspan><tspan x="0" y="43.6">會有痰</tspan></text></g></g></svg>