<svg xmlns="http://www.w3.org/2000/svg" xmlns:xlink="http://www.w3.org/1999/xlink" viewBox="0 0 181.03 172.2"><defs><style>.cls-1{stroke:#004bb7;stroke-width:2px;fill:url(#未命名漸層_25);}.cls-1,.cls-2{stroke-miterlimit:10;}.cls-2{font-size:37.59px;fill:#f4eef6;stroke:#f4eef6;font-family:MicrosoftJhengHeiUIRegular, Microsoft JhengHei UI;}</style><linearGradient id="未命名漸層_25" x1="1" y1="86.09" x2="180.03" y2="86.09" gradientUnits="userSpaceOnUse"><stop offset="0" stop-color="#0d93ce"/><stop offset="1" stop-color="#086baf"/></linearGradient></defs><title>sym_2</title><g id="圖層_2" data-name="圖層 2"><g id="常見症狀"><path class="cls-1" d="M169.55,84.91a19.56,19.56,0,0,1-16.08-2.57A4.51,4.51,0,0,1,151,79.89c0-.28,0-.52,0-.73a23,23,0,0,0-2.21-7.31L147,66.35s-.49-.79-1.14-1.9c-.72-1.87-1.34-3.45-1.51-3.81a20.78,20.78,0,0,1,6.28-2.77A42.86,42.86,0,0,1,157.9,56c3.21-1.5,2.73-1.91,2.72-4.6-1.21-6-4.64-4.89-6.94-4.13-2.55,2.32-4.4,3.78-4.68,4.24l-.29.19-.1.06c-.71.34-2.45,1.15-4.16,1.79a7.86,7.86,0,0,1-3.82.5,31.52,31.52,0,0,0-2.23-3,26.79,26.79,0,0,0-9.55-9.33l-.58-.49-.21-.34c-.41-1.64.85-4.47.85-4.47A20.88,20.88,0,0,1,131,34.54c5.29-3.68,6.59-5.12,7.77-6.68a6.72,6.72,0,0,0-3.31-7c-4.22-1.44-5.72,1-6.78,1.54-3.07,1.75-2.62,5.46-2.81,6.5a30.69,30.69,0,0,1-3,3.45,17.33,17.33,0,0,1-3.44,3.49v0C114.93,32.1,98,28.5,98,28.5h-.17c-1.08-.73-2.28-3.26-3.56-5.42A17.31,17.31,0,0,1,93,15.81,27.87,27.87,0,0,1,94.94,10c3-7-2.29-8.8-3.53-9C83.75,2.71,85,6.76,84.79,8.42s.86,3.27,1.17,4.52-.13,3.79-.54,5.82a28.2,28.2,0,0,1-4.23,8.5l-1,.74a28.81,28.81,0,0,0-7.51,1.31A73.45,73.45,0,0,0,62.34,33c-3.28,1.36-5.59,2.47-5.59,2.47l-.11.07c-.75,0-2.58-2.81-2.58-2.81s-1.86-3.66-2.78-5.43c-.05-.14-.11-.28-.16-.43s-.14-.36-.21-.56a9.79,9.79,0,0,0,.2-2.19,10.06,10.06,0,0,0-1.66-3.53l-.17-.13a.81.81,0,0,0-.09-.1,3.81,3.81,0,0,0-2.61-.89l-.43-.11c-5.61,1-4,1.42-6.06,2.85s-1.07,3.47-1,5.14c.94,2.28,1.64,1.88,3,3.15s2,1.55,2.87,2.32c1.11,1.8,2.74,6,3.49,7.43-3.73,1.26-7.65,5.41-11.14,10.22-1.87-.21-4-1.38-5.53-2s-2.82-2.12-4-2.71.36-1.94-2.91-2.1a4,4,0,0,0-.69-.33,4.55,4.55,0,0,0-1.8.59c-1.76.61-2.24,2.15-3,4.11a3.48,3.48,0,0,0-.16,2l0,.13a4.33,4.33,0,0,0,.31.79,5.45,5.45,0,0,0,2.62,2.9,4.14,4.14,0,0,0,1.92,0,9.77,9.77,0,0,0,1.84.09c1.4.35,3.59,1.21,3.59,1.21l3.35,2.2-.32.53a101.54,101.54,0,0,0-6.23,11.67l-.18.11a3.36,3.36,0,0,0-.76.48l0,0h0l-.06.06a31.83,31.83,0,0,0-3.53-1.11c-.61-.27-1.12-.53-1.45-.72a2.62,2.62,0,0,0-1-.32c-2.27-2.8-4.6-3.25-6-3.24-5.91,1.78-5.25,5.91-5.44,8.64.86,4.25,6.51,3.46,8,3.14a53.1,53.1,0,0,1,6.09.93l.3.2a3.93,3.93,0,0,1,1,2,2,2,0,0,1-.1.47l0,.59c-.27,2-1.11,8.31-1.71,12-.12.59-.25,1.21-.38,1.86a8.15,8.15,0,0,0-.05,1c-.15,3.2,1.31,7.9,1.73,10.38.11,4.07-3.1,6.86-4.56,8.15-3.67,2.28-8.23,3.31-10.25,3.83-9.54,2.6-6.46,7.23-5.75,9.55,1.08,2.19,4,1.68,6.43.64a7,7,0,0,0,.79-.35,17.29,17.29,0,0,0,2.7-1.6c2.21-2.15,4.66-2.75,7.16-4,4.5-1.64,7.09-1.09,8.72-.66.39,1.63,4.91,6.91,7.86,10a33.66,33.66,0,0,0,6,4.86c0,.23,0,.46,0,.69-1.44,2.49-7.83,13.5-8.68,14.81a10.44,10.44,0,0,0-4.08,4c-.17.18-.35.35-.52.54a2.67,2.67,0,0,0-.13.4.36.36,0,0,0-.07.1c-2,6,4.56,7.14,7.05,6.63s3.49-4.83,4.3-6.24c1.63-1.77,6.71-9.13,8.11-10.7a30.53,30.53,0,0,1,6.69-2.6,53.49,53.49,0,0,0,8.91,2.14l.19,0,8.47,2.09,1,.33c2,1.78,1.94,3.26,2.51,6.79,0,3.79-.66,7-2.37,9.47a4.38,4.38,0,0,0,0,.52c-.1.22-.19.44-.28.67a2.76,2.76,0,0,0,.73,1.3,6.54,6.54,0,0,0,5.09,3.87c5.59-1.74,5.38-4.36,5.38-6.83A16.94,16.94,0,0,1,82.81,156c.26-1.16.58-2.33.83-3.12a9,9,0,0,0,.25-2.38c.12-.36.25-.74.41-1.14l.13-.11a23.43,23.43,0,0,1,3.06-1.47c1.36-.38,2.7-.57,3.47-.79a11.49,11.49,0,0,0,3-.59,27.77,27.77,0,0,0,3.51-1.37l.64-.26.58-.22c1.31-.37,5-1.38,9.51-2.37,1.36-.27,2.27-.43,2.27-.43s2.1,5.34,2.75,7.31c.94,1.84,3,6.69,3.26,9,.22,6,5.19,6.11,5.47,6.42s4.22-1.47,6.48-3c2.33-2.3-1.4-6.62-3.2-8a17.54,17.54,0,0,1-2.25-2.18c-.66-1.17-1.15-2.44-1.75-3.48a8.75,8.75,0,0,1-.53-1.19c-.22-.87-.42-1.79-.71-2.84-1-3.72,1.74-9.55,2-10l0,0c.19-.1,3.09-1.53,4.75-2.62,1.76-1.77,8.56-9.08,8.56-9.08a25.38,25.38,0,0,0,4.22-1.47c1.14.54,5.57,2.13,8.09,3.29s6,4.25,8.88,5.82c4.72.76,6.58-1.38,7.76-2.63,2.38-2.77-1.1-6.26-2.7-7.21-1.63-.56-5.67-1.45-7.62-2a18,18,0,0,1-10.61-6.94.76.76,0,0,0,0-.15,8.17,8.17,0,0,1,.39-2c1.16-3.12,4.12-8.5,4.91-10.36l.17-.35c2.87-2,8.33-4,10.51-4.8,4.08-1.91,4-.22,6.16-.23s6.3,1.34,9.11,1.67c4.21-.33,4.25-2.57,4.94-3.72,2-3-2.29-6.89-3.6-7.67C173.85,83.33,171.45,84.59,169.55,84.91Z"/><text class="cls-2" transform="translate(49.95 101.75)">乾咳</text></g></g></svg>