<svg xmlns="http://www.w3.org/2000/svg" viewBox="0 0 27 27"><defs><style>.cls-1{fill:#999;opacity:0.03;}.cls-2,.cls-3{fill:#4d4d4d;}.cls-3{opacity:0.44;}</style></defs><title>virus_shadow2</title><g id="圖層_2" data-name="圖層 2"><g id="剪影"><path class="cls-1" d="M24,10.5a13.42,13.42,0,0,0-2.58-7.92A13.49,13.49,0,0,0,2.58,21.42,13.49,13.49,0,0,0,24,10.5Z"/><polygon class="cls-2" points="21.42 2.58 21.42 2.58 21.42 2.58 21.42 2.58"/><polygon class="cls-2" points="2.58 21.42 2.58 21.42 2.58 21.42 2.58 21.42"/><path class="cls-2" d="M3.59,22.65l0,0Z"/><path class="cls-3" d="M26.91,12c0-.15-.05-.3-.07-.45-.06-.36-.12-.71-.2-1.06L26.52,10c-.09-.35-.2-.69-.32-1-.05-.12-.09-.25-.14-.38a12.75,12.75,0,0,0-.54-1.19l-.06-.13a13.79,13.79,0,0,0-2.81-3.66l0,0a13.82,13.82,0,0,0-1.18-1h0A13.49,13.49,0,0,1,2.58,21.42h0a13.82,13.82,0,0,0,1,1.18l0,0a13.79,13.79,0,0,0,3.66,2.81l.13.06a11.67,11.67,0,0,0,1.19.54L9,26.2c.34.12.68.23,1,.32l.47.12c.35.08.7.14,1.06.2l.45.07c.51.05,1,.09,1.54.09a13.56,13.56,0,0,0,2.72-.27,13.29,13.29,0,0,0,2.53-.79,13.79,13.79,0,0,0,4.3-2.89A13.49,13.49,0,0,0,27,13.5C27,13,27,12.47,26.91,12Z"/></g></g></svg>